<?xml version="1.0" standalone="no"?>
<!DOCTYPE svg PUBLIC "-//W3C//DTD SVG 1.1//EN" "http://www.w3.org/Graphics/SVG/1.1/DTD/svg11.dtd" >
<svg xmlns="http://www.w3.org/2000/svg" xmlns:xlink="http://www.w3.org/1999/xlink" version="1.1">
<metadata>
Created by FontForge 20200427 at Fri Dec 12 19:21:47 2014
 By www
Copyright (c) 2006 by Rian Hughes / Device. All rights reserved.
</metadata>
<defs>
<font id="ParalucentW00-DemiBold" horiz-adv-x="577" >
  <font-face 
    font-family="ParalucentW00-DemiBold"
    font-weight="500"
    font-stretch="normal"
    units-per-em="1000"
    panose-1="2 0 5 3 4 0 0 2 0 4"
    ascent="800"
    descent="-200"
    x-height="512"
    cap-height="640"
    bbox="-84 -280 1754 918"
    underline-thickness="50"
    underline-position="-175"
    unicode-range="U+0020-FB02"
  />
<missing-glyph horiz-adv-x="463" 
d="M60 640h343v-640h-343v640zM80 20l141 300l-141 302v-602zM384 622l-142 -302l142 -300v602zM102 20h259l-130 277zM231 343l130 279h-259z" />
    <glyph glyph-name=".notdef" horiz-adv-x="463" 
d="M60 640h343v-640h-343v640zM80 20l141 300l-141 302v-602zM384 622l-142 -302l142 -300v602zM102 20h259l-130 277zM231 343l130 279h-259z" />
    <glyph glyph-name="glyph1" horiz-adv-x="0" 
 />
    <glyph glyph-name="glyph1" horiz-adv-x="0" 
 />
    <glyph glyph-name="glyph2" horiz-adv-x="0" 
 />
    <glyph glyph-name="space" unicode=" " horiz-adv-x="225" 
 />
    <glyph glyph-name="exclam" unicode="!" horiz-adv-x="220" 
d="M154 195h-83l-21 196v249h124v-249zM204 68q0 -45 -25.5 -60.5t-67.5 -15.5t-68 15t-26 61q0 24 7 39t19.5 23.5t29.5 12t38 3.5q41 0 67 -15.5t26 -62.5z" />
    <glyph glyph-name="quotedbl" unicode="&#x22;" horiz-adv-x="376" 
d="M321 387h-82l-22 197v56h124v-56zM137 387h-82l-20 197v56h124v-56z" />
    <glyph glyph-name="numbersign" unicode="#" horiz-adv-x="774" 
d="M526 155l-54 -155h-136l54 155h-128l-53 -155h-137l54 155h-99v115h139l34 95h-173v115h213l56 160h135l-56 -160h129l56 160h135l-56 -160h107v-115h-146l-34 -95h180v-115h-220zM336 365l-34 -95h128l34 95h-128z" />
    <glyph glyph-name="dollar" unicode="$" horiz-adv-x="536" 
d="M509 157q0 -26 -9.5 -51.5t-30.5 -47.5t-53.5 -38t-78.5 -23v-126h-123v126q-98 11 -143 60t-44 134h135q0 -40 26.5 -64t87.5 -24q53 0 74.5 15t23.5 30q2 22 -22 33t-61 18.5t-81.5 15t-82.5 22.5t-64 41.5t-27 72.5q-1 31 9 58.5t31.5 49t55.5 36.5t82 21v122h123
v-125q44 -8 75.5 -24t51 -40t28.5 -54.5t9 -65.5h-135q-4 40 -25 61t-79 21q-53 0 -72 -17.5t-18 -36.5q2 -17 27.5 -25t63 -14.5t80.5 -14.5t80 -24.5t61.5 -45t24.5 -76.5z" />
    <glyph glyph-name="percent" unicode="%" horiz-adv-x="1272" 
d="M1231 221q0 -45 -10 -86.5t-36.5 -73t-71.5 -50.5t-114 -19t-113.5 19t-70 50.5t-35.5 73t-10 86.5t10 86t36 73t70.5 51t113.5 19t113.5 -19t71 -51t36.5 -73t10 -86zM597 0h-136l183 525h-177q20 -22 28.5 -52.5t8.5 -60.5q0 -45 -9.5 -87t-35.5 -73.5t-71.5 -50.5
t-116.5 -19t-116 19t-70.5 51t-34.5 73.5t-9 86.5t10 86t38 72.5t79 50.5t134 19h518zM1109 221q0 24 -4.5 45t-16.5 36t-33 24t-55 9q-32 0 -53 -8.5t-33 -24t-17 -36.5t-5 -45t5 -45t17 -36.5t32.5 -24t52.5 -8.5q33 0 54.5 8.5t33.5 23.5t17 36t5 46zM381 412
q0 24 -4.5 44.5t-16.5 35.5t-33.5 24t-54.5 9q-32 0 -53 -8.5t-33 -23.5t-17 -36t-5 -45q0 -25 4.5 -45.5t16.5 -35.5t33 -23.5t53 -8.5q33 0 54.5 8t33.5 23t17 36t5 46z" />
    <glyph glyph-name="ampersand" unicode="&#x26;" horiz-adv-x="711" 
d="M551 0l-61 69q-40 -35 -88.5 -56t-104.5 -21q-65 0 -110.5 16t-75 44t-43 65t-13.5 78q0 40 13.5 70t35 51t48 34.5t52.5 21.5l-112 127v141h430v-120h-278l222 -248q5 29 6.5 68t1.5 84h133q0 -81 -12.5 -142.5t-32.5 -109.5l163 -172h-174zM287 276q-51 -7 -71.5 -29
t-20.5 -52q0 -35 22 -59.5t75 -24.5q28 0 60.5 7.5t58.5 27.5z" />
    <glyph glyph-name="quotesingle" unicode="'" horiz-adv-x="192" 
d="M137 387h-82l-20 197v56h124v-56z" />
    <glyph glyph-name="parenleft" unicode="(" horiz-adv-x="347" 
d="M334 -64q-86 0 -141 27t-87 77t-44.5 121.5t-12.5 160.5t12.5 160t44.5 121t87 76.5t141 26.5v-102q-55 0 -87.5 -21t-50 -58.5t-22.5 -89.5t-5 -113q0 -62 5 -114t22 -89.5t49.5 -58.5t88.5 -21v-103v0z" />
    <glyph glyph-name="parenright" unicode=")" horiz-adv-x="347" 
d="M300 322q0 -89 -12.5 -160.5t-45 -121.5t-88 -77t-140.5 -27v103q55 0 88 21t50 58.5t22 89.5t5 114q0 61 -5 113t-22.5 89.5t-50 58.5t-87.5 21v102q85 0 140.5 -26.5t87.5 -76.5t45 -121t13 -160z" />
    <glyph glyph-name="asterisk" unicode="*" horiz-adv-x="495" 
d="M347 444l113 -50l-59 -93l-105 63l10 -109h-117l6 109l-101 -63l-59 93l110 50l-110 50l59 92l101 -62l-6 116h117l-10 -116l105 61l59 -91z" />
    <glyph glyph-name="plus" unicode="+" horiz-adv-x="622" 
d="M374 199v-199h-125v199h-222v114h222v199h125v-199h222v-114h-222z" />
    <glyph glyph-name="comma" unicode="," horiz-adv-x="235" 
d="M189 -134h-88v127q-34 2 -54.5 18.5t-20.5 58.5q0 46 26 61t68 15q21 0 39 -3.5t30.5 -12.5t19 -24t3.5 -38z" />
    <glyph glyph-name="hyphen" unicode="-" horiz-adv-x="382" 
d="M41 201v114h300v-114h-300z" />
    <glyph glyph-name="period" unicode="." horiz-adv-x="236" 
d="M212 69q0 -45 -25.5 -61t-66.5 -16q-21 0 -38.5 3.5t-29.5 12t-19 23.5t-7 38q0 46 26 61.5t68 15.5q20 0 37 -3.5t29 -12t19 -23.5t7 -38z" />
    <glyph glyph-name="slash" unicode="/" horiz-adv-x="359" 
d="M136 0h-136l224 640h135z" />
    <glyph glyph-name="zero" unicode="0" horiz-adv-x="624" 
d="M582 319q0 -71 -11.5 -131t-41.5 -103.5t-83 -68t-135 -24.5t-134.5 24.5t-82.5 68t-41.5 103.5t-11.5 132t11.5 132t42 103.5t83 68t133.5 24.5q82 0 135 -24.5t83 -68t41.5 -104t11.5 -132.5zM440 319q0 49 -4 88t-17.5 66.5t-39 42t-68.5 14.5q-41 0 -66 -14.5
t-38.5 -42t-18 -66.5t-4.5 -87t4.5 -87t18 -66.5t38.5 -42t66 -14.5q43 0 68.5 14.5t39 42t17.5 66t4 86.5z" />
    <glyph glyph-name="one" unicode="1" horiz-adv-x="346" 
d="M135 0v522h-121v98l121 20h142v-640h-142z" />
    <glyph glyph-name="two" unicode="2" horiz-adv-x="576" 
d="M534 430q-4 -54 -32 -88t-67.5 -57t-84.5 -38t-83.5 -31.5t-64 -37.5t-25.5 -56v-8h357v-114h-121.5h-76h-53h-52.5h-73.5h-116.5l1 116q1 63 26 103t63.5 65.5t83 41t83.5 30t66 32.5t30 49q9 91 -99 91q-118 0 -118 -106h-133q0 48 13.5 89.5t43 72t76.5 47.5t114 17
q69 0 116.5 -16.5t76.5 -46t41 -69.5t9 -86z" />
    <glyph glyph-name="three" unicode="3" horiz-adv-x="567" 
d="M526 201q0 -41 -13.5 -79t-42.5 -67t-75 -46t-111 -17q-67 0 -114 17t-77 47.5t-43.5 71.5t-13.5 89h135q0 -51 29.5 -80.5t88.5 -29.5q27 0 45.5 8t30 21.5t17 30.5t5.5 34t-5 33.5t-18.5 29t-37 20t-60.5 7.5h-127v105l217 126h-297v118h445v-154l-188 -100
q33 0 70 -7.5t68 -27.5t51.5 -56.5t20.5 -93.5z" />
    <glyph glyph-name="four" unicode="4" horiz-adv-x="607" 
d="M492 122v-122h-143v121h-329v130l282 389h190v-405h102v-113h-102zM349 504l-194 -269h194v269z" />
    <glyph glyph-name="five" unicode="5" horiz-adv-x="572" 
d="M545 207q0 -43 -13.5 -82t-43 -68.5t-75.5 -47t-111 -17.5q-67 0 -114 17t-76.5 47.5t-43 71.5t-13.5 89h137q0 -51 28 -80.5t86 -29.5q27 0 45.5 9t30.5 23t17.5 32t5.5 36t-5.5 35.5t-19 30.5t-36.5 21t-59 8l-211 2v336h438l-1 -118h-299v-107h114q33 0 71.5 -10
t71.5 -34t54.5 -64t21.5 -100z" />
    <glyph glyph-name="six" unicode="6" horiz-adv-x="606" 
d="M565 201q0 -43 -14.5 -81t-45 -66.5t-77.5 -45t-112 -16.5q-70 0 -122 18t-86 57.5t-50.5 101.5t-16.5 151q0 88 16 150.5t48.5 102t82.5 57.5t119 18q121 0 182.5 -48t61.5 -159h-139q0 45 -23.5 67.5t-81.5 22.5q-36 0 -60.5 -11t-39.5 -34t-22 -60t-8 -89q9 10 24 21
t35 20.5t46 15.5t58 6q36 0 75.5 -8.5t72.5 -31t55 -61t22 -98.5zM426 201q0 37 -26.5 63t-93.5 26q-56 0 -87.5 -24.5t-31.5 -64.5q0 -41 31 -68.5t101 -27.5q26 0 46 8t33.5 21.5t20.5 31t7 35.5z" />
    <glyph glyph-name="seven" unicode="7" horiz-adv-x="477" 
d="M207 0h-155l287 522h-325v118h463v-135z" />
    <glyph glyph-name="eight" unicode="8" horiz-adv-x="619" 
d="M577 189q0 -37 -10.5 -72.5t-38 -63t-75.5 -44.5t-123 -17h-43q-74 0 -121.5 17t-75.5 43.5t-38.5 59t-10.5 62.5q0 45 24 84.5t76 62.5q-45 23 -65.5 61t-20.5 91q0 40 13 72.5t42.5 55t76.5 35t115 12.5h14q68 0 115 -13.5t76 -36t42 -52.5t13 -63q0 -51 -25 -84.5
t-60 -53.5q24 -10 42.5 -26.5t31.5 -37.5t19.5 -44.5t6.5 -47.5zM426 460q0 15 -3.5 28t-15 23.5t-34.5 16.5t-62 6t-62 -6t-35 -16.5t-15.5 -23.5t-3.5 -28q0 -14 3 -27.5t15 -24.5t35 -18t63 -7t63 7t34.5 18t14.5 24.5t3 27.5zM437 190q0 16 -5.5 32.5t-20 29.5t-39 21
t-62.5 8q-39 0 -64 -8t-39.5 -21t-20 -29.5t-5.5 -32.5q0 -17 6 -32t21 -26t39.5 -18t62.5 -7q37 0 61.5 7t39 18t20.5 26t6 32z" />
    <glyph glyph-name="nine" unicode="9" horiz-adv-x="600" 
d="M559 321q0 -88 -16 -150.5t-48.5 -102t-83 -58t-119.5 -18.5q-121 0 -186 48.5t-65 160.5h140q0 -46 27 -70.5t84 -24.5q36 0 61 10.5t40 34.5t22 61.5t7 91.5q-5 -9 -17 -20t-31.5 -20.5t-47 -16t-62.5 -6.5q-36 0 -75 8.5t-72 31t-54.5 61t-21.5 98.5q0 43 14.5 81
t45 66.5t78 44.5t112.5 16q72 0 122.5 -19t83 -59t47.5 -102t15 -147zM412 441q0 18 -6.5 35t-20.5 29.5t-38 20t-58 7.5q-29 0 -49.5 -7.5t-33.5 -20.5t-19 -30t-6 -35t5.5 -34.5t19 -28.5t36 -19t56.5 -7q55 0 84.5 25.5t29.5 64.5z" />
    <glyph glyph-name="colon" unicode=":" horiz-adv-x="236" 
d="M212 443q0 -46 -25.5 -61.5t-66.5 -15.5q-42 0 -68 15.5t-26 61.5q0 47 26 62t68 15q20 0 37 -3t29 -11.5t19 -23.5t7 -39zM212 69q0 -45 -25.5 -61t-66.5 -16q-21 0 -38.5 3.5t-29.5 12t-19 23.5t-7 38q0 46 26 61.5t68 15.5q20 0 37 -3.5t29 -12t19 -23.5t7 -38z" />
    <glyph glyph-name="semicolon" unicode=";" horiz-adv-x="235" 
d="M212 443q0 -46 -25.5 -61.5t-66.5 -15.5q-42 0 -68 15.5t-26 61.5q0 47 26 62t68 15q20 0 37 -3t29 -11.5t19 -23.5t7 -39zM212 68q0 -20 -3.5 -53.5t-8.5 -66.5q-5 -39 -11 -82h-88v126q-34 3 -54.5 19t-20.5 57q0 47 26 62.5t68 15.5q20 0 37 -3.5t29 -12t19 -23.5
t7 -39z" />
    <glyph glyph-name="less" unicode="&#x3c;" horiz-adv-x="554" 
d="M199 201l90 -157h-142l-120 211l120 212h142l-88 -152h325v-114h-327z" />
    <glyph glyph-name="equal" unicode="=" horiz-adv-x="650" 
d="M41 307v114h568v-114h-568zM41 97v114h568v-114h-568z" />
    <glyph glyph-name="greater" unicode="&#x3e;" horiz-adv-x="554" 
d="M406 44h-141l90 157h-328v114h325l-87 152h141l120 -212z" />
    <glyph glyph-name="question" unicode="?" horiz-adv-x="545" 
d="M504 439q0 -57 -23 -95t-57 -60t-71.5 -31t-67.5 -9h-10l-21 -47h-118v153h88q41 0 68 7t43 19t22.5 28t6.5 35q0 18 -5.5 34t-17.5 28t-30.5 19.5t-45.5 7.5q-59 0 -86.5 -27t-27.5 -79h-137q0 48 13.5 89.5t43 71.5t76.5 47.5t114 17.5q65 0 111 -16.5t75.5 -45
t43 -66.5t13.5 -81zM290 68q0 -45 -25.5 -60.5t-67.5 -15.5t-67.5 15t-25.5 61q0 47 26 62.5t67 15.5t67 -15.5t26 -62.5z" />
    <glyph glyph-name="at" unicode="@" horiz-adv-x="932" 
d="M884 351q0 -54 -9.5 -100t-35 -79.5t-69.5 -52.5t-113 -19h-56l-29 79q-6 -15 -19 -30t-31.5 -27t-42 -19.5t-50.5 -7.5q-35 0 -65 8.5t-53 25.5t-36 43t-13 62q0 64 41.5 92.5t131.5 39.5l101 11q0 33 -17 44t-58 11q-39 0 -52.5 -9.5t-13.5 -28.5h-125q0 23 8 49
t29 47.5t58 36t95 14.5q64 0 103 -14.5t60 -40.5t27.5 -61.5t6.5 -78.5v-145q52 0 75.5 33.5t23.5 116.5q0 59 -12 108.5t-44.5 85t-89 55.5t-144.5 20t-144.5 -24t-88.5 -65t-44.5 -95.5t-12.5 -115.5q0 -69 15 -124.5t53.5 -94.5t105 -60t169.5 -21h182v-109h-182
q-147 0 -239 32.5t-143.5 88t-69.5 130t-18 159.5q0 79 17.5 153t64 131t127.5 91t208 34q128 0 209 -32.5t127.5 -86t64 -121.5t17.5 -139zM454 280q-21 -2 -34 -6.5t-20 -10t-9 -12t-2 -12.5q0 -17 13 -28.5t52 -11.5q44 0 63 25t19 66z" />
    <glyph glyph-name="A" unicode="A" horiz-adv-x="646" 
d="M496 0l-35 114h-275l-37 -114h-149l227 640h193l226 -640h-150zM324 532l-104 -315h206z" />
    <glyph glyph-name="B" unicode="B" horiz-adv-x="621" 
d="M587 191q0 -37 -14 -71.5t-45.5 -61t-82.5 -42.5t-126 -16h-250v640h249q68 0 115.5 -12t77 -33.5t42.5 -51t13 -63.5q0 -48 -18 -82t-62 -54q55 -18 78 -61t23 -92zM441 195q0 16 -4 30.5t-16 25t-34.5 16.5t-60.5 6h-115v-156h113q37 0 59.5 6.5t35.5 17t17.5 24.5
t4.5 30zM426 452q0 15 -3.5 28t-14.5 22.5t-32 15t-57 5.5h-108v-142h105q35 0 56.5 5.5t33.5 15.5t16 22.5t4 27.5z" />
    <glyph glyph-name="C" unicode="C" horiz-adv-x="677" 
d="M636 242q0 -53 -15 -98.5t-49.5 -79t-90 -53t-136.5 -19.5q-92 0 -149.5 26.5t-90 71.5t-44.5 104.5t-12 125.5t12.5 125.5t45.5 104.5t90.5 71.5t147.5 26.5q79 0 134.5 -20.5t90 -54.5t50 -79.5t15.5 -94.5h-145q-3 29 -12 53t-26 41.5t-43 27t-64 9.5q-49 0 -79 -16.5
t-46.5 -45t-22 -66.5t-5.5 -82t5.5 -82.5t22 -67t46.5 -44.5t79 -16q38 0 64 9.5t43 26.5t25.5 41.5t12.5 54.5h146v0z" />
    <glyph glyph-name="D" unicode="D" horiz-adv-x="662" 
d="M616 324q0 -76 -20.5 -136t-60 -102t-97 -64t-132.5 -22h-237v640h248q147 0 223 -80.5t76 -235.5zM477 325q0 61 -12 99.5t-36 60.5t-60 29.5t-84 7.5h-74v-404h69q49 0 85.5 9.5t61.5 33t37.5 63.5t12.5 101z" />
    <glyph glyph-name="E" unicode="E" horiz-adv-x="564" 
d="M69 0v640h453v-118h-312v-138h281v-115h-281v-151h312v-118h-453z" />
    <glyph glyph-name="F" unicode="F" horiz-adv-x="536" 
d="M210 522v-158h282v-115h-282v-249h-141v640h447v-118h-306z" />
    <glyph glyph-name="G" unicode="G" horiz-adv-x="697" 
d="M571 0l-35 100q-33 -59 -85 -83.5t-115 -24.5q-85 0 -140.5 26.5t-88 71.5t-45.5 104.5t-13 125.5t12 125.5t45 104.5t90.5 71.5t148.5 26.5q79 0 134.5 -18t89.5 -48t49.5 -70t15.5 -83h-147q-3 22 -11 41t-24 32t-42 20.5t-65 7.5q-49 0 -79 -16.5t-46.5 -45t-22 -66.5
t-5.5 -82t5.5 -82.5t22 -67t46.5 -45t79 -16.5q71 0 109 37.5t38 103.5h-163v115h306v-365h-64z" />
    <glyph glyph-name="H" unicode="H" horiz-adv-x="670" 
d="M464 0v269h-259v-269h-143v640h143v-256h259v256h143v-640h-143z" />
    <glyph glyph-name="I" unicode="I" horiz-adv-x="279" 
d="M69 0v640h142v-640h-142z" />
    <glyph glyph-name="J" unicode="J" horiz-adv-x="346" 
d="M280 187q0 -49 -8.5 -85t-30 -60t-59 -35.5t-95.5 -11.5q-20 0 -41.5 1t-45.5 4v114q16 -3 29.5 -4t24.5 -1q51 0 66.5 20t15.5 51v460h143z" />
    <glyph glyph-name="K" unicode="K" horiz-adv-x="590" 
d="M440 0l-229 289v-289h-142v640h142v-269l213 269h192l-282 -305l297 -335h-191z" />
    <glyph glyph-name="L" unicode="L" horiz-adv-x="451" 
d="M71 0v640h144l-1 -522h217v-118h-360z" />
    <glyph glyph-name="M" unicode="M" horiz-adv-x="924" 
d="M712 0v471l-180 -471h-141l-181 471v-471h-141v640h210l162 -415q5 -14 9 -27.5t7 -24.5q3 -12 5 -23q1 12 4 24q2 11 6 24t10 27l165 415h208v-640h-143z" />
    <glyph glyph-name="N" unicode="N" horiz-adv-x="732" 
d="M486 0l-271 445v-445h-144v640h185l265 -443v443h143v-640h-178z" />
    <glyph glyph-name="O" unicode="O" horiz-adv-x="711" 
d="M662 319q0 -65 -12.5 -124.5t-46.5 -104.5t-94 -71.5t-154 -26.5t-153.5 26.5t-93.5 71.5t-46.5 104.5t-12.5 125.5t12.5 125.5t46.5 104.5t93.5 71.5t153.5 26.5t154 -26.5t94 -72t46.5 -105t12.5 -125.5zM517 319q0 44 -5.5 82.5t-23 67t-49.5 45t-84 16.5t-83.5 -16.5
t-49 -45t-23 -66.5t-5.5 -82t5.5 -82.5t23 -67t49 -44.5t83.5 -16t84 16t49.5 44.5t23 66.5t5.5 82z" />
    <glyph glyph-name="P" unicode="P" horiz-adv-x="619" 
d="M575 421q0 -33 -6 -70.5t-32 -70t-78.5 -54t-146.5 -21.5h-101v-205h-142v640h235q62 0 106.5 -10t74.5 -27t48 -39.5t27.5 -46.5t12 -49t2.5 -47zM430 419q0 16 -4 34t-16.5 33.5t-36.5 25.5t-63 10h-99v-204h99q39 0 63 9.5t36.5 24.5t16.5 32.5t4 34.5z" />
    <glyph glyph-name="Q" unicode="Q" horiz-adv-x="712" 
d="M671 0h-286q-105 0 -171 24t-102.5 67t-49.5 101.5t-13 127.5q0 66 12.5 125.5t46.5 104.5t93.5 71.5t153.5 26.5t154 -27t94 -70.5t46.5 -99.5t12.5 -114q0 -89 -21 -147.5t-80 -90.5l110 -35v-64zM517 319q0 44 -5.5 82.5t-23 67t-49.5 45t-84 16.5t-83.5 -16.5
t-49 -45t-23 -66.5t-5.5 -82t5.5 -81.5t23 -64.5t49 -42.5t83.5 -15.5t84 15.5t49.5 42.5t23 64t5.5 81z" />
    <glyph glyph-name="R" unicode="R" horiz-adv-x="619" 
d="M420 0l-209 255v-255h-142v640h235q91 0 145 -20.5t82 -52t36 -68t8 -67.5q0 -29 -6.5 -61t-26.5 -60.5t-57 -49t-98 -24.5l222 -237h-189zM430 430q0 16 -4.5 32t-18 29.5t-37 22t-60.5 8.5h-99v-180h99q37 0 60.5 8t37 20.5t18 28.5t4.5 31z" />
    <glyph glyph-name="S" unicode="S" horiz-adv-x="659" 
d="M604 191q0 -35 -12.5 -70.5t-42.5 -64t-79.5 -46.5t-124.5 -18q-79 0 -134 16t-89.5 46.5t-50.5 74.5t-16 100h142q1 -25 9 -46.5t25 -37.5t44 -25t66 -9q67 0 94 19t30 49q3 26 -12.5 41.5t-42.5 26t-62.5 17t-73 14.5t-74 19t-65.5 29.5t-47 47t-19 71.5q-1 42 11.5 79
t43 64.5t81 43.5t125.5 16t126 -17.5t81.5 -47.5t44 -71.5t14.5 -89.5h-141q-3 24 -9.5 44t-21 33.5t-38.5 21t-61 7.5q-35 0 -58 -5.5t-36 -15.5t-18 -24t-3 -31q2 -19 19.5 -30.5t45.5 -19t63.5 -13.5t72 -14.5t71.5 -21t62 -33.5t43.5 -52t16.5 -77z" />
    <glyph glyph-name="T" unicode="T" horiz-adv-x="502" 
d="M321 522v-522h-140v522h-166v118h474v-118h-168z" />
    <glyph glyph-name="U" unicode="U" horiz-adv-x="670" 
d="M612 285q0 -78 -15.5 -133.5t-48.5 -91t-85.5 -52t-127.5 -16.5q-74 0 -127 16.5t-86.5 52t-49 91t-15.5 133.5v355h145v-349q0 -40 4.5 -72.5t18.5 -55t40 -34.5t70 -12t70.5 12t40.5 34.5t18.5 55t4.5 72.5v349h143v-355z" />
    <glyph glyph-name="V" unicode="V" horiz-adv-x="642" 
d="M412 0h-190l-226 640h150l173 -531l173 531h150z" />
    <glyph glyph-name="W" unicode="W" horiz-adv-x="997" 
d="M805 0h-171l-135 467l-135 -467h-172l-186 640h153l121 -469l139 469h167l136 -469l124 469h145z" />
    <glyph glyph-name="X" unicode="X" horiz-adv-x="601" 
d="M441 0l-141 235l-140 -235h-154l214 340l-195 300h167l108 -191l109 191h167l-195 -300l213 -340h-153z" />
    <glyph glyph-name="Y" unicode="Y" horiz-adv-x="622" 
d="M379 194v-194h-148v194l-231 446h150l157 -324l165 324h150z" />
    <glyph glyph-name="Z" unicode="Z" horiz-adv-x="580" 
d="M41 0v142l328 380h-328v118h484v-135l-339 -387h353v-118h-498z" />
    <glyph glyph-name="bracketleft" unicode="[" horiz-adv-x="329" 
d="M69 -66v772h231v-104h-108v-566h108v-102h-231z" />
    <glyph glyph-name="backslash" unicode="\" horiz-adv-x="359" 
d="M222 0l-222 640h135l224 -640h-137z" />
    <glyph glyph-name="bracketright" unicode="]" horiz-adv-x="329" 
d="M30 -66v102h106v566h-106v104h230v-772h-230z" />
    <glyph glyph-name="asciicircum" unicode="^" horiz-adv-x="562" 
d="M280 275l-231 -43v114l231 41l234 -41v-114z" />
    <glyph glyph-name="underscore" unicode="_" horiz-adv-x="767" 
d="M-25 -280v114h820v-114h-820z" />
    <glyph glyph-name="grave" unicode="`" horiz-adv-x="564" 
d="M50 627v114l467 -81v-114z" />
    <glyph glyph-name="a" unicode="a" horiz-adv-x="557" 
d="M456 0l-31 82q-11 -18 -28 -34t-41 -28.5t-55 -20t-70 -7.5q-43 0 -80 9.5t-64.5 29t-43.5 50t-16 71.5q0 36 12.5 62.5t38.5 45t66.5 29t96.5 15.5l136 12q-1 43 -23.5 70.5t-79.5 27.5q-55 0 -74.5 -22.5t-19.5 -60.5l-136 -1q0 39 9.5 74t35 60.5t69.5 40.5t113 15
q80 0 128 -17t73.5 -47t33.5 -72.5t8 -93.5v-290h-58zM262 211q-53 -5 -72.5 -18.5t-19.5 -33.5q0 -26 21.5 -43t72.5 -17q32 0 53.5 10t34.5 27.5t19 40t6 47.5z" />
    <glyph glyph-name="b" unicode="b" horiz-adv-x="594" 
d="M562 256q0 -51 -12 -98.5t-38 -84t-68.5 -59t-102.5 -22.5q-42 0 -73.5 7t-55 19t-40 28.5t-28.5 35.5l-30 -82h-59v707h136v-251q8 11 20.5 22.5t31.5 20.5t44 15t58 6q61 0 102.5 -22t67 -58.5t36.5 -84t11 -99.5zM422 256q0 33 -5.5 60.5t-19 47t-36.5 30.5t-59 11
q-37 0 -59 -11.5t-34 -31.5t-15.5 -47t-3.5 -59q0 -34 4 -61.5t16.5 -47t35 -30.5t58.5 -11q35 0 57.5 11t36 30.5t19 47.5t5.5 61z" />
    <glyph glyph-name="c" unicode="c" horiz-adv-x="555" 
d="M526 200q0 -94 -57.5 -151t-178.5 -57q-78 0 -128.5 22t-80 58.5t-41 84t-11.5 98.5t12 99t41 85t79 59t126 22q61 0 106 -15.5t74.5 -43.5t44 -67t14.5 -86h-141q-6 48 -27.5 73t-72.5 25q-33 0 -56.5 -11t-37.5 -30.5t-20.5 -47t-6.5 -60.5q0 -32 6 -59.5t20.5 -47
t37.5 -30.5t57 -11q50 0 72 25t28 67l141 -1v0z" />
    <glyph glyph-name="d" unicode="d" horiz-adv-x="594" 
d="M481 0l-31 82q-12 -19 -28.5 -35.5t-40 -28.5t-55 -19t-74.5 -7q-60 0 -102 22.5t-68.5 59t-38 84t-11.5 98.5t11 98.5t36.5 84.5t67 59t102.5 22q33 0 58 -5.5t43.5 -14.5t31 -20.5t20.5 -23.5v251h137v-707h-58zM405 256q0 32 -4 59t-16 47t-34 31t-59 11
q-36 0 -59 -11t-36.5 -30.5t-19 -46.5t-5.5 -60t5.5 -61t19 -47.5t36.5 -30.5t58 -11q36 0 58.5 11t34.5 30.5t16.5 47t4.5 61.5z" />
    <glyph glyph-name="e" unicode="e" horiz-adv-x="547" 
d="M517 155q-3 -32 -17 -61.5t-41 -52t-70 -36t-105 -13.5q-79 0 -128.5 22.5t-77.5 60t-38.5 84.5t-10.5 97q0 48 10.5 95t38.5 84.5t77 61t127 23.5q73 0 121 -27t75 -71.5t35.5 -101.5t2.5 -118h-347q5 -55 35 -79.5t75 -24.5q23 0 39 4.5t27 12.5t17 18.5t10 21.5h145z
M374 307q0 21 -6 40.5t-18.5 34t-32 23t-46.5 8.5q-52 0 -76 -31t-26 -75h205z" />
    <glyph glyph-name="f" unicode="f" horiz-adv-x="369" 
d="M232 401v-401h-136v401h-77l1 67l76 43v49q0 45 14.5 75.5t45.5 48.5t80 24t118 2v-113q-39 3 -62.5 0.5t-37 -10t-18 -18.5t-4.5 -24v-33h122v-111h-122z" />
    <glyph glyph-name="g" unicode="g" horiz-adv-x="545" 
d="M537 -48q0 -29 -11.5 -58.5t-40.5 -53.5t-78.5 -39t-125.5 -15q-78 0 -129 12t-80.5 35t-41 56t-11.5 76h145q2 -16 6 -29t16 -22t35 -13.5t63 -4.5q36 0 57.5 4.5t33 11.5t15.5 15.5t4 16.5q0 6 -5.5 11.5t-20.5 10.5t-41 11t-67 13q-43 7 -85 14t-75.5 19t-54 33.5
t-20.5 57.5q0 38 33 59t78 29q-27 9 -46 24t-31 33t-17.5 37.5t-5.5 37.5q0 35 10.5 67t39 57t79.5 39.5t132 14.5h228v-60l-83 -30q24 -10 43.5 -39.5t19.5 -66.5q0 -35 -10.5 -66t-37.5 -54t-72.5 -36.5t-115.5 -13.5q-36 0 -57 -2t-31.5 -5t-13 -7t-2.5 -8q0 -6 3.5 -9.5
t18.5 -7t45 -7.5t83 -11q37 -5 76.5 -11.5t72 -21t53 -39t20.5 -65.5zM361 327q0 16 -3.5 29t-13.5 23t-28 15.5t-47 5.5q-28 0 -45.5 -5.5t-28 -15t-14.5 -23t-4 -29.5q0 -17 4 -31t14 -24.5t28 -16.5t47 -6q55 0 73 21.5t18 56.5z" />
    <glyph glyph-name="h" unicode="h" 
d="M397 0v289q0 29 -3.5 50.5t-14.5 36t-30.5 21.5t-51.5 7t-52.5 -7t-32 -21t-16 -35.5t-4.5 -51.5l-1 -289h-136v707h136v-252q5 10 16.5 21.5t29.5 21.5t43 16t57 6q61 0 99 -18t60 -50t30 -77t8 -99v-276h-137z" />
    <glyph glyph-name="i" unicode="i" horiz-adv-x="237" 
d="M51 0v512h138v-512h-138zM206 635q0 -42 -24 -56t-62 -14q-40 0 -64 14t-24 56q0 43 25 57t63 14t62 -14t24 -57z" />
    <glyph glyph-name="j" unicode="j" horiz-adv-x="232" 
d="M190 -30q0 -86 -38.5 -128.5t-127.5 -42.5q-34 0 -73 6v112q12 -2 22.5 -3.5t18.5 -1.5q37 0 48.5 16t11.5 42v542h137zM206 635q0 -42 -24 -56t-62 -14q-40 0 -64 14t-24 56q0 43 25 57t63 14t62 -14t24 -57z" />
    <glyph glyph-name="k" unicode="k" horiz-adv-x="549" 
d="M365 0l-173 215v-215h-137v707h137v-382l159 187h185l-237 -242l250 -270h-184z" />
    <glyph glyph-name="l" unicode="l" horiz-adv-x="247" 
d="M55 0v707h137v-707h-137z" />
    <glyph glyph-name="m" unicode="m" horiz-adv-x="820" 
d="M637 0v314q0 18 -2.5 34.5t-11 29t-23 19.5t-38.5 7t-39 -7t-23.5 -19t-11.5 -28.5t-3 -35.5v-314h-139v314q0 18 -2.5 34.5t-11 29t-23 19.5t-38.5 7t-39.5 -7.5t-24 -20t-12 -29t-3.5 -35.5v-312h-137v512h59l31 -84q8 16 21.5 32t33.5 29.5t48 22t64 8.5
q101 0 142 -76q6 12 17.5 25t29.5 24.5t44 19t61 7.5q52 0 85.5 -17.5t52 -47t25.5 -68.5t7 -82v-305h-139z" />
    <glyph glyph-name="n" unicode="n" 
d="M397 0v290q0 27 -3.5 48.5t-14.5 36.5t-30.5 22.5t-51.5 7.5t-52.5 -8t-32 -23t-16 -37t-4.5 -50v-287h-137v512h57l32 -80q13 20 29 36t38.5 27.5t53 18t72.5 6.5q61 0 99 -17.5t60 -49.5t30 -76t8 -98v-279h-137z" />
    <glyph glyph-name="o" unicode="o" horiz-adv-x="567" 
d="M539 257q0 -52 -12 -100t-41.5 -84.5t-79 -58.5t-124.5 -22q-74 0 -123 22.5t-78 59t-40.5 84.5t-11.5 99t12 98t41 84t78 59t124 22q74 0 123 -22t78.5 -59t41.5 -84t12 -98zM404 257q0 30 -5.5 57t-19 47t-36.5 31.5t-59 11.5q-35 0 -58.5 -11t-37 -31t-19 -47
t-5.5 -58q0 -32 5.5 -59t19 -47t36 -31t57.5 -11t58.5 11t37.5 30.5t20 47t6 59.5z" />
    <glyph glyph-name="p" unicode="p" horiz-adv-x="594" 
d="M562 254q0 -52 -11 -99.5t-36.5 -83.5t-67 -57.5t-102.5 -21.5q-66 0 -102 20t-52 43v-255h-136v712h59l30 -85q12 19 28.5 36t40 30t55 20t73.5 7q60 0 102.5 -22.5t68.5 -60t38 -85t12 -98.5zM422 254q0 33 -5.5 61t-19 49t-36 32.5t-57.5 11.5q-36 0 -58.5 -11.5
t-35 -32t-16.5 -48.5t-4 -62q0 -32 3.5 -59t15.5 -46.5t34 -30.5t59 -11q36 0 59 10.5t36.5 30t19 46.5t5.5 60z" />
    <glyph glyph-name="q" unicode="q" horiz-adv-x="591" 
d="M401 -200v252q-16 -23 -52 -41.5t-102 -18.5q-60 0 -101.5 21.5t-67 57.5t-37 83.5t-11.5 99.5q0 51 12 98.5t38 85t68.5 60t102.5 22.5q43 0 74.5 -7t55 -19.5t40 -29.5t28.5 -36l30 84h58v-712h-136zM402 254q0 34 -4 62t-16 48.5t-34 32t-58 11.5q-35 0 -58 -11.5
t-36.5 -32.5t-19 -49t-5.5 -61t5 -60.5t18.5 -47t36.5 -30.5t59 -11q34 0 56 11.5t34.5 31.5t17 47t4.5 59z" />
    <glyph glyph-name="r" unicode="r" horiz-adv-x="339" 
d="M331 395q-45 5 -72 -3.5t-42 -26.5t-20 -42.5t-5 -51.5v-271h-137v512h57l32 -81q13 19 29.5 36.5t39 30t51.5 18.5t67 2v-123v0z" />
    <glyph glyph-name="s" unicode="s" horiz-adv-x="536" 
d="M509 156q0 -30 -12.5 -59t-40.5 -52.5t-71.5 -38t-105.5 -14.5q-132 0 -192 50t-60 148h135q0 -40 26.5 -66t87.5 -26q28 0 46.5 5.5t30 13t16.5 16.5t5 17q0 21 -25 31.5t-62 18t-80.5 15.5t-81 23.5t-63 42.5t-26.5 72q0 35 12.5 65.5t40 53t71.5 35.5t106 13
q64 0 107.5 -14t70.5 -38.5t38.5 -59.5t11.5 -77h-128q-4 40 -25 62.5t-79 22.5q-51 0 -70.5 -17.5t-19.5 -36.5q0 -18 25 -27t62.5 -15.5t81 -15t81 -25t62.5 -46t25 -77.5z" />
    <glyph glyph-name="t" unicode="t" horiz-adv-x="381" 
d="M362 -5q-68 -6 -118.5 -1.5t-83.5 24t-49.5 56.5t-16.5 96v230h-75v68l75 42v130h136v-128h132v-112h-128v-229q0 -43 28 -56t100 -8v-112v0z" />
    <glyph glyph-name="u" unicode="u" 
d="M465 0l-31 79q-13 -20 -29.5 -36t-39 -27.5t-53.5 -17.5t-73 -6q-60 0 -98 18t-59.5 50t-29.5 76.5t-8 98.5v277h136v-288q0 -27 3.5 -49t14 -37t30 -23t51.5 -8t52.5 8t32.5 23t16.5 36.5t4.5 49.5v288h137v-512h-57z" />
    <glyph glyph-name="v" unicode="v" horiz-adv-x="554" 
d="M352 0h-162l-196 512h152l126 -385l130 385h158z" />
    <glyph glyph-name="w" unicode="w" horiz-adv-x="826" 
d="M670 0h-161l-102 353l-102 -353h-153l-138 512h150l72 -366l103 366h136l110 -367l79 367h148z" />
    <glyph glyph-name="x" unicode="x" horiz-adv-x="551" 
d="M391 0l-115 170l-115 -170h-161l197 266l-180 246h152l107 -160l110 160h149l-180 -246l196 -266h-160z" />
    <glyph glyph-name="y" unicode="y" horiz-adv-x="582" 
d="M527 -8q0 -37 -9 -73t-35 -64t-73.5 -45.5t-124.5 -17.5q-72 0 -119 13t-74 36.5t-37.5 55t-10.5 69.5h137q1 -15 4.5 -27.5t14 -21.5t31 -14.5t55.5 -5.5q33 0 53.5 6t32 17t15 26.5t3.5 34.5v73q-18 -24 -51 -43t-93 -19t-98.5 16.5t-60.5 46.5t-30 73.5t-8 97.5v286
h136v-298q0 -27 3.5 -47.5t14.5 -34t31 -20t52 -6.5t52 7.5t31.5 22t16 36t4.5 49.5v291h137v-520z" />
    <glyph glyph-name="z" unicode="z" horiz-adv-x="519" 
d="M41 0v118l263 283h-263v111h425v-117l-270 -284h281v-111h-436z" />
    <glyph glyph-name="braceleft" unicode="{" horiz-adv-x="401" 
d="M141 -69v340h-111v104h111v331h231v-104h-107v-567h107v-104h-231z" />
    <glyph glyph-name="bar" unicode="|" horiz-adv-x="245" 
d="M60 -66v773h124v-773h-124z" />
    <glyph glyph-name="braceright" unicode="}" horiz-adv-x="401" 
d="M260 271v-340h-230v104h106v567h-106v104h230v-331h112v-104h-112z" />
    <glyph glyph-name="asciitilde" unicode="~" horiz-adv-x="584" 
d="M561 379q0 -59 -35.5 -94t-120.5 -35q-22 0 -45.5 7t-46 15.5t-43.5 15.5t-38 7q-34 0 -46 -6t-12 -33h-130q-1 2 -1 6q-1 4 -1 15q1 25 9.5 49.5t27.5 44t48.5 31.5t71.5 12q25 0 47 -7t43 -15.5t41.5 -15.5t40.5 -7t31.5 3.5t17.5 9.5t8 12.5t2 12.5h130v-10
q0 -5 0.5 -9t0.5 -9z" />
    <glyph glyph-name="uni00A0" unicode="&#xa0;" horiz-adv-x="225" 
 />
    <glyph glyph-name="exclamdown" unicode="&#xa1;" horiz-adv-x="220" 
d="M205 572q0 -24 -7 -39t-19.5 -23.5t-29.5 -12t-38 -3.5q-41 0 -66.5 15.5t-25.5 62.5q0 45 25 60.5t67 15.5q41 0 67.5 -15t26.5 -61zM47 0v249l22 196h82l20 -196v-249h-124z" />
    <glyph glyph-name="cent" unicode="&#xa2;" horiz-adv-x="555" 
d="M526 202q0 -82 -42.5 -135.5t-132.5 -67.5l1 -129h-123v128q-59 9 -98 33.5t-61.5 59t-31.5 77t-9 87.5q0 46 9.5 89t32.5 78t61.5 59.5t96.5 32.5v124h123l-1 -125q89 -14 132 -68.5t43 -136.5h-141q-6 47 -27.5 71.5t-72.5 24.5q-67 0 -94 -40.5t-27 -105.5
q0 -32 6 -59.5t20.5 -47t37.5 -30.5t57 -11q50 0 72 25.5t28 67.5l141 -1v0z" />
    <glyph glyph-name="sterling" unicode="&#xa3;" horiz-adv-x="591" 
d="M27 0v120q26 2 47 13q18 10 33 31.5t15 62.5v35h-95v114h95v69q0 41 9.5 78t33.5 64.5t65.5 44t106.5 16.5q67 0 108.5 -15t65 -42t31.5 -65t8 -85h-134q0 50 -17.5 68.5t-61.5 18.5q-43 0 -59 -19t-16 -64v-69h260v-114h-260v-17q0 -39 -7.5 -63t-16.5 -38
q-11 -16 -23 -24h335v-120h-523z" />
    <glyph glyph-name="yen" unicode="&#xa5;" horiz-adv-x="622" 
d="M442 315h152v-114h-215v-201h-148v201h-205v114h145l-171 325h150l157 -323l165 323h150z" />
    <glyph glyph-name="brokenbar" unicode="&#xa6;" horiz-adv-x="245" 
d="M60 381v326h124v-326h-124zM60 -66v333h124v-333h-124z" />
    <glyph glyph-name="section" unicode="&#xa7;" horiz-adv-x="536" 
d="M509 286q0 -27 -13.5 -53.5t-38.5 -47.5q19 -15 30.5 -36t11.5 -49q0 -35 -12.5 -66t-40.5 -53.5t-71.5 -35.5t-105.5 -13q-64 0 -107.5 14t-70.5 39t-38.5 59.5t-11.5 76.5h128q4 -40 25 -62.5t78 -22.5q26 0 43 5t27.5 12.5t15 17.5t4.5 19q0 18 -25 27t-62 15t-81 14
t-81 24.5t-62 45t-25 77.5q0 26 12 52.5t38 49.5q-18 15 -29 35.5t-11 49.5q0 35 12.5 65.5t40 53t71.5 35.5t106 13q64 0 107.5 -14t70.5 -38.5t38.5 -59.5t11.5 -77h-128q-4 40 -25 62.5t-79 22.5q-26 0 -43 -5t-27.5 -13.5t-15 -18t-4.5 -18.5q0 -18 25 -26.5t62.5 -15
t81 -14.5t81 -24.5t62.5 -45t25 -76.5zM374 277q0 18 -15.5 28t-41 17t-58.5 12t-67 13q-18 -12 -24.5 -26.5t-6.5 -22.5q0 -16 16 -25.5t42 -16.5t58.5 -12t66.5 -12q15 11 22.5 24t7.5 21z" />
    <glyph glyph-name="dieresis" unicode="&#xa8;" horiz-adv-x="495" 
d="M445 621q0 -41 -22 -55t-61 -14q-40 0 -61.5 14t-21.5 55q0 42 21.5 55.5t61.5 13.5q39 0 61 -13.5t22 -55.5zM216 621q0 -41 -22.5 -55t-59.5 -14q-41 0 -62.5 14t-21.5 55q0 42 21.5 55.5t62.5 13.5q38 0 60 -13.5t22 -55.5z" />
    <glyph glyph-name="copyright" unicode="&#xa9;" horiz-adv-x="932" 
d="M884 320q0 -80 -17.5 -154t-64 -130.5t-127.5 -90.5t-209 -34t-209 34t-127 91t-63.5 131t-17.5 154q0 79 17.5 153t64 131t127.5 91t208 34q85 0 149 -15.5t110.5 -43.5t77 -66.5t48.5 -84t25.5 -96.5t7.5 -104zM756 320q0 61 -12 115.5t-44.5 95.5t-89 65t-144.5 24
t-144.5 -24t-88.5 -65t-44.5 -95.5t-12.5 -115.5q0 -62 12 -116.5t44.5 -95t88.5 -64.5t145 -24q88 0 144.5 24t89 64.5t44.5 95t12 116.5zM656 280q0 -86 -45.5 -135.5t-140.5 -49.5q-62 0 -101.5 19t-62.5 49.5t-32 70.5t-9 82q0 43 9 83t32 71t62.5 50t100.5 19
q95 0 141 -50.5t46 -136.5h-119q-6 43 -21.5 61t-49.5 18q-45 0 -64.5 -29t-19.5 -83q0 -53 19 -83.5t65 -30.5q34 0 50 17.5t21 57.5h119z" />
    <glyph glyph-name="ordfeminine" unicode="&#xaa;" horiz-adv-x="564" 
d="M456 129l-31 83q-23 -36 -69.5 -62.5t-124.5 -26.5q-43 0 -80 9t-64.5 28t-43.5 48.5t-16 70.5q0 37 12 63t37.5 44t66 29t98.5 18l136 16q-1 42 -23.5 68t-79.5 26q-55 0 -74.5 -22t-19.5 -61l-136 -1q0 39 9.5 73.5t35 60t69.5 40.5t113 15q80 0 128 -16.5t73.5 -47
t33.5 -72.5t8 -93v-290h-58zM262 340q-53 -5 -72.5 -18.5t-19.5 -33.5q0 -26 21.5 -43t72.5 -17q32 0 53.5 10t34.5 27.5t19 40t6 47.5z" />
    <glyph glyph-name="guillemotleft" unicode="&#xab;" horiz-adv-x="549" 
d="M384 44l-102 211l102 212h137l-101 -212l101 -211h-137zM129 44l-102 211l102 212h137l-101 -212l101 -211h-137z" />
    <glyph glyph-name="uni00AD" unicode="&#xad;" horiz-adv-x="382" 
d="M41 201v114h300v-114h-300z" />
    <glyph glyph-name="registered" unicode="&#xae;" horiz-adv-x="932" 
d="M884 320q0 -80 -17.5 -154t-64 -130.5t-127.5 -90.5t-209 -34t-209 34t-127 91t-63.5 131t-17.5 154q0 79 17.5 153t64 131t127.5 91t208 34q85 0 149 -15.5t110.5 -43.5t77 -66.5t48.5 -84t25.5 -96.5t7.5 -104zM756 320q0 61 -12 115.5t-44.5 95.5t-89 65t-144.5 24
t-144.5 -24t-88.5 -65t-44.5 -95.5t-12.5 -115.5q0 -62 12 -116.5t44.5 -95t88.5 -64.5t145 -24q88 0 144.5 24t89 64.5t44.5 95t12 116.5zM519 111l-104 164v-164h-119v415h166q63 0 100 -13.5t56.5 -34.5t25.5 -45.5t6 -45.5q0 -11 -4 -30t-16.5 -37t-36 -31.5
t-62.5 -13.5l128 -164h-140zM531 387q0 7 -2 15t-9 14.5t-19.5 11t-34.5 4.5h-51v-88h51q22 0 35 4t19.5 10.5t8.5 14t2 14.5z" />
    <glyph glyph-name="macron" unicode="&#xaf;" horiz-adv-x="565" 
d="M62 565v114h440v-114h-440z" />
    <glyph glyph-name="degree" unicode="&#xb0;" horiz-adv-x="530" 
d="M496 418q0 -45 -8.5 -86.5t-33.5 -73t-70.5 -50t-119.5 -18.5t-119 18.5t-69.5 50t-32.5 73t-8 86.5t8.5 86t33 73t69.5 51t119 19q73 0 118.5 -19t70.5 -51t33.5 -73t8.5 -86zM374 418q0 24 -4.5 44.5t-16.5 36t-33 24t-55 8.5q-32 0 -53 -8.5t-33.5 -23.5t-17.5 -36
t-5 -45q0 -25 5 -45.5t17 -35.5t33 -23.5t53 -8.5q33 0 54.5 8.5t33.5 23.5t17 35.5t5 45.5z" />
    <glyph glyph-name="acute" unicode="&#xb4;" horiz-adv-x="564" 
d="M50 546v114l467 81v-114z" />
    <glyph glyph-name="mu" unicode="&#xb5;" 
d="M449 70q-13 -32 -39.5 -55t-77.5 -23q-58 0 -88.5 17t-52.5 46v-255h-136v712h136l1 -291q0 -30 4.5 -51.5t16 -35.5t32 -21t52.5 -7t51.5 7t30.5 21.5t14.5 36t3.5 50.5v291h137v-512h-57z" />
    <glyph glyph-name="mu" unicode="&#x3bc;" 
d="M449 70q-13 -32 -39.5 -55t-77.5 -23q-58 0 -88.5 17t-52.5 46v-255h-136v712h136l1 -291q0 -30 4.5 -51.5t16 -35.5t32 -21t52.5 -7t51.5 7t30.5 21.5t14.5 36t3.5 50.5v291h137v-512h-57z" />
    <glyph glyph-name="paragraph" unicode="&#xb6;" horiz-adv-x="471" 
d="M260 0l1 337h-75q-38 0 -67 12t-48.5 33t-29 48t-9.5 57q0 31 9.5 59t29 49t48.5 33t67 12h216v-640h-142z" />
    <glyph glyph-name="periodcentered" unicode="&#xb7;" horiz-adv-x="236" 
d="M209 322q0 -45 -24 -60t-66 -15q-44 0 -68.5 15t-24.5 60q0 46 24.5 60.5t68.5 14.5q41 0 65.5 -14.5t24.5 -60.5z" />
    <glyph glyph-name="cedilla" unicode="&#xb8;" horiz-adv-x="412" 
d="M362 0q0 -49 -12.5 -79t-32.5 -46t-46.5 -21t-54.5 -5h-166v111h149q21 0 29.5 12.5t8.5 27.5h125v0z" />
    <glyph glyph-name="ordmasculine" unicode="&#xba;" horiz-adv-x="567" 
d="M539 387q0 -52 -12 -99.5t-41.5 -84t-79 -58t-124.5 -21.5q-74 0 -123 22t-78 58.5t-40.5 84t-11.5 98.5t12 98t41 83t78 58t124 22q74 0 123 -22t78.5 -58t41.5 -83t12 -98zM404 387q0 30 -5.5 56.5t-19 46t-36.5 31t-59 11.5q-35 0 -58.5 -11t-37 -30.5t-19 -46
t-5.5 -57.5q0 -32 5.5 -59t19 -46.5t36 -30.5t57.5 -11t58.5 10.5t37.5 30t20 46.5t6 60z" />
    <glyph glyph-name="guillemotright" unicode="&#xbb;" horiz-adv-x="549" 
d="M420 44h-138l102 211l-102 212h138l101 -212zM165 44h-138l102 211l-102 212h138l101 -212z" />
    <glyph glyph-name="questiondown" unicode="&#xbf;" horiz-adv-x="572" 
d="M44 201q0 57 23 95t57 60t71.5 31t67.5 9h10l21 47h118v-153h-88q-41 0 -68 -7t-43 -19t-22.5 -28t-6.5 -35q0 -18 5.5 -34t17.5 -28t30.5 -19.5t45.5 -7.5q59 0 86.5 27t27.5 79h137q0 -48 -13.5 -89.5t-43 -71.5t-76.5 -47.5t-114 -17.5q-65 0 -111 16.5t-75.5 45
t-43 66.5t-13.5 81zM258 572q0 45 25.5 60.5t67.5 15.5t67.5 -15t25.5 -61q0 -47 -26 -62.5t-67 -15.5t-67 15.5t-26 62.5z" />
    <glyph glyph-name="Agrave" unicode="&#xc0;" horiz-adv-x="646" 
d="M496 0l-35 114h-275l-37 -114h-149l227 640h193l226 -640h-150zM324 532l-104 -315h206zM89 755v114l467 -81v-114z" />
    <glyph glyph-name="Aacute" unicode="&#xc1;" horiz-adv-x="646" 
d="M496 0l-35 114h-275l-37 -114h-149l227 640h193l226 -640h-150zM324 532l-104 -315h206zM89 674v114l467 81v-114z" />
    <glyph glyph-name="Acircumflex" unicode="&#xc2;" horiz-adv-x="646" 
d="M496 0l-35 114h-275l-37 -114h-149l227 640h193l226 -640h-150zM324 532l-104 -315h206zM321 740l-231 -67v114l231 66l234 -66v-114z" />
    <glyph glyph-name="Atilde" unicode="&#xc3;" horiz-adv-x="646" 
d="M496 0l-35 114h-275l-37 -114h-149l227 640h193l226 -640h-150zM324 532l-104 -315h206zM396 797q31 0 40.5 13t9.5 38h121v-11q0 -5 0.5 -10.5t0.5 -9.5q0 -26 -7 -50t-23 -43t-43.5 -30.5t-69.5 -11.5q-30 0 -53.5 8t-44 18t-39 18t-38.5 8q-32 0 -41 -13.5t-9 -37.5
h-122q-1 6 -1 11v20q0 25 7 49.5t23 43.5t44 30.5t70 11.5q30 0 53.5 -8t43.5 -18t39 -18t39 -8z" />
    <glyph glyph-name="Adieresis" unicode="&#xc4;" horiz-adv-x="646" 
d="M496 0l-35 114h-275l-37 -114h-149l227 640h193l226 -640h-150zM324 532l-104 -315h206zM520 749q0 -41 -22 -55t-61 -14q-40 0 -61.5 14t-21.5 55q0 42 21.5 55.5t61.5 13.5q39 0 61 -13.5t22 -55.5zM291 749q0 -41 -22.5 -55t-59.5 -14q-41 0 -62.5 14t-21.5 55
q0 42 21.5 55.5t62.5 13.5q38 0 60 -13.5t22 -55.5z" />
    <glyph glyph-name="Aring" unicode="&#xc5;" horiz-adv-x="646" 
d="M496 0l-35 114h-275l-37 -114h-149l227 640h193l226 -640h-150zM324 532l-104 -315h206zM323 917q87 0 122.5 -30.5t35.5 -91.5t-35.5 -91t-122.5 -30q-88 0 -123.5 30t-35.5 91q0 62 35.5 92t123.5 30zM323 764q58 0 58 31q0 32 -58 32q-59 0 -59 -32q0 -31 59 -31z" />
    <glyph glyph-name="AE" unicode="&#xc6;" horiz-adv-x="987" 
d="M492 0v114h-272l-74 -114h-150l414 640h536v-119h-312v-137h281v-115h-281v-152h312v-117h-454zM492 527l-203 -310h203v310z" />
    <glyph glyph-name="Ccedilla" unicode="&#xc7;" horiz-adv-x="677" 
d="M636 242q0 -47 -12 -88.5t-39 -74.5t-70.5 -55t-107.5 -29q-1 -47 -13.5 -76.5t-33 -46t-46 -22.5t-53.5 -6h-146v111h129q19 0 28 11.5t9 28.5q-72 9 -117 39t-70.5 73.5t-35 98t-9.5 114.5q0 66 12.5 125.5t45.5 104.5t90.5 71.5t147.5 26.5q79 0 134.5 -20.5t90 -54.5
t50 -79.5t15.5 -94.5h-145q-3 29 -12 53t-26 41.5t-43 27t-64 9.5q-49 0 -79 -16.5t-46.5 -45t-22 -66.5t-5.5 -82t5.5 -82.5t22 -67t46.5 -45t79 -16.5q38 0 64 9.5t43 27t25.5 42t12.5 54.5h146v0z" />
    <glyph glyph-name="Egrave" unicode="&#xc8;" horiz-adv-x="564" 
d="M69 0v640h453v-118h-312v-138h281v-115h-281v-151h312v-118h-453zM57 756v114l467 -81v-114z" />
    <glyph glyph-name="Eacute" unicode="&#xc9;" horiz-adv-x="564" 
d="M69 0v640h453v-118h-312v-138h281v-115h-281v-151h312v-118h-453zM57 675v114l467 81v-114z" />
    <glyph glyph-name="Ecircumflex" unicode="&#xca;" horiz-adv-x="564" 
d="M69 0v640h453v-118h-312v-138h281v-115h-281v-151h312v-118h-453zM293 741l-231 -67v114l231 66l234 -66v-114z" />
    <glyph glyph-name="Edieresis" unicode="&#xcb;" horiz-adv-x="564" 
d="M69 0v640h453v-118h-312v-138h281v-115h-281v-151h312v-118h-453zM500 750q0 -41 -22 -55t-61 -14q-40 0 -61.5 14t-21.5 55q0 42 21.5 55.5t61.5 13.5q39 0 61 -13.5t22 -55.5zM271 750q0 -41 -22.5 -55t-59.5 -14q-41 0 -62.5 14t-21.5 55q0 42 21.5 55.5t62.5 13.5
q38 0 60 -13.5t22 -55.5z" />
    <glyph glyph-name="Igrave" unicode="&#xcc;" horiz-adv-x="279" 
d="M25 731v114l237 -56v-114zM69 0v640h142v-640h-142z" />
    <glyph glyph-name="Iacute" unicode="&#xcd;" horiz-adv-x="279" 
d="M25 675v114l237 56v-114zM69 0v640h142v-640h-142z" />
    <glyph glyph-name="Icircumflex" unicode="&#xce;" horiz-adv-x="279" 
d="M140 720l-101 -43v114l101 41l105 -41v-114zM69 0v640h142v-640h-142z" />
    <glyph glyph-name="Idieresis" unicode="&#xcf;" horiz-adv-x="279" 
d="M339 752q0 -41 -22.5 -54.5t-60.5 -13.5q-41 0 -62.5 13.5t-21.5 54.5q0 43 21.5 56t62.5 13q38 0 60.5 -13t22.5 -56zM110 752q0 -41 -23 -54.5t-60 -13.5q-40 0 -61.5 13.5t-21.5 54.5q0 43 21.5 56t61.5 13q38 0 60.5 -13t22.5 -56zM69 0v640h142v-640h-142z" />
    <glyph glyph-name="Eth" unicode="&#xd0;" horiz-adv-x="662" 
d="M616 324q0 -76 -20.5 -136t-60 -102t-97 -64t-132.5 -22h-237v270h-57v100h57v270h248q147 0 223 -80.5t76 -235.5zM211 270v-156h69q49 0 85.5 10t61.5 34.5t37.5 65t12.5 101.5t-12 100t-36 61t-60 30t-84 8h-74v-154h89v-100h-89z" />
    <glyph glyph-name="Ntilde" unicode="&#xd1;" horiz-adv-x="732" 
d="M486 0l-271 445v-445h-144v640h185l265 -443v443h143v-640h-178zM441 798q31 0 40.5 13t9.5 38h121v-11q0 -5 0.5 -10.5t0.5 -9.5q0 -26 -7 -50t-23 -43t-43.5 -30.5t-69.5 -11.5q-30 0 -53.5 8t-44 18t-39 18t-38.5 8q-32 0 -41 -13.5t-9 -37.5h-122q-1 6 -1 11v20
q0 25 7 49.5t23 43.5t44 30.5t70 11.5q30 0 53.5 -8t43.5 -18t39 -18t39 -8z" />
    <glyph glyph-name="Ograve" unicode="&#xd2;" horiz-adv-x="711" 
d="M662 319q0 -65 -12.5 -124.5t-46.5 -104.5t-94 -71.5t-154 -26.5t-153.5 26.5t-93.5 71.5t-46.5 104.5t-12.5 125.5t12.5 125.5t46.5 104.5t93.5 71.5t153.5 26.5t154 -26.5t94 -72t46.5 -105t12.5 -125.5zM517 319q0 44 -5.5 82.5t-23 67t-49.5 45t-84 16.5t-83.5 -16.5
t-49 -45t-23 -66.5t-5.5 -82t5.5 -82.5t23 -67t49 -44.5t83.5 -16t84 16t49.5 44.5t23 66.5t5.5 82zM121 756v114l467 -81v-114z" />
    <glyph glyph-name="Oacute" unicode="&#xd3;" horiz-adv-x="711" 
d="M662 319q0 -65 -12.5 -124.5t-46.5 -104.5t-94 -71.5t-154 -26.5t-153.5 26.5t-93.5 71.5t-46.5 104.5t-12.5 125.5t12.5 125.5t46.5 104.5t93.5 71.5t153.5 26.5t154 -26.5t94 -72t46.5 -105t12.5 -125.5zM517 319q0 44 -5.5 82.5t-23 67t-49.5 45t-84 16.5t-83.5 -16.5
t-49 -45t-23 -66.5t-5.5 -82t5.5 -82.5t23 -67t49 -44.5t83.5 -16t84 16t49.5 44.5t23 66.5t5.5 82zM121 675v114l467 81v-114z" />
    <glyph glyph-name="Ocircumflex" unicode="&#xd4;" horiz-adv-x="711" 
d="M662 319q0 -65 -12.5 -124.5t-46.5 -104.5t-94 -71.5t-154 -26.5t-153.5 26.5t-93.5 71.5t-46.5 104.5t-12.5 125.5t12.5 125.5t46.5 104.5t93.5 71.5t153.5 26.5t154 -26.5t94 -72t46.5 -105t12.5 -125.5zM517 319q0 44 -5.5 82.5t-23 67t-49.5 45t-84 16.5t-83.5 -16.5
t-49 -45t-23 -66.5t-5.5 -82t5.5 -82.5t23 -67t49 -44.5t83.5 -16t84 16t49.5 44.5t23 66.5t5.5 82zM353 741l-231 -67v114l231 66l234 -66v-114z" />
    <glyph glyph-name="Otilde" unicode="&#xd5;" horiz-adv-x="711" 
d="M662 319q0 -65 -12.5 -124.5t-46.5 -104.5t-94 -71.5t-154 -26.5t-153.5 26.5t-93.5 71.5t-46.5 104.5t-12.5 125.5t12.5 125.5t46.5 104.5t93.5 71.5t153.5 26.5t154 -26.5t94 -72t46.5 -105t12.5 -125.5zM517 319q0 44 -5.5 82.5t-23 67t-49.5 45t-84 16.5t-83.5 -16.5
t-49 -45t-23 -66.5t-5.5 -82t5.5 -82.5t23 -67t49 -44.5t83.5 -16t84 16t49.5 44.5t23 66.5t5.5 82zM431 798q31 0 40.5 13t9.5 38h121v-11q0 -5 0.5 -10.5t0.5 -9.5q0 -26 -7 -50t-23 -43t-43.5 -30.5t-69.5 -11.5q-30 0 -53.5 8t-44 18t-39 18t-38.5 8q-32 0 -41 -13.5
t-9 -37.5h-122q-1 6 -1 11v20q0 25 7 49.5t23 43.5t44 30.5t70 11.5q30 0 53.5 -8t43.5 -18t39 -18t39 -8z" />
    <glyph glyph-name="Odieresis" unicode="&#xd6;" horiz-adv-x="711" 
d="M662 319q0 -65 -12.5 -124.5t-46.5 -104.5t-94 -71.5t-154 -26.5t-153.5 26.5t-93.5 71.5t-46.5 104.5t-12.5 125.5t12.5 125.5t46.5 104.5t93.5 71.5t153.5 26.5t154 -26.5t94 -72t46.5 -105t12.5 -125.5zM517 319q0 44 -5.5 82.5t-23 67t-49.5 45t-84 16.5t-83.5 -16.5
t-49 -45t-23 -66.5t-5.5 -82t5.5 -82.5t23 -67t49 -44.5t83.5 -16t84 16t49.5 44.5t23 66.5t5.5 82zM552 750q0 -41 -22 -55t-61 -14q-40 0 -61.5 14t-21.5 55q0 42 21.5 55.5t61.5 13.5q39 0 61 -13.5t22 -55.5zM323 750q0 -41 -22.5 -55t-59.5 -14q-41 0 -62.5 14
t-21.5 55q0 42 21.5 55.5t62.5 13.5q38 0 60 -13.5t22 -55.5z" />
    <glyph glyph-name="multiply" unicode="&#xd7;" horiz-adv-x="552" 
d="M391 0l-115 170l-115 -170h-161l197 266l-180 246h152l107 -160l110 160h149l-180 -246l196 -266h-160z" />
    <glyph glyph-name="Oslash" unicode="&#xd8;" horiz-adv-x="710" 
d="M662 319q0 -65 -12.5 -124.5t-46.5 -104.5t-94 -71.5t-154 -26.5h-17t-17 1l-21 -59h-136l31 86q-44 20 -72 51.5t-44.5 70.5t-23 84.5t-6.5 93.5q0 66 12.5 125.5t46.5 104.5t93.5 71.5t153.5 26.5q15 0 29.5 -1t27.5 -2l23 62h135l-35 -97q38 -22 62.5 -53t39 -68.5
t20 -80.5t5.5 -89zM517 319q0 44 -5.5 82.5t-23 67t-49.5 45t-84 16.5t-83.5 -16.5t-49 -45t-23 -66.5t-5.5 -82t5.5 -82.5t23 -67t49 -44.5t83.5 -16t84 16t49.5 44.5t23 66.5t5.5 82z" />
    <glyph glyph-name="Ugrave" unicode="&#xd9;" horiz-adv-x="670" 
d="M612 285q0 -78 -15.5 -133.5t-48.5 -91t-85.5 -52t-127.5 -16.5q-74 0 -127 16.5t-86.5 52t-49 91t-15.5 133.5v355h145v-349q0 -40 4.5 -72.5t18.5 -55t40 -34.5t70 -12t70.5 12t40.5 34.5t18.5 55t4.5 72.5v349h143v-355zM101 756v114l467 -81v-114z" />
    <glyph glyph-name="Uacute" unicode="&#xda;" horiz-adv-x="670" 
d="M612 285q0 -78 -15.5 -133.5t-48.5 -91t-85.5 -52t-127.5 -16.5q-74 0 -127 16.5t-86.5 52t-49 91t-15.5 133.5v355h145v-349q0 -40 4.5 -72.5t18.5 -55t40 -34.5t70 -12t70.5 12t40.5 34.5t18.5 55t4.5 72.5v349h143v-355zM101 675v114l467 81v-114z" />
    <glyph glyph-name="Ucircumflex" unicode="&#xdb;" horiz-adv-x="670" 
d="M612 285q0 -78 -15.5 -133.5t-48.5 -91t-85.5 -52t-127.5 -16.5q-74 0 -127 16.5t-86.5 52t-49 91t-15.5 133.5v355h145v-349q0 -40 4.5 -72.5t18.5 -55t40 -34.5t70 -12t70.5 12t40.5 34.5t18.5 55t4.5 72.5v349h143v-355zM333 741l-231 -67v114l231 66l234 -66v-114z
" />
    <glyph glyph-name="Udieresis" unicode="&#xdc;" horiz-adv-x="670" 
d="M612 285q0 -78 -15.5 -133.5t-48.5 -91t-85.5 -52t-127.5 -16.5q-74 0 -127 16.5t-86.5 52t-49 91t-15.5 133.5v355h145v-349q0 -40 4.5 -72.5t18.5 -55t40 -34.5t70 -12t70.5 12t40.5 34.5t18.5 55t4.5 72.5v349h143v-355zM532 750q0 -41 -22 -55t-61 -14
q-40 0 -61.5 14t-21.5 55q0 42 21.5 55.5t61.5 13.5q39 0 61 -13.5t22 -55.5zM303 750q0 -41 -22.5 -55t-59.5 -14q-41 0 -62.5 14t-21.5 55q0 42 21.5 55.5t62.5 13.5q38 0 60 -13.5t22 -55.5z" />
    <glyph glyph-name="Yacute" unicode="&#xdd;" horiz-adv-x="622" 
d="M379 194v-194h-148v194l-231 446h150l157 -324l165 324h150zM77 675v114l467 81v-114z" />
    <glyph glyph-name="Thorn" unicode="&#xde;" horiz-adv-x="619" 
d="M575 327q0 -33 -6 -68t-32 -64.5t-78.5 -48.5t-146.5 -19h-101v-127h-142v640h142v-105h93q94 0 148 -20t81.5 -51t34.5 -67.5t7 -69.5zM430 327q0 16 -4 32.5t-16.5 30t-36.5 21.5t-63 8h-99v-180h99q39 0 63 8t36.5 20.5t16.5 28t4 31.5z" />
    <glyph glyph-name="germandbls" unicode="&#xdf;" horiz-adv-x="779" 
d="M765 150q0 -30 -13 -58t-40.5 -50.5t-71.5 -36t-105 -13.5q-67 0 -114.5 13.5t-78 39.5t-44.5 64t-14 87h135q0 -39 26 -63t86 -24q58 0 78 12.5t20 29.5q0 21 -25 32t-62.5 19.5t-81.5 17t-81.5 25t-62.5 44t-25 72.5q0 63 41.5 104t138.5 52v13q0 13 -5 24t-18.5 18
t-38.5 11t-65 4q-34 0 -56.5 -3.5t-36.5 -12.5t-20 -24.5t-6 -39.5v-507h-136v404h-75v63l75 44q0 53 11.5 91.5t39 63.5t74 37t117.5 12q74 0 126.5 -10.5t85.5 -31.5t48.5 -53t15.5 -74v-141q-37 0 -69.5 0.5t-57 -2.5t-39 -11t-14.5 -26q0 -19 25 -28t62.5 -16t81.5 -16
t81.5 -27t62.5 -48.5t25 -80.5z" />
    <glyph glyph-name="agrave" unicode="&#xe0;" horiz-adv-x="557" 
d="M456 0l-31 82q-11 -18 -28 -34t-41 -28.5t-55 -20t-70 -7.5q-43 0 -80 9.5t-64.5 29t-43.5 50t-16 71.5q0 36 12.5 62.5t38.5 45t66.5 29t96.5 15.5l136 12q-1 43 -23.5 70.5t-79.5 27.5q-55 0 -74.5 -22.5t-19.5 -60.5l-136 -1q0 39 9.5 74t35 60.5t69.5 40.5t113 15
q80 0 128 -17t73.5 -47t33.5 -72.5t8 -93.5v-290h-58zM262 211q-53 -5 -72.5 -18.5t-19.5 -33.5q0 -26 21.5 -43t72.5 -17q32 0 53.5 10t34.5 27.5t19 40t6 47.5zM45 627v114l467 -81v-114z" />
    <glyph glyph-name="aacute" unicode="&#xe1;" horiz-adv-x="557" 
d="M456 0l-31 82q-11 -18 -28 -34t-41 -28.5t-55 -20t-70 -7.5q-43 0 -80 9.5t-64.5 29t-43.5 50t-16 71.5q0 36 12.5 62.5t38.5 45t66.5 29t96.5 15.5l136 12q-1 43 -23.5 70.5t-79.5 27.5q-55 0 -74.5 -22.5t-19.5 -60.5l-136 -1q0 39 9.5 74t35 60.5t69.5 40.5t113 15
q80 0 128 -17t73.5 -47t33.5 -72.5t8 -93.5v-290h-58zM262 211q-53 -5 -72.5 -18.5t-19.5 -33.5q0 -26 21.5 -43t72.5 -17q32 0 53.5 10t34.5 27.5t19 40t6 47.5zM45 546v114l467 81v-114z" />
    <glyph glyph-name="acircumflex" unicode="&#xe2;" horiz-adv-x="557" 
d="M456 0l-31 82q-11 -18 -28 -34t-41 -28.5t-55 -20t-70 -7.5q-43 0 -80 9.5t-64.5 29t-43.5 50t-16 71.5q0 36 12.5 62.5t38.5 45t66.5 29t96.5 15.5l136 12q-1 43 -23.5 70.5t-79.5 27.5q-55 0 -74.5 -22.5t-19.5 -60.5l-136 -1q0 39 9.5 74t35 60.5t69.5 40.5t113 15
q80 0 128 -17t73.5 -47t33.5 -72.5t8 -93.5v-290h-58zM262 211q-53 -5 -72.5 -18.5t-19.5 -33.5q0 -26 21.5 -43t72.5 -17q32 0 53.5 10t34.5 27.5t19 40t6 47.5zM277 612l-231 -67v114l231 66l234 -66v-114z" />
    <glyph glyph-name="atilde" unicode="&#xe3;" horiz-adv-x="557" 
d="M456 0l-31 82q-11 -18 -28 -34t-41 -28.5t-55 -20t-70 -7.5q-43 0 -80 9.5t-64.5 29t-43.5 50t-16 71.5q0 36 12.5 62.5t38.5 45t66.5 29t96.5 15.5l136 12q-1 43 -23.5 70.5t-79.5 27.5q-55 0 -74.5 -22.5t-19.5 -60.5l-136 -1q0 39 9.5 74t35 60.5t69.5 40.5t113 15
q80 0 128 -17t73.5 -47t33.5 -72.5t8 -93.5v-290h-58zM262 211q-53 -5 -72.5 -18.5t-19.5 -33.5q0 -26 21.5 -43t72.5 -17q32 0 53.5 10t34.5 27.5t19 40t6 47.5zM355 669q31 0 40.5 13t9.5 38h121v-11q0 -5 0.5 -10.5t0.5 -9.5q0 -26 -7 -50t-23 -43t-43.5 -30.5
t-69.5 -11.5q-30 0 -53.5 8t-44 18t-39 18t-38.5 8q-32 0 -41 -13.5t-9 -37.5h-122q-1 6 -1 11v20q0 25 7 49.5t23 43.5t44 30.5t70 11.5q30 0 53.5 -8t43.5 -18t39 -18t39 -8z" />
    <glyph glyph-name="adieresis" unicode="&#xe4;" horiz-adv-x="557" 
d="M456 0l-31 82q-11 -18 -28 -34t-41 -28.5t-55 -20t-70 -7.5q-43 0 -80 9.5t-64.5 29t-43.5 50t-16 71.5q0 36 12.5 62.5t38.5 45t66.5 29t96.5 15.5l136 12q-1 43 -23.5 70.5t-79.5 27.5q-55 0 -74.5 -22.5t-19.5 -60.5l-136 -1q0 39 9.5 74t35 60.5t69.5 40.5t113 15
q80 0 128 -17t73.5 -47t33.5 -72.5t8 -93.5v-290h-58zM262 211q-53 -5 -72.5 -18.5t-19.5 -33.5q0 -26 21.5 -43t72.5 -17q32 0 53.5 10t34.5 27.5t19 40t6 47.5zM476 621q0 -41 -22 -55t-61 -14q-40 0 -61.5 14t-21.5 55q0 42 21.5 55.5t61.5 13.5q39 0 61 -13.5t22 -55.5z
M247 621q0 -41 -22.5 -55t-59.5 -14q-41 0 -62.5 14t-21.5 55q0 42 21.5 55.5t62.5 13.5q38 0 60 -13.5t22 -55.5z" />
    <glyph glyph-name="aring" unicode="&#xe5;" horiz-adv-x="557" 
d="M456 0l-31 82q-11 -18 -28 -34t-41 -28.5t-55 -20t-70 -7.5q-43 0 -80 9.5t-64.5 29t-43.5 50t-16 71.5q0 36 12.5 62.5t38.5 45t66.5 29t96.5 15.5l136 12q-1 43 -23.5 70.5t-79.5 27.5q-55 0 -74.5 -22.5t-19.5 -60.5l-136 -1q0 39 9.5 74t35 60.5t69.5 40.5t113 15
q80 0 128 -17t73.5 -47t33.5 -72.5t8 -93.5v-290h-58zM262 211q-53 -5 -72.5 -18.5t-19.5 -33.5q0 -26 21.5 -43t72.5 -17q32 0 53.5 10t34.5 27.5t19 40t6 47.5zM280 789q87 0 122.5 -30.5t35.5 -91.5t-35.5 -91t-122.5 -30q-88 0 -123.5 30t-35.5 91q0 62 35.5 92
t123.5 30zM280 636q58 0 58 31q0 32 -58 32q-59 0 -59 -32q0 -31 59 -31z" />
    <glyph glyph-name="ae" unicode="&#xe6;" horiz-adv-x="926" 
d="M896 161q-4 -32 -18.5 -62.5t-43 -54t-73 -38t-107.5 -14.5q-81 0 -125.5 22t-66.5 60q-24 -38 -75.5 -60t-141.5 -22q-43 0 -80 10t-64.5 30t-43.5 50.5t-16 71.5q0 36 12 61.5t37.5 43t66 28t98.5 16.5l136 13q-1 44 -23.5 66.5t-80.5 22.5q-54 0 -72.5 -19t-20.5 -61
l-143 -1q0 44 11 80t37.5 62t71.5 40t114 14t113.5 -17.5t63.5 -49.5q27 31 71.5 49t115.5 18q77 0 127 -25.5t78 -69t37 -101.5t3 -122h-365q5 -55 38.5 -76.5t79.5 -21.5q48 0 71.5 17t31.5 40h146zM751 312q0 39 -27.5 66.5t-83.5 27.5q-54 0 -80 -26.5t-31 -68.5h222v1z
M276 202q-53 -5 -72.5 -15t-19.5 -31q0 -26 21.5 -39t71.5 -13q64 0 88.5 30.5t25.5 80.5z" />
    <glyph glyph-name="ccedilla" unicode="&#xe7;" horiz-adv-x="555" 
d="M526 200q0 -80 -41 -133t-128 -70q0 -48 -12.5 -77t-32 -44t-45.5 -20t-53 -5h-127v111h108q20 0 27.5 10.5t9.5 23.5q-61 8 -100 32t-62 59t-32 78t-9 89q0 51 12 99t41 85t79 59.5t126 22.5q61 0 106 -15.5t74.5 -43.5t44 -67t14.5 -86h-141q-6 48 -27.5 73t-72.5 25
q-33 0 -56.5 -11t-37.5 -31t-20.5 -47.5t-6.5 -60.5q0 -32 6 -59t20.5 -46.5t37.5 -30.5t57 -11q50 0 72 25t28 67l141 -1v0z" />
    <glyph glyph-name="egrave" unicode="&#xe8;" horiz-adv-x="547" 
d="M517 155q-3 -32 -17 -61.5t-41 -52t-70 -36t-105 -13.5q-79 0 -128.5 22.5t-77.5 60t-38.5 84.5t-10.5 97q0 48 10.5 95t38.5 84.5t77 61t127 23.5q73 0 121 -27t75 -71.5t35.5 -101.5t2.5 -118h-347q5 -55 35 -79.5t75 -24.5q23 0 39 4.5t27 12.5t17 18.5t10 21.5h145z
M374 307q0 21 -6 40.5t-18.5 34t-32 23t-46.5 8.5q-52 0 -76 -31t-26 -75h205zM40 627v114l467 -81v-114z" />
    <glyph glyph-name="eacute" unicode="&#xe9;" horiz-adv-x="547" 
d="M517 155q-3 -32 -17 -61.5t-41 -52t-70 -36t-105 -13.5q-79 0 -128.5 22.5t-77.5 60t-38.5 84.5t-10.5 97q0 48 10.5 95t38.5 84.5t77 61t127 23.5q73 0 121 -27t75 -71.5t35.5 -101.5t2.5 -118h-347q5 -55 35 -79.5t75 -24.5q23 0 39 4.5t27 12.5t17 18.5t10 21.5h145z
M374 307q0 21 -6 40.5t-18.5 34t-32 23t-46.5 8.5q-52 0 -76 -31t-26 -75h205zM40 546v114l467 81v-114z" />
    <glyph glyph-name="ecircumflex" unicode="&#xea;" horiz-adv-x="547" 
d="M517 155q-3 -32 -17 -61.5t-41 -52t-70 -36t-105 -13.5q-79 0 -128.5 22.5t-77.5 60t-38.5 84.5t-10.5 97q0 48 10.5 95t38.5 84.5t77 61t127 23.5q73 0 121 -27t75 -71.5t35.5 -101.5t2.5 -118h-347q5 -55 35 -79.5t75 -24.5q23 0 39 4.5t27 12.5t17 18.5t10 21.5h145z
M374 307q0 21 -6 40.5t-18.5 34t-32 23t-46.5 8.5q-52 0 -76 -31t-26 -75h205zM272 612l-231 -67v114l231 66l234 -66v-114z" />
    <glyph glyph-name="edieresis" unicode="&#xeb;" horiz-adv-x="547" 
d="M517 155q-3 -32 -17 -61.5t-41 -52t-70 -36t-105 -13.5q-79 0 -128.5 22.5t-77.5 60t-38.5 84.5t-10.5 97q0 48 10.5 95t38.5 84.5t77 61t127 23.5q73 0 121 -27t75 -71.5t35.5 -101.5t2.5 -118h-347q5 -55 35 -79.5t75 -24.5q23 0 39 4.5t27 12.5t17 18.5t10 21.5h145z
M374 307q0 21 -6 40.5t-18.5 34t-32 23t-46.5 8.5q-52 0 -76 -31t-26 -75h205zM471 621q0 -41 -22 -55t-61 -14q-40 0 -61.5 14t-21.5 55q0 42 21.5 55.5t61.5 13.5q39 0 61 -13.5t22 -55.5zM242 621q0 -41 -22.5 -55t-59.5 -14q-41 0 -62.5 14t-21.5 55q0 42 21.5 55.5
t62.5 13.5q38 0 60 -13.5t22 -55.5z" />
    <glyph glyph-name="igrave" unicode="&#xec;" horiz-adv-x="237" 
d="M6 610v114l225 -64v-114zM51 0v512h138v-512h-138z" />
    <glyph glyph-name="iacute" unicode="&#xed;" horiz-adv-x="237" 
d="M6 546v114l225 64v-114zM51 0v512h138v-512h-138z" />
    <glyph glyph-name="icircumflex" unicode="&#xee;" horiz-adv-x="237" 
d="M116 601l-116 -55v114l116 54l116 -54v-114zM51 0v512h138v-512h-138z" />
    <glyph glyph-name="idieresis" unicode="&#xef;" horiz-adv-x="237" 
d="M319 621q0 -41 -22.5 -55t-60.5 -14q-41 0 -62.5 14t-21.5 55q0 42 21.5 55.5t62.5 13.5q38 0 60.5 -13.5t22.5 -55.5zM90 621q0 -41 -23 -55t-60 -14q-40 0 -61.5 14t-21.5 55q0 42 21.5 55.5t61.5 13.5q38 0 60.5 -13.5t22.5 -55.5zM51 0v512h138v-512h-138z" />
    <glyph glyph-name="eth" unicode="&#xf0;" horiz-adv-x="565" 
d="M410 707q5 -8 10 -15t10 -15l99 26v-75l-61 -16q36 -73 52.5 -153.5t16.5 -178.5q0 -55 -11 -107t-40 -92t-79.5 -64.5t-128.5 -24.5q-75 0 -124 23t-77.5 60.5t-39.5 84.5t-11 95q0 47 10.5 94.5t37 85.5t70.5 61.5t110 23.5q48 0 80 -16t52 -42q-16 63 -44 117
l-107 -27v75l68 17q-11 17 -23.5 32t-25.5 31h156zM401 255q0 70 -26 110.5t-93 40.5q-66 0 -92.5 -40t-26.5 -111q0 -72 26 -111t91 -39q68 0 94.5 39t26.5 111z" />
    <glyph glyph-name="ntilde" unicode="&#xf1;" 
d="M397 0v290q0 27 -3.5 48.5t-14.5 36.5t-30.5 22.5t-51.5 7.5t-52.5 -8t-32 -23t-16 -37t-4.5 -50v-287h-137v512h57l32 -80q13 20 29 36t38.5 27.5t53 18t72.5 6.5q61 0 99 -17.5t60 -49.5t30 -76t8 -98v-279h-137zM362 669q31 0 40.5 13t9.5 38h121v-11q0 -5 0.5 -10.5
t0.5 -9.5q0 -26 -7 -50t-23 -43t-43.5 -30.5t-69.5 -11.5q-30 0 -53.5 8t-44 18t-39 18t-38.5 8q-32 0 -41 -13.5t-9 -37.5h-122q-1 6 -1 11v20q0 25 7 49.5t23 43.5t44 30.5t70 11.5q30 0 53.5 -8t43.5 -18t39 -18t39 -8z" />
    <glyph glyph-name="ograve" unicode="&#xf2;" horiz-adv-x="567" 
d="M539 257q0 -52 -12 -100t-41.5 -84.5t-79 -58.5t-124.5 -22q-74 0 -123 22.5t-78 59t-40.5 84.5t-11.5 99t12 98t41 84t78 59t124 22q74 0 123 -22t78.5 -59t41.5 -84t12 -98zM404 257q0 30 -5.5 57t-19 47t-36.5 31.5t-59 11.5q-35 0 -58.5 -11t-37 -31t-19 -47
t-5.5 -58q0 -32 5.5 -59t19 -47t36 -31t57.5 -11t58.5 11t37.5 30.5t20 47t6 59.5zM50 627v114l467 -81v-114z" />
    <glyph glyph-name="oacute" unicode="&#xf3;" horiz-adv-x="567" 
d="M539 257q0 -52 -12 -100t-41.5 -84.5t-79 -58.5t-124.5 -22q-74 0 -123 22.5t-78 59t-40.5 84.5t-11.5 99t12 98t41 84t78 59t124 22q74 0 123 -22t78.5 -59t41.5 -84t12 -98zM404 257q0 30 -5.5 57t-19 47t-36.5 31.5t-59 11.5q-35 0 -58.5 -11t-37 -31t-19 -47
t-5.5 -58q0 -32 5.5 -59t19 -47t36 -31t57.5 -11t58.5 11t37.5 30.5t20 47t6 59.5zM50 546v114l467 81v-114z" />
    <glyph glyph-name="ocircumflex" unicode="&#xf4;" horiz-adv-x="567" 
d="M539 257q0 -52 -12 -100t-41.5 -84.5t-79 -58.5t-124.5 -22q-74 0 -123 22.5t-78 59t-40.5 84.5t-11.5 99t12 98t41 84t78 59t124 22q74 0 123 -22t78.5 -59t41.5 -84t12 -98zM404 257q0 30 -5.5 57t-19 47t-36.5 31.5t-59 11.5q-35 0 -58.5 -11t-37 -31t-19 -47
t-5.5 -58q0 -32 5.5 -59t19 -47t36 -31t57.5 -11t58.5 11t37.5 30.5t20 47t6 59.5zM282 612l-231 -67v114l231 66l234 -66v-114z" />
    <glyph glyph-name="otilde" unicode="&#xf5;" horiz-adv-x="567" 
d="M539 257q0 -52 -12 -100t-41.5 -84.5t-79 -58.5t-124.5 -22q-74 0 -123 22.5t-78 59t-40.5 84.5t-11.5 99t12 98t41 84t78 59t124 22q74 0 123 -22t78.5 -59t41.5 -84t12 -98zM404 257q0 30 -5.5 57t-19 47t-36.5 31.5t-59 11.5q-35 0 -58.5 -11t-37 -31t-19 -47
t-5.5 -58q0 -32 5.5 -59t19 -47t36 -31t57.5 -11t58.5 11t37.5 30.5t20 47t6 59.5zM357 669q31 0 40.5 13t9.5 38h121v-11q0 -5 0.5 -10.5t0.5 -9.5q0 -26 -7 -50t-23 -43t-43.5 -30.5t-69.5 -11.5q-30 0 -53.5 8t-44 18t-39 18t-38.5 8q-32 0 -41 -13.5t-9 -37.5h-122
q-1 6 -1 11v20q0 25 7 49.5t23 43.5t44 30.5t70 11.5q30 0 53.5 -8t43.5 -18t39 -18t39 -8z" />
    <glyph glyph-name="odieresis" unicode="&#xf6;" horiz-adv-x="567" 
d="M539 257q0 -52 -12 -100t-41.5 -84.5t-79 -58.5t-124.5 -22q-74 0 -123 22.5t-78 59t-40.5 84.5t-11.5 99t12 98t41 84t78 59t124 22q74 0 123 -22t78.5 -59t41.5 -84t12 -98zM404 257q0 30 -5.5 57t-19 47t-36.5 31.5t-59 11.5q-35 0 -58.5 -11t-37 -31t-19 -47
t-5.5 -58q0 -32 5.5 -59t19 -47t36 -31t57.5 -11t58.5 11t37.5 30.5t20 47t6 59.5zM481 621q0 -41 -22 -55t-61 -14q-40 0 -61.5 14t-21.5 55q0 42 21.5 55.5t61.5 13.5q39 0 61 -13.5t22 -55.5zM252 621q0 -41 -22.5 -55t-59.5 -14q-41 0 -62.5 14t-21.5 55q0 42 21.5 55.5
t62.5 13.5q38 0 60 -13.5t22 -55.5z" />
    <glyph glyph-name="divide" unicode="&#xf7;" horiz-adv-x="650" 
d="M406 451q0 -41 -22 -55t-60 -14q-40 0 -62.5 14t-22.5 55q0 42 22.5 55.5t62.5 13.5q38 0 60 -13.5t22 -55.5zM41 199v114h568v-114h-568zM406 61q0 -41 -22 -55t-60 -14q-40 0 -62.5 14t-22.5 55q0 42 22.5 55.5t62.5 13.5q38 0 60 -13.5t22 -55.5z" />
    <glyph glyph-name="oslash" unicode="&#xf8;" horiz-adv-x="567" 
d="M404 257q0 30 -5.5 57t-19 47t-36.5 31.5t-59 11.5q-35 0 -58.5 -11t-37 -31t-19 -47t-5.5 -58q0 -32 5.5 -59t19 -47t36 -31t57.5 -11t58.5 11t37.5 30.5t20 47t6 59.5zM438 481q28 -18 47.5 -42.5t31.5 -53.5t17 -61.5t5 -66.5q0 -52 -12 -100t-41.5 -84.5t-79 -58.5
t-124.5 -22q-8 0 -15 0.5t-15 0.5l-22 -59h-136l36 95q-29 18 -48.5 43t-31 54.5t-16.5 62.5t-5 68q0 51 12 98t41 84t78 59t124 22q8 0 16.5 -0.5t16.5 -1.5l21 56h135z" />
    <glyph glyph-name="ugrave" unicode="&#xf9;" 
d="M465 0l-31 79q-13 -20 -29.5 -36t-39 -27.5t-53.5 -17.5t-73 -6q-60 0 -98 18t-59.5 50t-29.5 76.5t-8 98.5v277h136v-288q0 -27 3.5 -49t14 -37t30 -23t51.5 -8t52.5 8t32.5 23t16.5 36.5t4.5 49.5v288h137v-512h-57zM50 627v114l467 -81v-114z" />
    <glyph glyph-name="uacute" unicode="&#xfa;" 
d="M465 0l-31 79q-13 -20 -29.5 -36t-39 -27.5t-53.5 -17.5t-73 -6q-60 0 -98 18t-59.5 50t-29.5 76.5t-8 98.5v277h136v-288q0 -27 3.5 -49t14 -37t30 -23t51.5 -8t52.5 8t32.5 23t16.5 36.5t4.5 49.5v288h137v-512h-57zM51 546v114l467 81v-114z" />
    <glyph glyph-name="ucircumflex" unicode="&#xfb;" 
d="M465 0l-31 79q-13 -20 -29.5 -36t-39 -27.5t-53.5 -17.5t-73 -6q-60 0 -98 18t-59.5 50t-29.5 76.5t-8 98.5v277h136v-288q0 -27 3.5 -49t14 -37t30 -23t51.5 -8t52.5 8t32.5 23t16.5 36.5t4.5 49.5v288h137v-512h-57zM282 612l-231 -67v114l231 66l234 -66v-114z" />
    <glyph glyph-name="udieresis" unicode="&#xfc;" 
d="M465 0l-31 79q-13 -20 -29.5 -36t-39 -27.5t-53.5 -17.5t-73 -6q-60 0 -98 18t-59.5 50t-29.5 76.5t-8 98.5v277h136v-288q0 -27 3.5 -49t14 -37t30 -23t51.5 -8t52.5 8t32.5 23t16.5 36.5t4.5 49.5v288h137v-512h-57zM479 621q0 -41 -22 -55t-61 -14q-40 0 -61.5 14
t-21.5 55q0 42 21.5 55.5t61.5 13.5q39 0 61 -13.5t22 -55.5zM250 621q0 -41 -22.5 -55t-59.5 -14q-41 0 -62.5 14t-21.5 55q0 42 21.5 55.5t62.5 13.5q38 0 60 -13.5t22 -55.5z" />
    <glyph glyph-name="yacute" unicode="&#xfd;" horiz-adv-x="582" 
d="M527 -8q0 -37 -9 -73t-35 -64t-73.5 -45.5t-124.5 -17.5q-72 0 -119 13t-74 36.5t-37.5 55t-10.5 69.5h137q1 -15 4.5 -27.5t14 -21.5t31 -14.5t55.5 -5.5q33 0 53.5 6t32 17t15 26.5t3.5 34.5v73q-18 -24 -51 -43t-93 -19t-98.5 16.5t-60.5 46.5t-30 73.5t-8 97.5v286
h136v-298q0 -27 3.5 -47.5t14.5 -34t31 -20t52 -6.5t52 7.5t31.5 22t16 36t4.5 49.5v291h137v-520zM57 546v114l467 81v-114z" />
    <glyph glyph-name="thorn" unicode="&#xfe;" horiz-adv-x="594" 
d="M560 254q0 -52 -10.5 -99.5t-35 -83.5t-65.5 -57.5t-102 -21.5q-33 0 -58.5 5t-44.5 12t-32 15t-21 14v-238h-136v904h136v-233q8 7 21 15.5t32 16t44.5 12.5t58.5 5q61 0 102 -22.5t65.5 -59.5t35 -85t10.5 -99zM420 254q0 33 -4.5 60t-17.5 46.5t-35 30.5t-58 11
q-37 0 -59.5 -11t-35 -31t-16.5 -47t-4 -59t4 -59t16.5 -46.5t35 -30.5t59.5 -11q36 0 58 10.5t35 30t17.5 46.5t4.5 60z" />
    <glyph glyph-name="ydieresis" unicode="&#xff;" horiz-adv-x="582" 
d="M527 -8q0 -37 -9 -73t-35 -64t-73.5 -45.5t-124.5 -17.5q-72 0 -119 13t-74 36.5t-37.5 55t-10.5 69.5h137q1 -15 4.5 -27.5t14 -21.5t31 -14.5t55.5 -5.5q33 0 53.5 6t32 17t15 26.5t3.5 34.5v73q-18 -24 -51 -43t-93 -19t-98.5 16.5t-60.5 46.5t-30 73.5t-8 97.5v286
h136v-298q0 -27 3.5 -47.5t14.5 -34t31 -20t52 -6.5t52 7.5t31.5 22t16 36t4.5 49.5v291h137v-520zM484 621q0 -41 -22 -55t-61 -14q-40 0 -61.5 14t-21.5 55q0 42 21.5 55.5t61.5 13.5q39 0 61 -13.5t22 -55.5zM255 621q0 -41 -22.5 -55t-59.5 -14q-41 0 -62.5 14t-21.5 55
q0 42 21.5 55.5t62.5 13.5q38 0 60 -13.5t22 -55.5z" />
    <glyph glyph-name="Amacron" unicode="&#x100;" horiz-adv-x="646" 
d="M496 0l-35 114h-275l-37 -114h-149l227 640h193l226 -640h-150zM324 532l-104 -315h206zM103 693v114h440v-114h-440z" />
    <glyph glyph-name="amacron" unicode="&#x101;" horiz-adv-x="557" 
d="M456 0l-31 82q-11 -18 -28 -34t-41 -28.5t-55 -20t-70 -7.5q-43 0 -80 9.5t-64.5 29t-43.5 50t-16 71.5q0 36 12.5 62.5t38.5 45t66.5 29t96.5 15.5l136 12q-1 43 -23.5 70.5t-79.5 27.5q-55 0 -74.5 -22.5t-19.5 -60.5l-136 -1q0 39 9.5 74t35 60.5t69.5 40.5t113 15
q80 0 128 -17t73.5 -47t33.5 -72.5t8 -93.5v-290h-58zM262 211q-53 -5 -72.5 -18.5t-19.5 -33.5q0 -26 21.5 -43t72.5 -17q32 0 53.5 10t34.5 27.5t19 40t6 47.5zM58 565v114h440v-114h-440z" />
    <glyph glyph-name="Abreve" unicode="&#x102;" horiz-adv-x="646" 
d="M496 0l-35 114h-275l-37 -114h-149l227 640h193l226 -640h-150zM324 532l-104 -315h206zM527 832q0 -50 -12 -80t-32.5 -46t-46.5 -21t-54 -5h-126q-30 0 -55 7t-43 24t-28.5 46.5t-10.5 74.5h123q0 -15 7.5 -27.5t30.5 -12.5h84q23 0 30.5 12.5t7.5 27.5h125z" />
    <glyph glyph-name="abreve" unicode="&#x103;" horiz-adv-x="557" 
d="M456 0l-31 82q-11 -18 -28 -34t-41 -28.5t-55 -20t-70 -7.5q-43 0 -80 9.5t-64.5 29t-43.5 50t-16 71.5q0 36 12.5 62.5t38.5 45t66.5 29t96.5 15.5l136 12q-1 43 -23.5 70.5t-79.5 27.5q-55 0 -74.5 -22.5t-19.5 -60.5l-136 -1q0 39 9.5 74t35 60.5t69.5 40.5t113 15
q80 0 128 -17t73.5 -47t33.5 -72.5t8 -93.5v-290h-58zM262 211q-53 -5 -72.5 -18.5t-19.5 -33.5q0 -26 21.5 -43t72.5 -17q32 0 53.5 10t34.5 27.5t19 40t6 47.5zM482 704q0 -50 -12 -80t-32.5 -46t-46.5 -21t-54 -5h-126q-30 0 -55 7t-43 24t-28.5 46.5t-10.5 74.5h123
q0 -15 7.5 -27.5t30.5 -12.5h84q23 0 30.5 12.5t7.5 27.5h125z" />
    <glyph glyph-name="Aogonek" unicode="&#x104;" horiz-adv-x="646" 
d="M574 -208q-51 0 -72 19.5t-21 54.5q0 36 18.5 72.5t47.5 61.5h-51l-35 114h-275l-37 -114h-149l227 640h193l226 -640q-22 -19 -34.5 -40.5t-12.5 -40.5q0 -14 9 -23t38 -9v-95h-72zM324 532l-104 -315h206z" />
    <glyph glyph-name="aogonek" unicode="&#x105;" horiz-adv-x="557" 
d="M442 -208q-51 0 -72 19.5t-21 54.5q0 85 97 161l-21 55q-11 -18 -28 -34t-41 -28t-55 -19.5t-70 -7.5q-43 0 -80 9.5t-64.5 29t-43.5 50t-16 71.5q0 36 12 62t37.5 43.5t66 28t98.5 17.5l136 15q-1 43 -23.5 69.5t-79.5 26.5q-55 0 -74.5 -23t-19.5 -61l-136 -1
q0 39 9.5 74t35 60.5t69.5 40.5t113 15q80 0 128 -17t73.5 -47t33.5 -72.5t8 -93.5v-290q-22 -19 -34.5 -40.5t-12.5 -40.5q0 -14 9 -23t38 -9v-95h-72zM262 211q-53 -5 -72.5 -19t-19.5 -34q0 -26 21.5 -43t72.5 -17q32 0 53.5 10.5t34.5 27.5t19 40t6 48z" />
    <glyph glyph-name="Cacute" unicode="&#x106;" horiz-adv-x="677" 
d="M636 242q0 -53 -15 -98.5t-49.5 -79t-90 -53t-136.5 -19.5q-92 0 -149.5 26.5t-90 71.5t-44.5 104.5t-12 125.5t12.5 125.5t45.5 104.5t90.5 71.5t147.5 26.5q79 0 134.5 -20.5t90 -54.5t50 -79.5t15.5 -94.5h-145q-3 29 -12 53t-26 41.5t-43 27t-64 9.5q-49 0 -79 -16.5
t-46.5 -45t-22 -66.5t-5.5 -82t5.5 -82.5t22 -67t46.5 -44.5t79 -16q38 0 64 9.5t43 26.5t25.5 41.5t12.5 54.5h146zM120 675v114l467 81v-114z" />
    <glyph glyph-name="cacute" unicode="&#x107;" horiz-adv-x="555" 
d="M526 200q0 -94 -57.5 -151t-178.5 -57q-78 0 -128.5 22t-80 58.5t-41 84t-11.5 98.5t12 99t41 85t79 59t126 22q61 0 106 -15.5t74.5 -43.5t44 -67t14.5 -86h-141q-6 48 -27.5 73t-72.5 25q-33 0 -56.5 -11t-37.5 -30.5t-20.5 -47t-6.5 -60.5q0 -32 6 -59.5t20.5 -47
t37.5 -30.5t57 -11q50 0 72 25t28 67zM44 546v114l467 81v-114z" />
    <glyph glyph-name="Ccircumflex" unicode="&#x108;" horiz-adv-x="677" 
d="M636 242q0 -53 -15 -98.5t-49.5 -79t-90 -53t-136.5 -19.5q-92 0 -149.5 26.5t-90 71.5t-44.5 104.5t-12 125.5t12.5 125.5t45.5 104.5t90.5 71.5t147.5 26.5q79 0 134.5 -20.5t90 -54.5t50 -79.5t15.5 -94.5h-145q-3 29 -12 53t-26 41.5t-43 27t-64 9.5q-49 0 -79 -16.5
t-46.5 -45t-22 -66.5t-5.5 -82t5.5 -82.5t22 -67t46.5 -44.5t79 -16q38 0 64 9.5t43 26.5t25.5 41.5t12.5 54.5h146zM342 741l-231 -67v114l231 66l234 -66v-114z" />
    <glyph glyph-name="ccircumflex" unicode="&#x109;" horiz-adv-x="555" 
d="M526 200q0 -94 -57.5 -151t-178.5 -57q-78 0 -128.5 22t-80 58.5t-41 84t-11.5 98.5t12 99t41 85t79 59t126 22q61 0 106 -15.5t74.5 -43.5t44 -67t14.5 -86h-141q-6 48 -27.5 73t-72.5 25q-33 0 -56.5 -11t-37.5 -30.5t-20.5 -47t-6.5 -60.5q0 -32 6 -59.5t20.5 -47
t37.5 -30.5t57 -11q50 0 72 25t28 67zM276 612l-231 -67v114l231 66l234 -66v-114z" />
    <glyph glyph-name="Cdotaccent" unicode="&#x10a;" horiz-adv-x="677" 
d="M636 242q0 -53 -15 -98.5t-49.5 -79t-90 -53t-136.5 -19.5q-92 0 -149.5 26.5t-90 71.5t-44.5 104.5t-12 125.5t12.5 125.5t45.5 104.5t90.5 71.5t147.5 26.5q79 0 134.5 -20.5t90 -54.5t50 -79.5t15.5 -94.5h-145q-3 29 -12 53t-26 41.5t-43 27t-64 9.5q-49 0 -79 -16.5
t-46.5 -45t-22 -66.5t-5.5 -82t5.5 -82.5t22 -67t46.5 -44.5t79 -16q38 0 64 9.5t43 26.5t25.5 41.5t12.5 54.5h146zM437 750q0 -42 -24 -56t-62 -14q-40 0 -64 14t-24 56q0 43 24.5 57t63.5 14q38 0 62 -14t24 -57z" />
    <glyph glyph-name="cdotaccent" unicode="&#x10b;" horiz-adv-x="555" 
d="M526 200q0 -94 -57.5 -151t-178.5 -57q-78 0 -128.5 22t-80 58.5t-41 84t-11.5 98.5t12 99t41 85t79 59t126 22q61 0 106 -15.5t74.5 -43.5t44 -67t14.5 -86h-141q-6 48 -27.5 73t-72.5 25q-33 0 -56.5 -11t-37.5 -30.5t-20.5 -47t-6.5 -60.5q0 -32 6 -59.5t20.5 -47
t37.5 -30.5t57 -11q50 0 72 25t28 67zM376 621q0 -42 -24 -56t-62 -14q-40 0 -64 14t-24 56q0 43 24.5 57t63.5 14q38 0 62 -14t24 -57z" />
    <glyph glyph-name="Ccaron" unicode="&#x10c;" horiz-adv-x="677" 
d="M636 242q0 -53 -15 -98.5t-49.5 -79t-90 -53t-136.5 -19.5q-92 0 -149.5 26.5t-90 71.5t-44.5 104.5t-12 125.5t12.5 125.5t45.5 104.5t90.5 71.5t147.5 26.5q79 0 134.5 -20.5t90 -54.5t50 -79.5t15.5 -94.5h-145q-3 29 -12 53t-26 41.5t-43 27t-64 9.5q-49 0 -79 -16.5
t-46.5 -45t-22 -66.5t-5.5 -82t5.5 -82.5t22 -67t46.5 -44.5t79 -16q38 0 64 9.5t43 26.5t25.5 41.5t12.5 54.5h146zM576 854v-114l-234 -66l-231 66v114l231 -68z" />
    <glyph glyph-name="ccaron" unicode="&#x10d;" horiz-adv-x="555" 
d="M526 200q0 -94 -57.5 -151t-178.5 -57q-78 0 -128.5 22t-80 58.5t-41 84t-11.5 98.5t12 99t41 85t79 59t126 22q61 0 106 -15.5t74.5 -43.5t44 -67t14.5 -86h-141q-6 48 -27.5 73t-72.5 25q-33 0 -56.5 -11t-37.5 -30.5t-20.5 -47t-6.5 -60.5q0 -32 6 -59.5t20.5 -47
t37.5 -30.5t57 -11q50 0 72 25t28 67zM510 725v-114l-234 -66l-231 66v114l231 -68z" />
    <glyph glyph-name="Dcaron" unicode="&#x10e;" horiz-adv-x="662" 
d="M616 324q0 -76 -20.5 -136t-60 -102t-97 -64t-132.5 -22h-237v640h248q147 0 223 -80.5t76 -235.5zM477 325q0 61 -12 99.5t-36 60.5t-60 29.5t-84 7.5h-74v-404h69q49 0 85.5 9.5t61.5 33t37.5 63.5t12.5 101zM539 854v-114l-234 -66l-231 66v114l231 -68z" />
    <glyph glyph-name="dcaron" unicode="&#x10f;" horiz-adv-x="764" 
d="M481 0l-31 82q-12 -19 -28.5 -35.5t-40 -28.5t-55 -19t-74.5 -7q-60 0 -102 22.5t-68.5 59t-38 84t-11.5 98.5t11 98.5t36.5 84.5t67 59t102.5 22q33 0 58 -5.5t43.5 -14.5t31 -20.5t20.5 -23.5v251h137v-707h-58zM405 256q0 32 -4 59t-16 47t-34 31t-59 11
q-36 0 -59 -11t-36.5 -30.5t-19 -46.5t-5.5 -60t5.5 -61t19 -47.5t36.5 -30.5t58 -11q36 0 58.5 11t34.5 30.5t16.5 47t4.5 61.5zM732 376h-81v132q-32 2 -50.5 17t-18.5 53q0 43 24.5 56.5t62.5 13.5q45 0 67 -16.5t16 -62.5z" />
    <glyph glyph-name="Dcroat" unicode="&#x110;" horiz-adv-x="662" 
d="M616 324q0 -76 -20.5 -136t-60 -102t-97 -64t-132.5 -22h-237v270h-57v100h57v270h248q147 0 223 -80.5t76 -235.5zM211 270v-156h69q49 0 85.5 10t61.5 34.5t37.5 65t12.5 101.5t-12 100t-36 61t-60 30t-84 8h-74v-154h89v-100h-89z" />
    <glyph glyph-name="dcroat" unicode="&#x111;" horiz-adv-x="594" 
d="M481 0l-31 82q-12 -19 -28.5 -35.5t-40 -28.5t-55 -19t-74.5 -7q-60 0 -102 22.5t-68.5 59t-38 84t-11.5 98.5t11 98.5t36.5 84.5t67 59t102.5 22q33 0 58 -5.5t43.5 -14.5t31 -20.5t20.5 -23.5v119h-148v89h148v43h137v-43h45v-89h-45v-575h-58zM405 256q0 32 -4 59
t-16 47t-34 31t-59 11q-36 0 -59 -11t-36.5 -30.5t-19 -46.5t-5.5 -60t5.5 -61t19 -47.5t36.5 -30.5t58 -11q36 0 58.5 11t34.5 30.5t16.5 47t4.5 61.5z" />
    <glyph glyph-name="Emacron" unicode="&#x112;" horiz-adv-x="564" 
d="M69 0v640h453v-118h-312v-138h281v-115h-281v-151h312v-118h-453zM78 694v114h440v-114h-440z" />
    <glyph glyph-name="emacron" unicode="&#x113;" horiz-adv-x="547" 
d="M517 155q-3 -32 -17 -61.5t-41 -52t-70 -36t-105 -13.5q-79 0 -128.5 22.5t-77.5 60t-38.5 84.5t-10.5 97q0 48 10.5 95t38.5 84.5t77 61t127 23.5q73 0 121 -27t75 -71.5t35.5 -101.5t2.5 -118h-347q5 -55 35 -79.5t75 -24.5q23 0 39 4.5t27 12.5t17 18.5t10 21.5h145z
M374 307q0 21 -6 40.5t-18.5 34t-32 23t-46.5 8.5q-52 0 -76 -31t-26 -75h205zM53 565v114h440v-114h-440z" />
    <glyph glyph-name="Ebreve" unicode="&#x114;" horiz-adv-x="564" 
d="M69 0v640h453v-118h-312v-138h281v-115h-281v-151h312v-118h-453zM508 833q0 -50 -12 -80t-32.5 -46t-46.5 -21t-54 -5h-126q-30 0 -55 7t-43 24t-28.5 46.5t-10.5 74.5h123q0 -15 7.5 -27.5t30.5 -12.5h84q23 0 30.5 12.5t7.5 27.5h125z" />
    <glyph glyph-name="ebreve" unicode="&#x115;" horiz-adv-x="547" 
d="M517 155q-3 -32 -17 -61.5t-41 -52t-70 -36t-105 -13.5q-79 0 -128.5 22.5t-77.5 60t-38.5 84.5t-10.5 97q0 48 10.5 95t38.5 84.5t77 61t127 23.5q73 0 121 -27t75 -71.5t35.5 -101.5t2.5 -118h-347q5 -55 35 -79.5t75 -24.5q23 0 39 4.5t27 12.5t17 18.5t10 21.5h145z
M374 307q0 21 -6 40.5t-18.5 34t-32 23t-46.5 8.5q-52 0 -76 -31t-26 -75h205zM479 704q0 -50 -12 -80t-32.5 -46t-46.5 -21t-54 -5h-126q-30 0 -55 7t-43 24t-28.5 46.5t-10.5 74.5h123q0 -15 7.5 -27.5t30.5 -12.5h84q23 0 30.5 12.5t7.5 27.5h125z" />
    <glyph glyph-name="Edotaccent" unicode="&#x116;" horiz-adv-x="564" 
d="M69 0v640h453v-118h-312v-138h281v-115h-281v-151h312v-118h-453zM390 750q0 -42 -24 -56t-62 -14q-40 0 -64 14t-24 56q0 43 24.5 57t63.5 14q38 0 62 -14t24 -57z" />
    <glyph glyph-name="edotaccent" unicode="&#x117;" horiz-adv-x="547" 
d="M517 155q-3 -32 -17 -61.5t-41 -52t-70 -36t-105 -13.5q-79 0 -128.5 22.5t-77.5 60t-38.5 84.5t-10.5 97q0 48 10.5 95t38.5 84.5t77 61t127 23.5q73 0 121 -27t75 -71.5t35.5 -101.5t2.5 -118h-347q5 -55 35 -79.5t75 -24.5q23 0 39 4.5t27 12.5t17 18.5t10 21.5h145z
M374 307q0 21 -6 40.5t-18.5 34t-32 23t-46.5 8.5q-52 0 -76 -31t-26 -75h205zM361 621q0 -42 -24 -56t-62 -14q-40 0 -64 14t-24 56q0 43 24.5 57t63.5 14q38 0 62 -14t24 -57z" />
    <glyph glyph-name="Eogonek" unicode="&#x118;" horiz-adv-x="564" 
d="M450 -208q-51 0 -72 19.5t-21 54.5q0 36 18.5 72.5t47.5 61.5h-354v640h453v-118h-312v-138h281v-115h-281v-151h312v-118q-22 -19 -34.5 -40.5t-12.5 -40.5q0 -14 9 -23t38 -9v-95h-72z" />
    <glyph glyph-name="eogonek" unicode="&#x119;" horiz-adv-x="547" 
d="M382 -166q-51 0 -72 19t-21 54q0 23 10 44.5t25 41.5q-10 -1 -20 -1h-20q-79 0 -128.5 22.5t-77.5 60t-38.5 84.5t-10.5 97q0 48 10.5 95t38.5 84.5t77 61t127 23.5q73 0 121 -27t75 -71.5t35.5 -101.5t2.5 -118h-347q5 -55 35 -79.5t75 -24.5q23 0 39 4.5t27 12.5
t17 18.5t10 21.5h146q-4 -35 -20 -65.5t-45 -53.5q-46 -37 -46 -76q0 -14 9 -22.5t38 -8.5v-95h-72zM374 307q0 21 -6 40.5t-18.5 34t-32 23t-46.5 8.5q-52 0 -76 -31t-26 -75h205z" />
    <glyph glyph-name="Ecaron" unicode="&#x11a;" horiz-adv-x="564" 
d="M69 0v640h453v-118h-312v-138h281v-115h-281v-151h312v-118h-453zM529 854v-114l-234 -66l-231 66v114l231 -68z" />
    <glyph glyph-name="ecaron" unicode="&#x11b;" horiz-adv-x="547" 
d="M517 155q-3 -32 -17 -61.5t-41 -52t-70 -36t-105 -13.5q-79 0 -128.5 22.5t-77.5 60t-38.5 84.5t-10.5 97q0 48 10.5 95t38.5 84.5t77 61t127 23.5q73 0 121 -27t75 -71.5t35.5 -101.5t2.5 -118h-347q5 -55 35 -79.5t75 -24.5q23 0 39 4.5t27 12.5t17 18.5t10 21.5h145z
M374 307q0 21 -6 40.5t-18.5 34t-32 23t-46.5 8.5q-52 0 -76 -31t-26 -75h205zM506 725v-114l-234 -66l-231 66v114l231 -68z" />
    <glyph glyph-name="Gcircumflex" unicode="&#x11c;" horiz-adv-x="697" 
d="M571 0l-35 100q-33 -59 -85 -83.5t-115 -24.5q-85 0 -140.5 26.5t-88 71.5t-45.5 104.5t-13 125.5t12 125.5t45 104.5t90.5 71.5t148.5 26.5q79 0 134.5 -18t89.5 -48t49.5 -70t15.5 -83h-147q-3 22 -11 41t-24 32t-42 20.5t-65 7.5q-49 0 -79 -16.5t-46.5 -45t-22 -66.5
t-5.5 -82t5.5 -82.5t22 -67t46.5 -45t79 -16.5q71 0 109 37.5t38 103.5h-163v115h306v-365h-64zM350 741l-231 -67v114l231 66l234 -66v-114z" />
    <glyph glyph-name="gcircumflex" unicode="&#x11d;" horiz-adv-x="545" 
d="M537 -48q0 -29 -11.5 -58.5t-40.5 -53.5t-78.5 -39t-125.5 -15q-78 0 -129 12t-80.5 35t-41 56t-11.5 76h145q2 -16 6 -29t16 -22t35 -13.5t63 -4.5q36 0 57.5 4.5t33 11.5t15.5 15.5t4 16.5q0 6 -5.5 11.5t-20.5 10.5t-41 11t-67 13q-43 7 -85 14t-75.5 19t-54 33.5
t-20.5 57.5q0 38 33 59t78 29q-27 9 -46 24t-31 33t-17.5 37.5t-5.5 37.5q0 35 10.5 67t39 57t79.5 39.5t132 14.5h228v-60l-83 -30q24 -10 43.5 -39.5t19.5 -66.5q0 -35 -10.5 -66t-37.5 -54t-72.5 -36.5t-115.5 -13.5q-36 0 -57 -2t-31.5 -5t-13 -7t-2.5 -8q0 -6 3.5 -9.5
t18.5 -7t45 -7.5t83 -11q37 -5 76.5 -11.5t72 -21t53 -39t20.5 -65.5zM361 327q0 16 -3.5 29t-13.5 23t-28 15.5t-47 5.5q-28 0 -45.5 -5.5t-28 -15t-14.5 -23t-4 -29.5q0 -17 4 -31t14 -24.5t28 -16.5t47 -6q55 0 73 21.5t18 56.5zM283 612l-231 -67v114l231 66l234 -66
v-114z" />
    <glyph glyph-name="Gbreve" unicode="&#x11e;" horiz-adv-x="697" 
d="M571 0l-35 100q-33 -59 -85 -83.5t-115 -24.5q-85 0 -140.5 26.5t-88 71.5t-45.5 104.5t-13 125.5t12 125.5t45 104.5t90.5 71.5t148.5 26.5q79 0 134.5 -18t89.5 -48t49.5 -70t15.5 -83h-147q-3 22 -11 41t-24 32t-42 20.5t-65 7.5q-49 0 -79 -16.5t-46.5 -45t-22 -66.5
t-5.5 -82t5.5 -82.5t22 -67t46.5 -45t79 -16.5q71 0 109 37.5t38 103.5h-163v115h306v-365h-64zM552 833q0 -50 -12 -80t-32.5 -46t-46.5 -21t-54 -5h-126q-30 0 -55 7t-43 24t-28.5 46.5t-10.5 74.5h123q0 -15 7.5 -27.5t30.5 -12.5h84q23 0 30.5 12.5t7.5 27.5h125z" />
    <glyph glyph-name="gbreve" unicode="&#x11f;" horiz-adv-x="545" 
d="M537 -48q0 -29 -11.5 -58.5t-40.5 -53.5t-78.5 -39t-125.5 -15q-78 0 -129 12t-80.5 35t-41 56t-11.5 76h145q2 -16 6 -29t16 -22t35 -13.5t63 -4.5q36 0 57.5 4.5t33 11.5t15.5 15.5t4 16.5q0 6 -5.5 11.5t-20.5 10.5t-41 11t-67 13q-43 7 -85 14t-75.5 19t-54 33.5
t-20.5 57.5q0 38 33 59t78 29q-27 9 -46 24t-31 33t-17.5 37.5t-5.5 37.5q0 35 10.5 67t39 57t79.5 39.5t132 14.5h228v-60l-83 -30q24 -10 43.5 -39.5t19.5 -66.5q0 -35 -10.5 -66t-37.5 -54t-72.5 -36.5t-115.5 -13.5q-36 0 -57 -2t-31.5 -5t-13 -7t-2.5 -8q0 -6 3.5 -9.5
t18.5 -7t45 -7.5t83 -11q37 -5 76.5 -11.5t72 -21t53 -39t20.5 -65.5zM361 327q0 16 -3.5 29t-13.5 23t-28 15.5t-47 5.5q-28 0 -45.5 -5.5t-28 -15t-14.5 -23t-4 -29.5q0 -17 4 -31t14 -24.5t28 -16.5t47 -6q55 0 73 21.5t18 56.5zM488 704q0 -50 -12 -80t-32.5 -46
t-46.5 -21t-54 -5h-126q-30 0 -55 7t-43 24t-28.5 46.5t-10.5 74.5h123q0 -15 7.5 -27.5t30.5 -12.5h84q23 0 30.5 12.5t7.5 27.5h125z" />
    <glyph glyph-name="Gdotaccent" unicode="&#x120;" horiz-adv-x="697" 
d="M571 0l-35 100q-33 -59 -85 -83.5t-115 -24.5q-85 0 -140.5 26.5t-88 71.5t-45.5 104.5t-13 125.5t12 125.5t45 104.5t90.5 71.5t148.5 26.5q79 0 134.5 -18t89.5 -48t49.5 -70t15.5 -83h-147q-3 22 -11 41t-24 32t-42 20.5t-65 7.5q-49 0 -79 -16.5t-46.5 -45t-22 -66.5
t-5.5 -82t5.5 -82.5t22 -67t46.5 -45t79 -16.5q71 0 109 37.5t38 103.5h-163v115h306v-365h-64zM435 750q0 -42 -24 -56t-62 -14q-40 0 -64 14t-24 56q0 43 24.5 57t63.5 14q38 0 62 -14t24 -57z" />
    <glyph glyph-name="gdotaccent" unicode="&#x121;" horiz-adv-x="545" 
d="M537 -48q0 -29 -11.5 -58.5t-40.5 -53.5t-78.5 -39t-125.5 -15q-78 0 -129 12t-80.5 35t-41 56t-11.5 76h145q2 -16 6 -29t16 -22t35 -13.5t63 -4.5q36 0 57.5 4.5t33 11.5t15.5 15.5t4 16.5q0 6 -5.5 11.5t-20.5 10.5t-41 11t-67 13q-43 7 -85 14t-75.5 19t-54 33.5
t-20.5 57.5q0 38 33 59t78 29q-27 9 -46 24t-31 33t-17.5 37.5t-5.5 37.5q0 35 10.5 67t39 57t79.5 39.5t132 14.5h228v-60l-83 -30q24 -10 43.5 -39.5t19.5 -66.5q0 -35 -10.5 -66t-37.5 -54t-72.5 -36.5t-115.5 -13.5q-36 0 -57 -2t-31.5 -5t-13 -7t-2.5 -8q0 -6 3.5 -9.5
t18.5 -7t45 -7.5t83 -11q37 -5 76.5 -11.5t72 -21t53 -39t20.5 -65.5zM361 327q0 16 -3.5 29t-13.5 23t-28 15.5t-47 5.5q-28 0 -45.5 -5.5t-28 -15t-14.5 -23t-4 -29.5q0 -17 4 -31t14 -24.5t28 -16.5t47 -6q55 0 73 21.5t18 56.5zM362 621q0 -42 -24 -56t-62 -14
q-40 0 -64 14t-24 56q0 43 24.5 57t63.5 14q38 0 62 -14t24 -57z" />
    <glyph glyph-name="uni0122" unicode="&#x122;" horiz-adv-x="697" 
d="M571 0l-35 100q-33 -59 -85 -83.5t-115 -24.5q-85 0 -140.5 26.5t-88 71.5t-45.5 104.5t-13 125.5t12 125.5t45 104.5t90.5 71.5t148.5 26.5q79 0 134.5 -18t89.5 -48t49.5 -70t15.5 -83h-147q-3 22 -11 41t-24 32t-42 20.5t-65 7.5q-49 0 -79 -16.5t-46.5 -45t-22 -66.5
t-5.5 -82t5.5 -82.5t22 -67t46.5 -45t79 -16.5q71 0 109 37.5t38 103.5h-163v115h306v-365h-64zM407 -245h-75v84q-29 4 -47 17t-18 48q0 40 22.5 53t57.5 13q41 0 62 -17t16 -57z" />
    <glyph glyph-name="uni0123" unicode="&#x123;" horiz-adv-x="545" 
d="M537 -48q0 -29 -11.5 -58.5t-40.5 -53.5t-78.5 -39t-125.5 -15q-78 0 -129 12t-80.5 35t-41 56t-11.5 76h145q2 -16 6 -29t16 -22t35 -13.5t63 -4.5q36 0 57.5 4.5t33 11.5t15.5 15.5t4 16.5q0 6 -5.5 11.5t-20.5 10.5t-41 11t-67 13q-43 7 -85 14t-75.5 19t-54 33.5
t-20.5 57.5q0 38 33 59t78 29q-27 9 -46 24t-31 33t-17.5 37.5t-5.5 37.5q0 35 10.5 67t39 57t79.5 39.5t132 14.5h228v-60l-83 -30q24 -10 43.5 -39.5t19.5 -66.5q0 -35 -10.5 -66t-37.5 -54t-72.5 -36.5t-115.5 -13.5q-36 0 -57 -2t-31.5 -5t-13 -7t-2.5 -8q0 -6 3.5 -9.5
t18.5 -7t45 -7.5t83 -11q37 -5 76.5 -11.5t72 -21t53 -39t20.5 -65.5zM361 327q0 16 -3.5 29t-13.5 23t-28 15.5t-47 5.5q-28 0 -45.5 -5.5t-28 -15t-14.5 -23t-4 -29.5q0 -17 4 -31t14 -24.5t28 -16.5t47 -6q55 0 73 21.5t18 56.5zM216 756h75v-84q29 -4 47 -17t18 -48
q0 -40 -22.5 -53t-57.5 -13q-41 0 -62 17t-16 57z" />
    <glyph glyph-name="Hcircumflex" unicode="&#x124;" horiz-adv-x="670" 
d="M464 0v269h-259v-269h-143v640h143v-256h259v256h143v-640h-143zM332 741l-231 -67v114l231 66l234 -66v-114z" />
    <glyph glyph-name="hcircumflex" unicode="&#x125;" 
d="M120 791l-116 -55v114l116 54l116 -54v-114zM397 0v289q0 29 -3.5 50.5t-14.5 36t-30.5 21.5t-51.5 7t-52.5 -7t-32 -21t-16 -35.5t-4.5 -51.5l-1 -289h-136v707h136v-252q5 10 16.5 21.5t29.5 21.5t43 16t57 6q61 0 99 -18t60 -50t30 -77t8 -99v-276h-137z" />
    <glyph glyph-name="Hbar" unicode="&#x126;" horiz-adv-x="670" 
d="M464 0v269h-259v-269h-143v456h-43v109h43v75h143v-75h259v75h143v-75h43v-109h-43v-456h-143zM464 384v72h-259v-72h259z" />
    <glyph glyph-name="hbar" unicode="&#x127;" 
d="M191 572v-117q5 10 16.5 21.5t29.5 21.5t43 16t57 6q61 0 99 -18t60 -50t30 -77t8 -99v-276h-137v289q0 29 -3.5 50.5t-14.5 36t-30.5 21.5t-51.5 7t-52.5 -7t-32 -21t-16 -35.5t-4.5 -51.5l-1 -289h-136v707h136v-51h318v-84h-318z" />
    <glyph glyph-name="Itilde" unicode="&#x128;" horiz-adv-x="279" 
d="M339 800q0 -59 -27 -92t-93 -33q-17 0 -35 7t-35 15.5t-33 15.5t-29 7q-26 0 -35.5 -13t-9.5 -32h-98q-1 8 -1 15q-1 6 -1 12.5v11.5q2 57 26.5 89.5t88.5 32.5q19 0 37 -7t35 -15.5t33 -15.5t32 -7q27 0 36 13t9 32h98q0 -8 1 -14q0 -6 0.5 -11.5t0.5 -10.5zM69 0v640
h142v-640h-142z" />
    <glyph glyph-name="itilde" unicode="&#x129;" horiz-adv-x="237" 
d="M312 671q0 -58 -27 -91.5t-93 -33.5q-17 0 -34.5 7t-35 15.5t-33 15.5t-28.5 7q-26 0 -35.5 -13t-9.5 -32h-99q-1 8 -1 15v24q1 57 26 89.5t89 32.5q19 0 37 -7t35 -15.5t33 -15.5t31 -7q28 0 36.5 13t8.5 32h99v-13q0 -5 0.5 -11.5t0.5 -11.5zM51 0v512h138v-512h-138z
" />
    <glyph glyph-name="Imacron" unicode="&#x12a;" horiz-adv-x="279" 
d="M0 696v114h279v-114h-279zM69 0v640h142v-640h-142z" />
    <glyph glyph-name="imacron" unicode="&#x12b;" horiz-adv-x="237" 
d="M0 567v114h237v-114h-237zM51 0v512h138v-512h-138z" />
    <glyph glyph-name="Ibreve" unicode="&#x12c;" horiz-adv-x="279" 
d="M337 826q0 -50 -12 -79.5t-32.5 -45.5t-46.5 -21t-54 -5h-113q-30 0 -55 6.5t-43.5 24t-29 46.5t-10.5 74h124q0 -15 7 -27.5t30 -12.5h72q23 0 30.5 12.5t7.5 27.5h125zM69 0v640h142v-640h-142z" />
    <glyph glyph-name="ibreve" unicode="&#x12d;" horiz-adv-x="237" 
d="M290 701q0 -50 -12 -79.5t-32.5 -45.5t-46.5 -21t-54 -5h-51q-30 0 -55 6.5t-43.5 24t-29 46.5t-10.5 74h124q0 -15 7 -27.5t30 -12.5h9q23 0 31 12.5t8 27.5h125zM51 0v512h138v-512h-138z" />
    <glyph glyph-name="Iogonek" unicode="&#x12e;" horiz-adv-x="279" 
d="M139 -208q-51 0 -72 19.5t-21 54.5q0 36 18.5 72.5t47.5 61.5h-43v640h142v-640q-22 -19 -34.5 -40.5t-12.5 -40.5q0 -14 9 -23t38 -9v-95h-72z" />
    <glyph glyph-name="iogonek" unicode="&#x12f;" horiz-adv-x="237" 
d="M117 -208q-51 0 -72 19.5t-21 54.5q0 36 18.5 72.5t47.5 61.5h-39v512h138v-512q-22 -19 -34.5 -40.5t-12.5 -40.5q0 -14 9 -23t38 -9v-95h-72zM206 635q0 -42 -24 -56t-62 -14q-40 0 -64 14t-24 56q0 43 25 57t63 14t62 -14t24 -57z" />
    <glyph glyph-name="Idotaccent" unicode="&#x130;" horiz-adv-x="279" 
d="M69 0v640h142v-640h-142zM230 750q0 -42 -24 -56t-62 -14q-40 0 -64 14t-24 56q0 43 24.5 57t63.5 14q38 0 62 -14t24 -57z" />
    <glyph glyph-name="dotlessi" unicode="&#x131;" horiz-adv-x="237" 
d="M51 0v512h138v-512h-138z" />
    <glyph glyph-name="Jcircumflex" unicode="&#x134;" horiz-adv-x="346" 
d="M204 732l-117 -55v114l117 54l116 -54v-114zM280 187q0 -49 -8.5 -85t-30 -60t-59 -35.5t-95.5 -11.5q-20 0 -41.5 1t-45.5 4v114q16 -3 29.5 -4t24.5 -1q51 0 66.5 20t15.5 51v460h143z" />
    <glyph glyph-name="jcircumflex" unicode="&#x135;" horiz-adv-x="232" 
d="M190 -37q0 -86 -38.5 -128.5t-127.5 -42.5q-34 0 -73 6v112q12 -2 22.5 -3.5t18.5 -1.5q37 0 48.5 16t11.5 42v549h137zM116 601l-116 -55v114l116 54l116 -54v-114z" />
    <glyph glyph-name="uni0136" unicode="&#x136;" horiz-adv-x="590" 
d="M440 0l-229 289v-289h-142v640h142v-269l213 269h192l-282 -305l297 -335h-191zM367 -245h-75v84q-29 4 -47 17t-18 48q0 40 22.5 53t57.5 13q41 0 62 -17t16 -57z" />
    <glyph glyph-name="uni0137" unicode="&#x137;" horiz-adv-x="549" 
d="M365 0l-173 215v-215h-137v707h137v-382l159 187h185l-237 -242l250 -270h-184zM333 -245h-75v84q-29 4 -47 17t-18 48q0 40 22.5 53t57.5 13q41 0 62 -17t16 -57z" />
    <glyph glyph-name="kgreenlandic" unicode="&#x138;" horiz-adv-x="549" 
d="M365 0l-173 215v-215h-137v512h137v-187l159 187h185l-237 -242l250 -270h-184z" />
    <glyph glyph-name="Lacute" unicode="&#x139;" horiz-adv-x="451" 
d="M31 675v114l225 63v-113zM71 0v640h144l-1 -522h217v-118h-360z" />
    <glyph glyph-name="lacute" unicode="&#x13a;" horiz-adv-x="247" 
d="M5 734v113l237 57v-114zM55 0v707h137v-707h-137z" />
    <glyph glyph-name="uni013B" unicode="&#x13b;" horiz-adv-x="451" 
d="M71 0v640h144l-1 -522h217v-118h-360zM307 -245h-75v84q-29 4 -47 17t-18 48q0 40 22.5 53t57.5 13q41 0 62 -17t16 -57z" />
    <glyph glyph-name="uni013C" unicode="&#x13c;" horiz-adv-x="247" 
d="M55 0v707h137v-707h-137zM183 -245h-75v84q-29 4 -47 17t-18 48q0 40 22.5 53t57.5 13q41 0 62 -17t16 -57z" />
    <glyph glyph-name="Lcaron" unicode="&#x13d;" horiz-adv-x="451" 
d="M71 0v640h144l-1 -522h217v-118h-360zM394 376h-81v132q-32 2 -50.5 17t-18.5 53q0 43 24.5 56.5t62.5 13.5q45 0 67 -16.5t16 -62.5z" />
    <glyph glyph-name="lcaron" unicode="&#x13e;" horiz-adv-x="417" 
d="M55 0v707h137v-707h-137zM385 376h-81v132q-32 2 -50.5 17t-18.5 53q0 43 24.5 56.5t62.5 13.5q45 0 67 -16.5t16 -62.5z" />
    <glyph glyph-name="Ldot" unicode="&#x13f;" horiz-adv-x="451" 
d="M71 0v640h144l-1 -522h217v-118h-360zM444 322q0 -45 -24 -60t-66 -15q-44 0 -68.5 15t-24.5 60q0 46 24.5 60.5t68.5 14.5q41 0 65.5 -14.5t24.5 -60.5z" />
    <glyph glyph-name="ldot" unicode="&#x140;" horiz-adv-x="432" 
d="M55 0v707h137v-707h-137zM422 322q0 -45 -24 -60t-66 -15q-44 0 -68.5 15t-24.5 60q0 46 24.5 60.5t68.5 14.5q41 0 65.5 -14.5t24.5 -60.5z" />
    <glyph glyph-name="Lslash" unicode="&#x141;" horiz-adv-x="461" 
d="M81 0v193l-71 -32v113l71 32v334h144l-1 -272l159 68v-113l-159 -67v-138h217v-118h-360z" />
    <glyph glyph-name="lslash" unicode="&#x142;" horiz-adv-x="313" 
d="M88 0v163l-68 -27v103l68 26v442h137v-392l68 23v-103l-68 -23v-212h-137z" />
    <glyph glyph-name="Nacute" unicode="&#x143;" horiz-adv-x="732" 
d="M486 0l-271 445v-445h-144v640h185l265 -443v443h143v-640h-178zM132 675v114l467 81v-114z" />
    <glyph glyph-name="nacute" unicode="&#x144;" 
d="M397 0v290q0 27 -3.5 48.5t-14.5 36.5t-30.5 22.5t-51.5 7.5t-52.5 -8t-32 -23t-16 -37t-4.5 -50v-287h-137v512h57l32 -80q13 20 29 36t38.5 27.5t53 18t72.5 6.5q61 0 99 -17.5t60 -49.5t30 -76t8 -98v-279h-137zM55 546v114l467 81v-114z" />
    <glyph glyph-name="uni0145" unicode="&#x145;" horiz-adv-x="732" 
d="M486 0l-271 445v-445h-144v640h185l265 -443v443h143v-640h-178zM426 -245h-75v84q-29 4 -47 17t-18 48q0 40 22.5 53t57.5 13q41 0 62 -17t16 -57z" />
    <glyph glyph-name="uni0146" unicode="&#x146;" 
d="M397 0v290q0 27 -3.5 48.5t-14.5 36.5t-30.5 22.5t-51.5 7.5t-52.5 -8t-32 -23t-16 -37t-4.5 -50v-287h-137v512h57l32 -80q13 20 29 36t38.5 27.5t53 18t72.5 6.5q61 0 99 -17.5t60 -49.5t30 -76t8 -98v-279h-137zM348 -245h-75v84q-29 4 -47 17t-18 48q0 40 22.5 53
t57.5 13q41 0 62 -17t16 -57z" />
    <glyph glyph-name="Ncaron" unicode="&#x147;" horiz-adv-x="732" 
d="M486 0l-271 445v-445h-144v640h185l265 -443v443h143v-640h-178zM599 854v-114l-234 -66l-231 66v114l231 -68z" />
    <glyph glyph-name="ncaron" unicode="&#x148;" 
d="M397 0v290q0 27 -3.5 48.5t-14.5 36.5t-30.5 22.5t-51.5 7.5t-52.5 -8t-32 -23t-16 -37t-4.5 -50v-287h-137v512h57l32 -80q13 20 29 36t38.5 27.5t53 18t72.5 6.5q61 0 99 -17.5t60 -49.5t30 -76t8 -98v-279h-137zM533 725v-114l-234 -66l-231 66v114l231 -68z" />
    <glyph glyph-name="Eng" unicode="&#x14a;" horiz-adv-x="732" 
d="M664 -15q0 -50 -8.5 -86t-30 -60t-59 -35.5t-95.5 -11.5q-20 0 -41.5 1t-45.5 4v114q16 -3 29 -4t24 -1q40 0 57.5 12.5t22.5 32.5l-302 494v-445h-144v640h185l265 -441v441h143v-655z" />
    <glyph glyph-name="eng" unicode="&#x14b;" 
d="M534 -37q0 -86 -38.5 -128.5t-128.5 -42.5q-33 0 -72 6v112q12 -2 22.5 -3.5t18.5 -1.5q37 0 49 16t12 42v325q0 27 -3.5 49t-14.5 37t-30.5 23t-51.5 8t-52.5 -8t-32 -23t-16 -36.5t-4.5 -49.5v-288h-137v512h57l32 -79q13 20 29 36t38.5 27.5t53 17.5t72.5 6
q61 0 99 -16t60 -46t30 -72.5t8 -95.5v-327z" />
    <glyph glyph-name="Omacron" unicode="&#x14c;" horiz-adv-x="711" 
d="M662 319q0 -65 -12.5 -124.5t-46.5 -104.5t-94 -71.5t-154 -26.5t-153.5 26.5t-93.5 71.5t-46.5 104.5t-12.5 125.5t12.5 125.5t46.5 104.5t93.5 71.5t153.5 26.5t154 -26.5t94 -72t46.5 -105t12.5 -125.5zM517 319q0 44 -5.5 82.5t-23 67t-49.5 45t-84 16.5t-83.5 -16.5
t-49 -45t-23 -66.5t-5.5 -82t5.5 -82.5t23 -67t49 -44.5t83.5 -16t84 16t49.5 44.5t23 66.5t5.5 82zM134 694v114h440v-114h-440z" />
    <glyph glyph-name="omacron" unicode="&#x14d;" horiz-adv-x="567" 
d="M539 257q0 -52 -12 -100t-41.5 -84.5t-79 -58.5t-124.5 -22q-74 0 -123 22.5t-78 59t-40.5 84.5t-11.5 99t12 98t41 84t78 59t124 22q74 0 123 -22t78.5 -59t41.5 -84t12 -98zM404 257q0 30 -5.5 57t-19 47t-36.5 31.5t-59 11.5q-35 0 -58.5 -11t-37 -31t-19 -47
t-5.5 -58q0 -32 5.5 -59t19 -47t36 -31t57.5 -11t58.5 11t37.5 30.5t20 47t6 59.5zM63 565v114h440v-114h-440z" />
    <glyph glyph-name="Obreve" unicode="&#x14e;" horiz-adv-x="711" 
d="M662 319q0 -65 -12.5 -124.5t-46.5 -104.5t-94 -71.5t-154 -26.5t-153.5 26.5t-93.5 71.5t-46.5 104.5t-12.5 125.5t12.5 125.5t46.5 104.5t93.5 71.5t153.5 26.5t154 -26.5t94 -72t46.5 -105t12.5 -125.5zM517 319q0 44 -5.5 82.5t-23 67t-49.5 45t-84 16.5t-83.5 -16.5
t-49 -45t-23 -66.5t-5.5 -82t5.5 -82.5t23 -67t49 -44.5t83.5 -16t84 16t49.5 44.5t23 66.5t5.5 82zM559 833q0 -50 -12 -80t-32.5 -46t-46.5 -21t-54 -5h-126q-30 0 -55 7t-43 24t-28.5 46.5t-10.5 74.5h123q0 -15 7.5 -27.5t30.5 -12.5h84q23 0 30.5 12.5t7.5 27.5h125z
" />
    <glyph glyph-name="obreve" unicode="&#x14f;" horiz-adv-x="567" 
d="M539 257q0 -52 -12 -100t-41.5 -84.5t-79 -58.5t-124.5 -22q-74 0 -123 22.5t-78 59t-40.5 84.5t-11.5 99t12 98t41 84t78 59t124 22q74 0 123 -22t78.5 -59t41.5 -84t12 -98zM404 257q0 30 -5.5 57t-19 47t-36.5 31.5t-59 11.5q-35 0 -58.5 -11t-37 -31t-19 -47
t-5.5 -58q0 -32 5.5 -59t19 -47t36 -31t57.5 -11t58.5 11t37.5 30.5t20 47t6 59.5zM487 704q0 -50 -12 -80t-32.5 -46t-46.5 -21t-54 -5h-126q-30 0 -55 7t-43 24t-28.5 46.5t-10.5 74.5h123q0 -15 7.5 -27.5t30.5 -12.5h84q23 0 30.5 12.5t7.5 27.5h125z" />
    <glyph glyph-name="Ohungarumlaut" unicode="&#x150;" horiz-adv-x="711" 
d="M662 319q0 -65 -12.5 -124.5t-46.5 -104.5t-94 -71.5t-154 -26.5t-153.5 26.5t-93.5 71.5t-46.5 104.5t-12.5 125.5t12.5 125.5t46.5 104.5t93.5 71.5t153.5 26.5t154 -26.5t94 -72t46.5 -105t12.5 -125.5zM517 319q0 44 -5.5 82.5t-23 67t-49.5 45t-84 16.5t-83.5 -16.5
t-49 -45t-23 -66.5t-5.5 -82t5.5 -82.5t23 -67t49 -44.5t83.5 -16t84 16t49.5 44.5t23 66.5t5.5 82zM383 675v118l197 53v-116zM130 675v118l198 53v-116z" />
    <glyph glyph-name="ohungarumlaut" unicode="&#x151;" horiz-adv-x="567" 
d="M539 257q0 -52 -12 -100t-41.5 -84.5t-79 -58.5t-124.5 -22q-74 0 -123 22.5t-78 59t-40.5 84.5t-11.5 99t12 98t41 84t78 59t124 22q74 0 123 -22t78.5 -59t41.5 -84t12 -98zM404 257q0 30 -5.5 57t-19 47t-36.5 31.5t-59 11.5q-35 0 -58.5 -11t-37 -31t-19 -47
t-5.5 -58q0 -32 5.5 -59t19 -47t36 -31t57.5 -11t58.5 11t37.5 30.5t20 47t6 59.5zM311 546v118l197 53v-116zM58 546v118l198 53v-116z" />
    <glyph glyph-name="OE" unicode="&#x152;" horiz-adv-x="1021" 
d="M526 0l1 47q-32 -25 -73.5 -40t-94.5 -15q-95 0 -155 26.5t-94.5 71.5t-47.5 104.5t-13 125.5t13 125.5t47.5 104.5t94.5 71.5t155 26.5q53 0 94.5 -15.5t73.5 -40.5l-1 48h454v-120h-311v-135h280v-119h-280v-145h311v-121h-454zM526 319q0 44 -8.5 81.5t-28 65
t-51.5 43t-79 15.5t-78.5 -15.5t-51.5 -42.5t-28.5 -64.5t-8.5 -81.5t8.5 -81.5t28.5 -64.5t51.5 -42.5t78.5 -15.5t79 15.5t51.5 42.5t28 64t8.5 81z" />
    <glyph glyph-name="oe" unicode="&#x153;" horiz-adv-x="934" 
d="M904 155q-4 -32 -18.5 -61.5t-43.5 -52t-73.5 -36t-108.5 -13.5q-77 0 -122.5 22.5t-70.5 57.5q-24 -35 -68 -57.5t-117 -22.5q-74 0 -123 22t-78 58.5t-40.5 84t-11.5 98.5t12 98.5t41 84t78 59t124 22.5q72 0 115.5 -22t67.5 -58q24 37 69 59t123 22q75 0 124.5 -27
t77.5 -71.5t36.5 -101.5t2.5 -118h-364q5 -55 39 -78.5t80 -23.5q48 0 71 16t31 39h147zM757 309q0 21 -7 39.5t-20.5 33t-34.5 23t-49 8.5q-53 0 -80 -30.5t-30 -75.5h221v2zM404 255q0 30 -5.5 57t-19 47.5t-36.5 32t-59 11.5q-35 0 -58.5 -11.5t-37 -31t-19 -47
t-5.5 -58.5q0 -32 5.5 -58.5t19 -46t36 -30.5t57.5 -11t58.5 10.5t37.5 30t20 46.5t6 59z" />
    <glyph glyph-name="Racute" unicode="&#x154;" horiz-adv-x="619" 
d="M420 0l-209 255v-255h-142v640h235q91 0 145 -20.5t82 -52t36 -68t8 -67.5q0 -29 -6.5 -61t-26.5 -60.5t-57 -49t-98 -24.5l222 -237h-189zM430 430q0 16 -4.5 32t-18 29.5t-37 22t-60.5 8.5h-99v-180h99q37 0 60.5 8t37 20.5t18 28.5t4.5 31zM75 675v114l467 81v-114z
" />
    <glyph glyph-name="racute" unicode="&#x155;" horiz-adv-x="339" 
d="M42 546v114l299 69v-114zM331 395q-45 5 -72 -3.5t-42 -26.5t-20 -42.5t-5 -51.5v-271h-137v512h57l32 -81q13 19 29.5 36.5t39 30t51.5 18.5t67 2v-123z" />
    <glyph glyph-name="uni0156" unicode="&#x156;" horiz-adv-x="619" 
d="M420 0l-209 255v-255h-142v640h235q91 0 145 -20.5t82 -52t36 -68t8 -67.5q0 -29 -6.5 -61t-26.5 -60.5t-57 -49t-98 -24.5l222 -237h-189zM430 430q0 16 -4.5 32t-18 29.5t-37 22t-60.5 8.5h-99v-180h99q37 0 60.5 8t37 20.5t18 28.5t4.5 31zM368 -245h-75v84
q-29 4 -47 17t-18 48q0 40 22.5 53t57.5 13q41 0 62 -17t16 -57z" />
    <glyph glyph-name="uni0157" unicode="&#x157;" horiz-adv-x="339" 
d="M331 395q-45 5 -72 -3.5t-42 -26.5t-20 -42.5t-5 -51.5v-271h-137v512h57l32 -81q13 19 29.5 36.5t39 30t51.5 18.5t67 2v-123zM185 -245h-75v84q-29 4 -47 17t-18 48q0 40 22.5 53t57.5 13q41 0 62 -17t16 -57z" />
    <glyph glyph-name="Rcaron" unicode="&#x158;" horiz-adv-x="619" 
d="M420 0l-209 255v-255h-142v640h235q91 0 145 -20.5t82 -52t36 -68t8 -67.5q0 -29 -6.5 -61t-26.5 -60.5t-57 -49t-98 -24.5l222 -237h-189zM430 430q0 16 -4.5 32t-18 29.5t-37 22t-60.5 8.5h-99v-180h99q37 0 60.5 8t37 20.5t18 28.5t4.5 31zM541 854v-114l-234 -66
l-231 66v114l231 -68z" />
    <glyph glyph-name="rcaron" unicode="&#x159;" horiz-adv-x="339" 
d="M189 551l-147 54v114l147 -55l145 55v-114zM331 395q-45 5 -72 -3.5t-42 -26.5t-20 -42.5t-5 -51.5v-271h-137v512h57l32 -81q13 19 29.5 36.5t39 30t51.5 18.5t67 2v-123z" />
    <glyph glyph-name="Sacute" unicode="&#x15a;" horiz-adv-x="659" 
d="M604 191q0 -35 -12.5 -70.5t-42.5 -64t-79.5 -46.5t-124.5 -18q-79 0 -134 16t-89.5 46.5t-50.5 74.5t-16 100h142q1 -25 9 -46.5t25 -37.5t44 -25t66 -9q67 0 94 19t30 49q3 26 -12.5 41.5t-42.5 26t-62.5 17t-73 14.5t-74 19t-65.5 29.5t-47 47t-19 71.5q-1 42 11.5 79
t43 64.5t81 43.5t125.5 16t126 -17.5t81.5 -47.5t44 -71.5t14.5 -89.5h-141q-3 24 -9.5 44t-21 33.5t-38.5 21t-61 7.5q-35 0 -58 -5.5t-36 -15.5t-18 -24t-3 -31q2 -19 19.5 -30.5t45.5 -19t63.5 -13.5t72 -14.5t71.5 -21t62 -33.5t43.5 -52t16.5 -77zM95 675v114l467 81
v-114z" />
    <glyph glyph-name="sacute" unicode="&#x15b;" horiz-adv-x="536" 
d="M509 156q0 -30 -12.5 -59t-40.5 -52.5t-71.5 -38t-105.5 -14.5q-132 0 -192 50t-60 148h135q0 -40 26.5 -66t87.5 -26q28 0 46.5 5.5t30 13t16.5 16.5t5 17q0 21 -25 31.5t-62 18t-80.5 15.5t-81 23.5t-63 42.5t-26.5 72q0 35 12.5 65.5t40 53t71.5 35.5t106 13
q64 0 107.5 -14t70.5 -38.5t38.5 -59.5t11.5 -77h-128q-4 40 -25 62.5t-79 22.5q-51 0 -70.5 -17.5t-19.5 -36.5q0 -18 25 -27t62.5 -15.5t81 -15t81 -25t62.5 -46t25 -77.5zM35 546v114l467 81v-114z" />
    <glyph glyph-name="Scircumflex" unicode="&#x15c;" horiz-adv-x="659" 
d="M604 191q0 -35 -12.5 -70.5t-42.5 -64t-79.5 -46.5t-124.5 -18q-79 0 -134 16t-89.5 46.5t-50.5 74.5t-16 100h142q1 -25 9 -46.5t25 -37.5t44 -25t66 -9q67 0 94 19t30 49q3 26 -12.5 41.5t-42.5 26t-62.5 17t-73 14.5t-74 19t-65.5 29.5t-47 47t-19 71.5q-1 42 11.5 79
t43 64.5t81 43.5t125.5 16t126 -17.5t81.5 -47.5t44 -71.5t14.5 -89.5h-141q-3 24 -9.5 44t-21 33.5t-38.5 21t-61 7.5q-35 0 -58 -5.5t-36 -15.5t-18 -24t-3 -31q2 -19 19.5 -30.5t45.5 -19t63.5 -13.5t72 -14.5t71.5 -21t62 -33.5t43.5 -52t16.5 -77zM327 741l-231 -67
v114l231 66l234 -66v-114z" />
    <glyph glyph-name="scircumflex" unicode="&#x15d;" horiz-adv-x="536" 
d="M509 156q0 -30 -12.5 -59t-40.5 -52.5t-71.5 -38t-105.5 -14.5q-132 0 -192 50t-60 148h135q0 -40 26.5 -66t87.5 -26q28 0 46.5 5.5t30 13t16.5 16.5t5 17q0 21 -25 31.5t-62 18t-80.5 15.5t-81 23.5t-63 42.5t-26.5 72q0 35 12.5 65.5t40 53t71.5 35.5t106 13
q64 0 107.5 -14t70.5 -38.5t38.5 -59.5t11.5 -77h-128q-4 40 -25 62.5t-79 22.5q-51 0 -70.5 -17.5t-19.5 -36.5q0 -18 25 -27t62.5 -15.5t81 -15t81 -25t62.5 -46t25 -77.5zM267 612l-231 -67v114l231 66l234 -66v-114z" />
    <glyph glyph-name="Scedilla" unicode="&#x15e;" horiz-adv-x="659" 
d="M604 191q0 -31 -9.5 -62t-31.5 -58t-58.5 -47t-89.5 -28q-1 -47 -14 -75.5t-33 -44t-46 -20.5t-53 -5h-167v111h149q18 0 27 9.5t11 22.5q-63 5 -107.5 23t-72.5 48t-41 71.5t-13 92.5h142q1 -25 9 -47t25 -38t44 -25t66 -9q67 0 94 19.5t30 49.5q3 26 -12.5 41.5
t-42.5 26t-62.5 17t-73 14.5t-74 19t-65.5 29.5t-47 47t-19 71.5q-1 42 11.5 79t43 64.5t81 43.5t125.5 16t126 -17.5t81.5 -47.5t44 -71.5t14.5 -89.5h-141q-3 24 -9.5 44t-21 33.5t-38.5 21t-61 7.5q-35 0 -58 -5.5t-36 -15.5t-18 -24t-3 -31q2 -19 19.5 -30.5t45.5 -19
t63.5 -13.5t72 -14.5t71.5 -21t62 -33.5t43.5 -52t16.5 -77z" />
    <glyph glyph-name="scedilla" unicode="&#x15f;" horiz-adv-x="536" 
d="M509 155q0 -26 -9.5 -51.5t-30 -47t-52 -37.5t-76.5 -23q-1 -47 -13.5 -75.5t-32.5 -44t-46 -20.5t-54 -5h-126v111h108q19 0 27.5 9.5t10.5 23.5q-99 11 -143.5 59.5t-44.5 134.5h135q0 -40 26.5 -66t87.5 -26q28 0 46.5 5.5t30 13t16.5 16.5t5 17q0 21 -25 31.5
t-62 18.5t-80.5 16t-81 23.5t-63 42.5t-26.5 72q0 35 12.5 65.5t40 53t71.5 35.5t106 13q64 0 107.5 -14t70.5 -38.5t38.5 -59.5t11.5 -77h-128q-4 40 -25 62.5t-79 22.5q-51 0 -70.5 -17.5t-19.5 -36.5q0 -18 25 -27t62.5 -16t81 -15t81 -25t62.5 -46.5t25 -77.5z" />
    <glyph glyph-name="Scaron" unicode="&#x160;" horiz-adv-x="659" 
d="M604 191q0 -35 -12.5 -70.5t-42.5 -64t-79.5 -46.5t-124.5 -18q-79 0 -134 16t-89.5 46.5t-50.5 74.5t-16 100h142q1 -25 9 -46.5t25 -37.5t44 -25t66 -9q67 0 94 19t30 49q3 26 -12.5 41.5t-42.5 26t-62.5 17t-73 14.5t-74 19t-65.5 29.5t-47 47t-19 71.5q-1 42 11.5 79
t43 64.5t81 43.5t125.5 16t126 -17.5t81.5 -47.5t44 -71.5t14.5 -89.5h-141q-3 24 -9.5 44t-21 33.5t-38.5 21t-61 7.5q-35 0 -58 -5.5t-36 -15.5t-18 -24t-3 -31q2 -19 19.5 -30.5t45.5 -19t63.5 -13.5t72 -14.5t71.5 -21t62 -33.5t43.5 -52t16.5 -77zM561 854v-114
l-234 -66l-231 66v114l231 -68z" />
    <glyph glyph-name="scaron" unicode="&#x161;" horiz-adv-x="536" 
d="M509 156q0 -30 -12.5 -59t-40.5 -52.5t-71.5 -38t-105.5 -14.5q-132 0 -192 50t-60 148h135q0 -40 26.5 -66t87.5 -26q28 0 46.5 5.5t30 13t16.5 16.5t5 17q0 21 -25 31.5t-62 18t-80.5 15.5t-81 23.5t-63 42.5t-26.5 72q0 35 12.5 65.5t40 53t71.5 35.5t106 13
q64 0 107.5 -14t70.5 -38.5t38.5 -59.5t11.5 -77h-128q-4 40 -25 62.5t-79 22.5q-51 0 -70.5 -17.5t-19.5 -36.5q0 -18 25 -27t62.5 -15.5t81 -15t81 -25t62.5 -46t25 -77.5zM501 725v-114l-234 -66l-231 66v114l231 -68z" />
    <glyph glyph-name="Tcaron" unicode="&#x164;" horiz-adv-x="502" 
d="M321 522v-522h-140v522h-166v118h474v-118h-168zM484 854v-114l-234 -66l-231 66v114l231 -68z" />
    <glyph glyph-name="tcaron" unicode="&#x165;" horiz-adv-x="381" 
d="M372 552h-81v107q-32 2 -50.5 17t-18.5 53q0 43 24.5 56.5t62.5 13.5q45 0 67 -16.5t16 -62.5zM362 -5q-68 -6 -118.5 -1.5t-83.5 24t-49.5 56.5t-16.5 96v230h-75v68l75 42v130h136v-128h132v-112h-128v-229q0 -43 28 -56t100 -8v-112z" />
    <glyph glyph-name="Tbar" unicode="&#x166;" horiz-adv-x="502" 
d="M321 240v-240h-140v240h-82v114h82v168h-166v118h474v-118h-168v-168h85v-114h-85z" />
    <glyph glyph-name="tbar" unicode="&#x167;" horiz-adv-x="381" 
d="M234 209v-38q0 -43 28 -56t100 -8v-112q-68 -6 -118.5 -1.5t-83.5 24t-49.5 56.5t-16.5 96v39h-75v101h75v89h-75v68l75 42v131h136v-129h132v-112h-128v-89h128v-101h-128z" />
    <glyph glyph-name="Utilde" unicode="&#x168;" horiz-adv-x="670" 
d="M612 285q0 -78 -15.5 -133.5t-48.5 -91t-85.5 -52t-127.5 -16.5q-74 0 -127 16.5t-86.5 52t-49 91t-15.5 133.5v355h145v-349q0 -40 4.5 -72.5t18.5 -55t40 -34.5t70 -12t70.5 12t40.5 34.5t18.5 55t4.5 72.5v349h143v-355zM410 798q31 0 40.5 13t9.5 38h121v-11
q0 -5 0.5 -10.5t0.5 -9.5q0 -26 -7 -50t-23 -43t-43.5 -30.5t-69.5 -11.5q-30 0 -53.5 8t-44 18t-39 18t-38.5 8q-32 0 -41 -13.5t-9 -37.5h-122q-1 6 -1 11v20q0 25 7 49.5t23 43.5t44 30.5t70 11.5q30 0 53.5 -8t43.5 -18t39 -18t39 -8z" />
    <glyph glyph-name="utilde" unicode="&#x169;" 
d="M465 0l-31 79q-13 -20 -29.5 -36t-39 -27.5t-53.5 -17.5t-73 -6q-60 0 -98 18t-59.5 50t-29.5 76.5t-8 98.5v277h136v-288q0 -27 3.5 -49t14 -37t30 -23t51.5 -8t52.5 8t32.5 23t16.5 36.5t4.5 49.5v288h137v-512h-57zM362 669q31 0 40.5 13t9.5 38h121v-11
q0 -5 0.5 -10.5t0.5 -9.5q0 -26 -7 -50t-23 -43t-43.5 -30.5t-69.5 -11.5q-30 0 -53.5 8t-44 18t-39 18t-38.5 8q-32 0 -41 -13.5t-9 -37.5h-122q-1 6 -1 11v20q0 25 7 49.5t23 43.5t44 30.5t70 11.5q30 0 53.5 -8t43.5 -18t39 -18t39 -8z" />
    <glyph glyph-name="Umacron" unicode="&#x16a;" horiz-adv-x="670" 
d="M612 285q0 -78 -15.5 -133.5t-48.5 -91t-85.5 -52t-127.5 -16.5q-74 0 -127 16.5t-86.5 52t-49 91t-15.5 133.5v355h145v-349q0 -40 4.5 -72.5t18.5 -55t40 -34.5t70 -12t70.5 12t40.5 34.5t18.5 55t4.5 72.5v349h143v-355zM114 694v114h440v-114h-440z" />
    <glyph glyph-name="umacron" unicode="&#x16b;" 
d="M465 0l-31 79q-13 -20 -29.5 -36t-39 -27.5t-53.5 -17.5t-73 -6q-60 0 -98 18t-59.5 50t-29.5 76.5t-8 98.5v277h136v-288q0 -27 3.5 -49t14 -37t30 -23t51.5 -8t52.5 8t32.5 23t16.5 36.5t4.5 49.5v288h137v-512h-57zM62 565v114h440v-114h-440z" />
    <glyph glyph-name="Ubreve" unicode="&#x16c;" horiz-adv-x="670" 
d="M612 285q0 -78 -15.5 -133.5t-48.5 -91t-85.5 -52t-127.5 -16.5q-74 0 -127 16.5t-86.5 52t-49 91t-15.5 133.5v355h145v-349q0 -40 4.5 -72.5t18.5 -55t40 -34.5t70 -12t70.5 12t40.5 34.5t18.5 55t4.5 72.5v349h143v-355zM538 833q0 -50 -12 -80t-32.5 -46t-46.5 -21
t-54 -5h-126q-30 0 -55 7t-43 24t-28.5 46.5t-10.5 74.5h123q0 -15 7.5 -27.5t30.5 -12.5h84q23 0 30.5 12.5t7.5 27.5h125z" />
    <glyph glyph-name="ubreve" unicode="&#x16d;" 
d="M465 0l-31 79q-13 -20 -29.5 -36t-39 -27.5t-53.5 -17.5t-73 -6q-60 0 -98 18t-59.5 50t-29.5 76.5t-8 98.5v277h136v-288q0 -27 3.5 -49t14 -37t30 -23t51.5 -8t52.5 8t32.5 23t16.5 36.5t4.5 49.5v288h137v-512h-57zM487 704q0 -50 -12 -80t-32.5 -46t-46.5 -21t-54 -5
h-126q-30 0 -55 7t-43 24t-28.5 46.5t-10.5 74.5h123q0 -15 7.5 -27.5t30.5 -12.5h84q23 0 30.5 12.5t7.5 27.5h125z" />
    <glyph glyph-name="Uring" unicode="&#x16e;" horiz-adv-x="670" 
d="M612 285q0 -78 -15.5 -133.5t-48.5 -91t-85.5 -52t-127.5 -16.5q-74 0 -127 16.5t-86.5 52t-49 91t-15.5 133.5v355h145v-349q0 -40 4.5 -72.5t18.5 -55t40 -34.5t70 -12t70.5 12t40.5 34.5t18.5 55t4.5 72.5v349h143v-355zM336 918q87 0 122.5 -30.5t35.5 -91.5
t-35.5 -91t-122.5 -30q-88 0 -123.5 30t-35.5 91q0 62 35.5 92t123.5 30zM336 765q58 0 58 31q0 32 -58 32q-59 0 -59 -32q0 -31 59 -31z" />
    <glyph glyph-name="uring" unicode="&#x16f;" 
d="M465 0l-31 79q-13 -20 -29.5 -36t-39 -27.5t-53.5 -17.5t-73 -6q-60 0 -98 18t-59.5 50t-29.5 76.5t-8 98.5v277h136v-288q0 -27 3.5 -49t14 -37t30 -23t51.5 -8t52.5 8t32.5 23t16.5 36.5t4.5 49.5v288h137v-512h-57zM284 789q87 0 122.5 -30.5t35.5 -91.5t-35.5 -91
t-122.5 -30q-88 0 -123.5 30t-35.5 91q0 62 35.5 92t123.5 30zM284 636q58 0 58 31q0 32 -58 32q-59 0 -59 -32q0 -31 59 -31z" />
    <glyph glyph-name="Uhungarumlaut" unicode="&#x170;" horiz-adv-x="670" 
d="M612 285q0 -78 -15.5 -133.5t-48.5 -91t-85.5 -52t-127.5 -16.5q-74 0 -127 16.5t-86.5 52t-49 91t-15.5 133.5v355h145v-349q0 -40 4.5 -72.5t18.5 -55t40 -34.5t70 -12t70.5 12t40.5 34.5t18.5 55t4.5 72.5v349h143v-355zM363 675v118l197 53v-116zM110 675v118l198 53
v-116z" />
    <glyph glyph-name="uhungarumlaut" unicode="&#x171;" 
d="M465 0l-31 79q-13 -20 -29.5 -36t-39 -27.5t-53.5 -17.5t-73 -6q-60 0 -98 18t-59.5 50t-29.5 76.5t-8 98.5v277h136v-288q0 -27 3.5 -49t14 -37t30 -23t51.5 -8t52.5 8t32.5 23t16.5 36.5t4.5 49.5v288h137v-512h-57zM316 546v118l197 53v-116zM63 546v118l198 53v-116z
" />
    <glyph glyph-name="Uogonek" unicode="&#x172;" horiz-adv-x="670" 
d="M341 -208q-52 0 -73 19.5t-21 54.5q0 33 15.5 67.5t43.5 58.5q-65 3 -112 21t-77.5 53.5t-45 89.5t-14.5 129v355h145v-349q0 -40 4.5 -72.5t18.5 -55t40 -34.5t70 -12t70.5 12t40.5 34.5t18.5 55t4.5 72.5v349h143v-355q0 -135 -48 -204t-155 -84q-21 -17 -32 -40.5
t-11 -40.5q0 -14 9 -23t37 -9v-92h-71z" />
    <glyph glyph-name="uogonek" unicode="&#x173;" 
d="M450 -208q-51 0 -72 21.5t-21 56.5q0 36 22 74t76 82l-21 53q-13 -20 -29.5 -36t-39 -27.5t-53.5 -17.5t-73 -6q-60 0 -98 18t-59.5 50t-29.5 76.5t-8 98.5v277h136v-288q0 -27 3.5 -49t14 -37t30 -23t51.5 -8t52.5 8t32.5 23t16.5 36.5t4.5 49.5v288h137v-512
q-22 -19 -34.5 -40.5t-12.5 -40.5q0 -14 9 -23t38 -9v-95h-72z" />
    <glyph glyph-name="Wcircumflex" unicode="&#x174;" horiz-adv-x="997" 
d="M805 0h-171l-135 467l-135 -467h-172l-186 640h153l121 -469l139 469h167l136 -469l124 469h145zM497 741l-231 -67v114l231 66l234 -66v-114z" />
    <glyph glyph-name="wcircumflex" unicode="&#x175;" horiz-adv-x="826" 
d="M670 0h-161l-102 353l-102 -353h-153l-138 512h150l72 -366l103 366h136l110 -367l79 367h148zM411 612l-231 -67v114l231 66l234 -66v-114z" />
    <glyph glyph-name="Ycircumflex" unicode="&#x176;" horiz-adv-x="622" 
d="M379 194v-194h-148v194l-231 446h150l157 -324l165 324h150zM310 741l-231 -67v114l231 66l234 -66v-114z" />
    <glyph glyph-name="ycircumflex" unicode="&#x177;" horiz-adv-x="582" 
d="M527 -8q0 -37 -9 -73t-35 -64t-73.5 -45.5t-124.5 -17.5q-72 0 -119 13t-74 36.5t-37.5 55t-10.5 69.5h137q1 -15 4.5 -27.5t14 -21.5t31 -14.5t55.5 -5.5q33 0 53.5 6t32 17t15 26.5t3.5 34.5v73q-18 -24 -51 -43t-93 -19t-98.5 16.5t-60.5 46.5t-30 73.5t-8 97.5v286
h136v-298q0 -27 3.5 -47.5t14.5 -34t31 -20t52 -6.5t52 7.5t31.5 22t16 36t4.5 49.5v291h137v-520zM290 612l-231 -67v114l231 66l234 -66v-114z" />
    <glyph glyph-name="Ydieresis" unicode="&#x178;" horiz-adv-x="622" 
d="M379 194v-194h-148v194l-231 446h150l157 -324l165 324h150zM509 750q0 -41 -22 -55t-61 -14q-40 0 -61.5 14t-21.5 55q0 42 21.5 55.5t61.5 13.5q39 0 61 -13.5t22 -55.5zM280 750q0 -41 -22.5 -55t-59.5 -14q-41 0 -62.5 14t-21.5 55q0 42 21.5 55.5t62.5 13.5
q38 0 60 -13.5t22 -55.5z" />
    <glyph glyph-name="Zacute" unicode="&#x179;" horiz-adv-x="580" 
d="M41 0v142l328 380h-328v118h484v-135l-339 -387h353v-118h-498zM56 675v114l467 81v-114z" />
    <glyph glyph-name="zacute" unicode="&#x17a;" horiz-adv-x="519" 
d="M41 0v118l263 283h-263v111h425v-117l-270 -284h281v-111h-436zM26 546v114l467 81v-114z" />
    <glyph glyph-name="Zdotaccent" unicode="&#x17b;" horiz-adv-x="580" 
d="M41 0v142l328 380h-328v118h484v-135l-339 -387h353v-118h-498zM376 750q0 -42 -24 -56t-62 -14q-40 0 -64 14t-24 56q0 43 24.5 57t63.5 14q38 0 62 -14t24 -57z" />
    <glyph glyph-name="zdotaccent" unicode="&#x17c;" horiz-adv-x="519" 
d="M41 0v118l263 283h-263v111h425v-117l-270 -284h281v-111h-436zM346 621q0 -42 -24 -56t-62 -14q-40 0 -64 14t-24 56q0 43 24.5 57t63.5 14q38 0 62 -14t24 -57z" />
    <glyph glyph-name="Zcaron" unicode="&#x17d;" horiz-adv-x="580" 
d="M41 0v142l328 380h-328v118h484v-135l-339 -387h353v-118h-498zM522 854v-114l-234 -66l-231 66v114l231 -68z" />
    <glyph glyph-name="zcaron" unicode="&#x17e;" horiz-adv-x="519" 
d="M41 0v118l263 283h-263v111h425v-117l-270 -284h281v-111h-436zM492 725v-114l-234 -66l-231 66v114l231 -68z" />
    <glyph glyph-name="florin" unicode="&#x192;" horiz-adv-x="341" 
d="M217 -26q0 -48 -9 -82.5t-31.5 -56.5t-61.5 -32.5t-100 -10.5h-21.5t-21.5 2v112q9 -1 17 -1h15q47 0 62 9.5t15 26.5v459h-76v80l76 30v50q0 82 47 116.5t154 34.5q10 0 21 -0.5t22 -0.5v-113q-8 0 -16.5 1t-14.5 1q-26 0 -40.5 -5t-21.5 -12.5t-9 -17t-2 -18.5v-34h104
v-112h-108v-426z" />
    <glyph glyph-name="uni0218" unicode="&#x218;" horiz-adv-x="659" 
d="M604 191q0 -35 -12.5 -70.5t-42.5 -64t-79.5 -46.5t-124.5 -18q-79 0 -134 16t-89.5 46.5t-50.5 74.5t-16 100h142q1 -25 9 -46.5t25 -37.5t44 -25t66 -9q67 0 94 19t30 49q3 26 -12.5 41.5t-42.5 26t-62.5 17t-73 14.5t-74 19t-65.5 29.5t-47 47t-19 71.5q-1 42 11.5 79
t43 64.5t81 43.5t125.5 16t126 -17.5t81.5 -47.5t44 -71.5t14.5 -89.5h-141q-3 24 -9.5 44t-21 33.5t-38.5 21t-61 7.5q-35 0 -58 -5.5t-36 -15.5t-18 -24t-3 -31q2 -19 19.5 -30.5t45.5 -19t63.5 -13.5t72 -14.5t71.5 -21t62 -33.5t43.5 -52t16.5 -77zM388 -245h-75v84
q-29 4 -47 17t-18 48q0 40 22.5 53t57.5 13q41 0 62 -17t16 -57z" />
    <glyph glyph-name="uni0219" unicode="&#x219;" horiz-adv-x="536" 
d="M509 156q0 -30 -12.5 -59t-40.5 -52.5t-71.5 -38t-105.5 -14.5q-132 0 -192 50t-60 148h135q0 -40 26.5 -66t87.5 -26q28 0 46.5 5.5t30 13t16.5 16.5t5 17q0 21 -25 31.5t-62 18t-80.5 15.5t-81 23.5t-63 42.5t-26.5 72q0 35 12.5 65.5t40 53t71.5 35.5t106 13
q64 0 107.5 -14t70.5 -38.5t38.5 -59.5t11.5 -77h-128q-4 40 -25 62.5t-79 22.5q-51 0 -70.5 -17.5t-19.5 -36.5q0 -18 25 -27t62.5 -15.5t81 -15t81 -25t62.5 -46t25 -77.5zM327 -245h-75v84q-29 4 -47 17t-18 48q0 40 22.5 53t57.5 13q41 0 62 -17t16 -57z" />
    <glyph glyph-name="uni021A" unicode="&#x21a;" horiz-adv-x="502" 
d="M321 522v-522h-140v522h-166v118h474v-118h-168zM311 -245h-75v84q-29 4 -47 17t-18 48q0 40 22.5 53t57.5 13q41 0 62 -17t16 -57z" />
    <glyph glyph-name="uni021B" unicode="&#x21b;" horiz-adv-x="381" 
d="M362 -5q-68 -6 -118.5 -1.5t-83.5 24t-49.5 56.5t-16.5 96v230h-75v68l75 42v130h136v-128h132v-112h-128v-229q0 -43 28 -56t100 -8v-112zM290 -245h-75v84q-29 4 -47 17t-18 48q0 40 22.5 53t57.5 13q41 0 62 -17t16 -57z" />
    <glyph glyph-name="circumflex" unicode="&#x2c6;" horiz-adv-x="565" 
d="M281 612l-231 -67v114l231 66l234 -66v-114z" />
    <glyph glyph-name="caron" unicode="&#x2c7;" horiz-adv-x="566" 
d="M515 725v-114l-234 -66l-231 66v114l231 -68z" />
    <glyph glyph-name="breve" unicode="&#x2d8;" horiz-adv-x="496" 
d="M452 704q0 -50 -12 -80t-32.5 -46t-46.5 -21t-54 -5h-126q-30 0 -55 7t-43 24t-28.5 46.5t-10.5 74.5h123q0 -15 7.5 -27.5t30.5 -12.5h84q23 0 30.5 12.5t7.5 27.5h125v0z" />
    <glyph glyph-name="dotaccent" unicode="&#x2d9;" horiz-adv-x="260" 
d="M215 621q0 -42 -24 -56t-62 -14q-40 0 -64 14t-24 56q0 43 24.5 57t63.5 14q38 0 62 -14t24 -57z" />
    <glyph glyph-name="ring" unicode="&#x2da;" horiz-adv-x="415" 
d="M209 789q87 0 122.5 -30.5t35.5 -91.5t-35.5 -91t-122.5 -30q-88 0 -123.5 30t-35.5 91q0 62 35.5 92t123.5 30zM209 636q58 0 58 31q0 32 -58 32q-59 0 -59 -32q0 -31 59 -31z" />
    <glyph glyph-name="ogonek" unicode="&#x2db;" horiz-adv-x="290" 
d="M137 -208q-51 0 -72 19.5t-21 54.5q0 36 18.5 72.5t47.5 61.5h99q-22 -19 -34.5 -40.5t-12.5 -40.5q0 -14 9 -23t38 -9v-95h-72z" />
    <glyph glyph-name="tilde" unicode="&#x2dc;" horiz-adv-x="619" 
d="M385 669q31 0 40.5 13t9.5 38h121v-11q0 -5 0.5 -10.5t0.5 -9.5q0 -26 -7 -50t-23 -43t-43.5 -30.5t-69.5 -11.5q-30 0 -53.5 8t-44 18t-39 18t-38.5 8q-32 0 -41 -13.5t-9 -37.5h-122q-1 6 -1 11v20q0 25 7 49.5t23 43.5t44 30.5t70 11.5q30 0 53.5 -8t43.5 -18t39 -18
t39 -8z" />
    <glyph glyph-name="hungarumlaut" unicode="&#x2dd;" horiz-adv-x="562" 
d="M309 546v118l197 53v-116zM56 546v118l198 53v-116z" />
    <glyph glyph-name="pi" unicode="&#x3c0;" horiz-adv-x="932" 
d="M884 320q0 -80 -17.5 -154t-64 -130.5t-127.5 -90.5t-209 -34t-209 34t-127 91t-63.5 131t-17.5 154q0 79 17.5 153t64 131t127.5 91t208 34q85 0 149 -15.5t110.5 -43.5t77 -66.5t48.5 -84t25.5 -96.5t7.5 -104zM756 320q0 61 -12 115.5t-44.5 95.5t-89 65t-144.5 24
t-144.5 -24t-88.5 -65t-44.5 -95.5t-12.5 -115.5q0 -62 12 -116.5t44.5 -95t88.5 -64.5t145 -24q88 0 144.5 24t89 64.5t44.5 95t12 116.5zM650 375q0 -39 -15.5 -67t-41.5 -46t-59 -26.5t-68 -8.5h-51v-116h-119v415h166q63 0 100 -14.5t56.5 -36.5t25.5 -49t6 -51z
M531 375q0 8 -2 18t-9 18.5t-19.5 14.5t-34.5 6h-51v-113h51q22 0 35 6t19.5 14.5t8.5 18t2 17.5z" />
    <glyph glyph-name="uni1E02" unicode="&#x1e02;" horiz-adv-x="621" 
d="M587 191q0 -37 -14 -71.5t-45.5 -61t-82.5 -42.5t-126 -16h-250v640h249q68 0 115.5 -12t77 -33.5t42.5 -51t13 -63.5q0 -48 -18 -82t-62 -54q55 -18 78 -61t23 -92zM441 195q0 16 -4 30.5t-16 25t-34.5 16.5t-60.5 6h-115v-156h113q37 0 59.5 6.5t35.5 17t17.5 24.5
t4.5 30zM426 452q0 15 -3.5 28t-14.5 22.5t-32 15t-57 5.5h-108v-142h105q35 0 56.5 5.5t33.5 15.5t16 22.5t4 27.5zM401 750q0 -42 -24 -56t-62 -14q-40 0 -64 14t-24 56q0 43 24.5 57t63.5 14q38 0 62 -14t24 -57z" />
    <glyph glyph-name="uni1E03" unicode="&#x1e03;" horiz-adv-x="594" 
d="M562 256q0 -51 -12 -98.5t-38 -84t-68.5 -59t-102.5 -22.5q-42 0 -73.5 7t-55 19t-40 28.5t-28.5 35.5l-30 -82h-59v707h136v-251q8 11 20.5 22.5t31.5 20.5t44 15t58 6q61 0 102.5 -22t67 -58.5t36.5 -84t11 -99.5zM422 256q0 33 -5.5 60.5t-19 47t-36.5 30.5t-59 11
q-37 0 -59 -11.5t-34 -31.5t-15.5 -47t-3.5 -59q0 -34 4 -61.5t16.5 -47t35 -30.5t58.5 -11q35 0 57.5 11t36 30.5t19 47.5t5.5 61zM426 621q0 -42 -24 -56t-62 -14q-40 0 -64 14t-24 56q0 43 24.5 57t63.5 14q38 0 62 -14t24 -57z" />
    <glyph glyph-name="uni1E0A" unicode="&#x1e0a;" horiz-adv-x="662" 
d="M616 324q0 -76 -20.5 -136t-60 -102t-97 -64t-132.5 -22h-237v640h248q147 0 223 -80.5t76 -235.5zM477 325q0 61 -12 99.5t-36 60.5t-60 29.5t-84 7.5h-74v-404h69q49 0 85.5 9.5t61.5 33t37.5 63.5t12.5 101zM392 750q0 -42 -24 -56t-62 -14q-40 0 -64 14t-24 56
q0 43 24.5 57t63.5 14q38 0 62 -14t24 -57z" />
    <glyph glyph-name="uni1E0B" unicode="&#x1e0b;" horiz-adv-x="594" 
d="M481 0l-31 82q-12 -19 -28.5 -35.5t-40 -28.5t-55 -19t-74.5 -7q-60 0 -102 22.5t-68.5 59t-38 84t-11.5 98.5t11 98.5t36.5 84.5t67 59t102.5 22q33 0 58 -5.5t43.5 -14.5t31 -20.5t20.5 -23.5v251h137v-707h-58zM405 256q0 32 -4 59t-16 47t-34 31t-59 11
q-36 0 -59 -11t-36.5 -30.5t-19 -46.5t-5.5 -60t5.5 -61t19 -47.5t36.5 -30.5t58 -11q36 0 58.5 11t34.5 30.5t16.5 47t4.5 61.5zM344 621q0 -42 -24 -56t-62 -14q-40 0 -64 14t-24 56q0 43 24.5 57t63.5 14q38 0 62 -14t24 -57z" />
    <glyph glyph-name="uni1E1E" unicode="&#x1e1e;" horiz-adv-x="536" 
d="M210 522v-158h282v-115h-282v-249h-141v640h447v-118h-306zM388 750q0 -42 -24 -56t-62 -14q-40 0 -64 14t-24 56q0 43 24.5 57t63.5 14q38 0 62 -14t24 -57z" />
    <glyph glyph-name="uni1E1F" unicode="&#x1e1f;" horiz-adv-x="350" 
d="M213 401v-401h-136v401h-77l1 67l76 43v49q0 45 14.5 75.5t45.5 48.5t80 24t118 2v-113q-39 3 -62.5 0.5t-37 -10t-18 -18.5t-4.5 -24v-33h122v-111h-122zM312 807q0 -42 -24 -56t-62 -14q-40 0 -64 14t-24 56q0 43 24.5 57t63.5 14q38 0 62 -14t24 -57z" />
    <glyph glyph-name="uni1E40" unicode="&#x1e40;" horiz-adv-x="924" 
d="M712 0v471l-180 -471h-141l-181 471v-471h-141v640h210l162 -415q5 -14 9 -27.5t7 -24.5q3 -12 5 -23q1 12 4 24q2 11 6 24t10 27l165 415h208v-640h-143zM549 750q0 -42 -24 -56t-62 -14q-40 0 -64 14t-24 56q0 43 24.5 57t63.5 14q38 0 62 -14t24 -57z" />
    <glyph glyph-name="uni1E41" unicode="&#x1e41;" horiz-adv-x="820" 
d="M637 0v314q0 18 -2.5 34.5t-11 29t-23 19.5t-38.5 7t-39 -7t-23.5 -19t-11.5 -28.5t-3 -35.5v-314h-139v314q0 18 -2.5 34.5t-11 29t-23 19.5t-38.5 7t-39.5 -7.5t-24 -20t-12 -29t-3.5 -35.5v-312h-137v512h59l31 -84q8 16 21.5 32t33.5 29.5t48 22t64 8.5
q101 0 142 -76q6 12 17.5 25t29.5 24.5t44 19t61 7.5q52 0 85.5 -17.5t52 -47t25.5 -68.5t7 -82v-305h-139zM514 621q0 -42 -24 -56t-62 -14q-40 0 -64 14t-24 56q0 43 24.5 57t63.5 14q38 0 62 -14t24 -57z" />
    <glyph glyph-name="uni1E56" unicode="&#x1e56;" horiz-adv-x="619" 
d="M575 421q0 -33 -6 -70.5t-32 -70t-78.5 -54t-146.5 -21.5h-101v-205h-142v640h235q62 0 106.5 -10t74.5 -27t48 -39.5t27.5 -46.5t12 -49t2.5 -47zM430 419q0 16 -4 34t-16.5 33.5t-36.5 25.5t-63 10h-99v-204h99q39 0 63 9.5t36.5 24.5t16.5 32.5t4 34.5zM371 750
q0 -42 -24 -56t-62 -14q-40 0 -64 14t-24 56q0 43 24.5 57t63.5 14q38 0 62 -14t24 -57z" />
    <glyph glyph-name="uni1E57" unicode="&#x1e57;" horiz-adv-x="594" 
d="M562 254q0 -52 -11 -99.5t-36.5 -83.5t-67 -57.5t-102.5 -21.5q-66 0 -102 20t-52 43v-255h-136v712h59l30 -85q12 19 28.5 36t40 30t55 20t73.5 7q60 0 102.5 -22.5t68.5 -60t38 -85t12 -98.5zM422 254q0 33 -5.5 61t-19 49t-36 32.5t-57.5 11.5q-36 0 -58.5 -11.5
t-35 -32t-16.5 -48.5t-4 -62q0 -32 3.5 -59t15.5 -46.5t34 -30.5t59 -11q36 0 59 10.5t36.5 30t19 46.5t5.5 60zM395 621q0 -42 -24 -56t-62 -14q-40 0 -64 14t-24 56q0 43 24.5 57t63.5 14q38 0 62 -14t24 -57z" />
    <glyph glyph-name="uni1E60" unicode="&#x1e60;" horiz-adv-x="659" 
d="M604 191q0 -35 -12.5 -70.5t-42.5 -64t-79.5 -46.5t-124.5 -18q-79 0 -134 16t-89.5 46.5t-50.5 74.5t-16 100h142q1 -25 9 -46.5t25 -37.5t44 -25t66 -9q67 0 94 19t30 49q3 26 -12.5 41.5t-42.5 26t-62.5 17t-73 14.5t-74 19t-65.5 29.5t-47 47t-19 71.5q-1 42 11.5 79
t43 64.5t81 43.5t125.5 16t126 -17.5t81.5 -47.5t44 -71.5t14.5 -89.5h-141q-3 24 -9.5 44t-21 33.5t-38.5 21t-61 7.5q-35 0 -58 -5.5t-36 -15.5t-18 -24t-3 -31q2 -19 19.5 -30.5t45.5 -19t63.5 -13.5t72 -14.5t71.5 -21t62 -33.5t43.5 -52t16.5 -77zM416 750
q0 -42 -24 -56t-62 -14q-40 0 -64 14t-24 56q0 43 24.5 57t63.5 14q38 0 62 -14t24 -57z" />
    <glyph glyph-name="uni1E61" unicode="&#x1e61;" horiz-adv-x="536" 
d="M509 156q0 -30 -12.5 -59t-40.5 -52.5t-71.5 -38t-105.5 -14.5q-132 0 -192 50t-60 148h135q0 -40 26.5 -66t87.5 -26q28 0 46.5 5.5t30 13t16.5 16.5t5 17q0 21 -25 31.5t-62 18t-80.5 15.5t-81 23.5t-63 42.5t-26.5 72q0 35 12.5 65.5t40 53t71.5 35.5t106 13
q64 0 107.5 -14t70.5 -38.5t38.5 -59.5t11.5 -77h-128q-4 40 -25 62.5t-79 22.5q-51 0 -70.5 -17.5t-19.5 -36.5q0 -18 25 -27t62.5 -15.5t81 -15t81 -25t62.5 -46t25 -77.5zM355 621q0 -42 -24 -56t-62 -14q-40 0 -64 14t-24 56q0 43 24.5 57t63.5 14q38 0 62 -14t24 -57z
" />
    <glyph glyph-name="uni1E6A" unicode="&#x1e6a;" horiz-adv-x="502" 
d="M321 522v-522h-140v522h-166v118h474v-118h-168zM337 750q0 -42 -24 -56t-62 -14q-40 0 -64 14t-24 56q0 43 24.5 57t63.5 14q38 0 62 -14t24 -57z" />
    <glyph glyph-name="uni1E6B" unicode="&#x1e6b;" horiz-adv-x="382" 
d="M362 -5q-68 -6 -118.5 -1.5t-83.5 24t-49.5 56.5t-16.5 96v230h-75v68l75 42v130h136v-128h132v-112h-128v-229q0 -43 28 -56t100 -8v-112zM250 750q0 -42 -24 -56t-62 -14q-40 0 -64 14t-24 56q0 43 24.5 57t63.5 14q38 0 62 -14t24 -57z" />
    <glyph glyph-name="Wgrave" unicode="&#x1e80;" horiz-adv-x="997" 
d="M805 0h-171l-135 467l-135 -467h-172l-186 640h153l121 -469l139 469h167l136 -469l124 469h145zM265 756v114l467 -81v-114z" />
    <glyph glyph-name="wgrave" unicode="&#x1e81;" horiz-adv-x="826" 
d="M670 0h-161l-102 353l-102 -353h-153l-138 512h150l72 -366l103 366h136l110 -367l79 367h148zM179 627v114l467 -81v-114z" />
    <glyph glyph-name="Wacute" unicode="&#x1e82;" horiz-adv-x="997" 
d="M805 0h-171l-135 467l-135 -467h-172l-186 640h153l121 -469l139 469h167l136 -469l124 469h145zM266 675v114l467 81v-114z" />
    <glyph glyph-name="wacute" unicode="&#x1e83;" horiz-adv-x="826" 
d="M670 0h-161l-102 353l-102 -353h-153l-138 512h150l72 -366l103 366h136l110 -367l79 367h148zM179 546v114l467 81v-114z" />
    <glyph glyph-name="Wdieresis" unicode="&#x1e84;" horiz-adv-x="997" 
d="M805 0h-171l-135 467l-135 -467h-172l-186 640h153l121 -469l139 469h167l136 -469l124 469h145zM696 750q0 -41 -22 -55t-61 -14q-40 0 -61.5 14t-21.5 55q0 42 21.5 55.5t61.5 13.5q39 0 61 -13.5t22 -55.5zM467 750q0 -41 -22.5 -55t-59.5 -14q-41 0 -62.5 14
t-21.5 55q0 42 21.5 55.5t62.5 13.5q38 0 60 -13.5t22 -55.5z" />
    <glyph glyph-name="wdieresis" unicode="&#x1e85;" horiz-adv-x="826" 
d="M670 0h-161l-102 353l-102 -353h-153l-138 512h150l72 -366l103 366h136l110 -367l79 367h148zM610 621q0 -41 -22 -55t-61 -14q-40 0 -61.5 14t-21.5 55q0 42 21.5 55.5t61.5 13.5q39 0 61 -13.5t22 -55.5zM381 621q0 -41 -22.5 -55t-59.5 -14q-41 0 -62.5 14t-21.5 55
q0 42 21.5 55.5t62.5 13.5q38 0 60 -13.5t22 -55.5z" />
    <glyph glyph-name="Ygrave" unicode="&#x1ef2;" horiz-adv-x="622" 
d="M379 194v-194h-148v194l-231 446h150l157 -324l165 324h150zM77 756v114l467 -81v-114z" />
    <glyph glyph-name="ygrave" unicode="&#x1ef3;" horiz-adv-x="582" 
d="M527 -8q0 -37 -9 -73t-35 -64t-73.5 -45.5t-124.5 -17.5q-72 0 -119 13t-74 36.5t-37.5 55t-10.5 69.5h137q1 -15 4.5 -27.5t14 -21.5t31 -14.5t55.5 -5.5q33 0 53.5 6t32 17t15 26.5t3.5 34.5v73q-18 -24 -51 -43t-93 -19t-98.5 16.5t-60.5 46.5t-30 73.5t-8 97.5v286
h136v-298q0 -27 3.5 -47.5t14.5 -34t31 -20t52 -6.5t52 7.5t31.5 22t16 36t4.5 49.5v291h137v-520zM57 627v114l467 -81v-114z" />
    <glyph glyph-name="endash" unicode="&#x2013;" horiz-adv-x="650" 
d="M41 201v114h568v-114h-568z" />
    <glyph glyph-name="emdash" unicode="&#x2014;" horiz-adv-x="834" 
d="M41 201v114h751v-114h-751z" />
    <glyph glyph-name="quoteleft" unicode="&#x2018;" horiz-adv-x="235" 
d="M47 639h88v-127q34 -2 54.5 -18.5t20.5 -58.5q0 -23 -7 -38t-19 -23.5t-29.5 -11.5t-38.5 -3t-39 3.5t-30.5 12.5t-19 24t-3.5 38z" />
    <glyph glyph-name="quoteright" unicode="&#x2019;" horiz-adv-x="236" 
d="M189 365h-88v127q-34 2 -54.5 18.5t-20.5 58.5q0 46 26 61t68 15q48 0 72.5 -18t18.5 -68z" />
    <glyph glyph-name="quotesinglbase" unicode="&#x201a;" horiz-adv-x="235" 
d="M189 -133h-88v127q-34 2 -54.5 18.5t-20.5 58.5q0 46 26 61t68 15q21 0 39 -3.5t30.5 -12.5t19 -24t3.5 -38z" />
    <glyph glyph-name="quotedblleft" unicode="&#x201c;" horiz-adv-x="479" 
d="M47 640h88v-127q34 -2 54.5 -18.5t20.5 -58.5q0 -23 -7 -38t-19 -23.5t-29.5 -11.5t-38.5 -3t-39 3.5t-30.5 12.5t-19 24t-3.5 38zM285 640h88v-127q34 -2 54.5 -18.5t20.5 -58.5q0 -23 -7 -38t-19 -23.5t-29.5 -11.5t-38.5 -3t-39 3.5t-30.5 12.5t-19 24t-3.5 38z" />
    <glyph glyph-name="quotedblright" unicode="&#x201d;" horiz-adv-x="475" 
d="M426 368h-88v127q-34 2 -54.5 18.5t-20.5 58.5q0 46 26 61t68 15q21 0 39 -3.5t30.5 -12.5t19 -24t3.5 -38zM188 368h-88v127q-34 2 -54.5 18.5t-20.5 58.5q0 46 26 61t68 15q21 0 39 -3.5t30.5 -12.5t19 -24t3.5 -38z" />
    <glyph glyph-name="quotedblbase" unicode="&#x201e;" horiz-adv-x="475" 
d="M426 -131h-88v127q-34 2 -54.5 18.5t-20.5 58.5q0 46 26 61t68 15q21 0 39 -3.5t30.5 -12.5t19 -24t3.5 -38zM188 -131h-88v127q-34 2 -54.5 18.5t-20.5 58.5q0 46 26 61t68 15q21 0 39 -3.5t30.5 -12.5t19 -24t3.5 -38z" />
    <glyph glyph-name="dagger" unicode="&#x2020;" horiz-adv-x="470" 
d="M306 400v-468h-145v468h-134v111h134v129h145v-128h136v-112h-136z" />
    <glyph glyph-name="daggerdbl" unicode="&#x2021;" horiz-adv-x="497" 
d="M320 201v-105v-164h-145v269h-134v111h134v95h-134v112h134v121h145v-120l136 -1v-112h-136v-95h136v-111h-136z" />
    <glyph glyph-name="bullet" unicode="&#x2022;" horiz-adv-x="839" 
d="M792 319q0 -65 -15.5 -124.5t-56.5 -104.5t-113.5 -71.5t-186.5 -26.5t-186 26.5t-113.5 71.5t-56.5 104.5t-15 125.5t16 125.5t57 104.5t113 71.5t185 26.5q114 0 186.5 -26.5t113.5 -72t56.5 -105t15.5 -125.5z" />
    <glyph glyph-name="ellipsis" unicode="&#x2026;" horiz-adv-x="739" 
d="M712 69q0 -45 -25 -61t-67 -16q-21 0 -38.5 3.5t-29.5 12t-19 23.5t-7 38t7 38t19.5 23.5t29.5 12t38 3.5q41 0 66.5 -15.5t25.5 -61.5zM462 69q0 -45 -25.5 -61t-66.5 -16q-21 0 -38.5 3.5t-29.5 12t-19 23.5t-7 38q0 46 26 61.5t68 15.5q20 0 37 -3.5t29 -12t19 -23.5
t7 -38zM212 69q0 -45 -25.5 -61t-66.5 -16q-21 0 -38.5 3.5t-29.5 12t-19 23.5t-7 38q0 46 26 61.5t68 15.5q20 0 37 -3.5t29 -12t19 -23.5t7 -38z" />
    <glyph glyph-name="perthousand" unicode="&#x2030;" horiz-adv-x="1795" 
d="M1754 221q0 -45 -10.5 -86.5t-37 -73t-71.5 -50.5t-114 -19t-114 19t-70.5 50.5t-35.5 73t-10 86.5t10 86t36 73t71 51t114 19t113.5 -19t71 -51t37 -73t10.5 -86zM1231 221q0 -45 -10 -86.5t-36.5 -73t-71.5 -50.5t-114 -19t-113.5 19t-70 50.5t-35.5 73t-10 86.5t10 86
t36 73t70.5 51t113.5 19t113.5 -19t71 -51t36.5 -73t10 -86zM597 0h-136l183 525h-177q20 -22 28.5 -52.5t8.5 -60.5q0 -45 -9.5 -87t-35.5 -73.5t-71.5 -50.5t-116.5 -19t-116 19t-70.5 51t-34.5 73.5t-9 86.5t10 86t38 72.5t79 50.5t134 19h518zM1631 221q0 24 -4.5 45
t-16.5 36t-33.5 24t-54.5 9t-54 -8.5t-33 -24t-16.5 -36.5t-4.5 -45t4.5 -45t16.5 -36.5t33 -24t53 -8.5q33 0 54.5 8.5t33.5 23.5t17 36t5 46zM1109 221q0 24 -4.5 45t-16.5 36t-33 24t-55 9q-32 0 -53 -8.5t-33 -24t-17 -36.5t-5 -45t5 -45t17 -36.5t32.5 -24t52.5 -8.5
q33 0 54.5 8.5t33.5 23.5t17 36t5 46zM381 412q0 24 -4.5 44.5t-16.5 35.5t-33.5 24t-54.5 9q-32 0 -53 -8.5t-33 -23.5t-17 -36t-5 -45q0 -25 4.5 -45.5t16.5 -35.5t33 -23.5t53 -8.5q33 0 54.5 8t33.5 23t17 36t5 46z" />
    <glyph glyph-name="guilsinglleft" unicode="&#x2039;" horiz-adv-x="292" 
d="M129 44l-102 211l102 212h137l-101 -212l101 -211h-137z" />
    <glyph glyph-name="guilsinglright" unicode="&#x203a;" horiz-adv-x="294" 
d="M165 44h-138l102 211l-102 212h138l101 -212z" />
    <glyph glyph-name="Euro" unicode="&#x20ac;" horiz-adv-x="755" 
d="M714 242q0 -53 -17.5 -98.5t-54.5 -79t-94.5 -53t-138.5 -19.5q-82 0 -138.5 21.5t-92.5 59t-54 87t-23 106.5h-87v114h87q6 56 24.5 105t55 85t92.5 57t136 21t137.5 -20.5t95 -54.5t55 -79.5t17.5 -94.5h-147q-6 59 -44 95t-114 36q-41 0 -69.5 -11t-47.5 -31
t-30 -47.5t-16 -60.5h251v-114h-251q4 -34 14.5 -62.5t29.5 -49.5t48.5 -32.5t70.5 -11.5q77 0 113.5 36t44.5 96h147v0z" />
    <glyph glyph-name="trademark" unicode="&#x2122;" horiz-adv-x="1027" 
d="M851 194v293l-103 -293h-94l-106 297v-297h-113v446h174l92 -291l88 291h183v-446h-121zM270 537v-342h-125v342h-116v103h356v-103h-115z" />
    <glyph glyph-name="partialdiff" unicode="&#x2202;" horiz-adv-x="606" 
d="M264 647q8 1 16 1h17q69 0 119.5 -18t84 -57.5t50 -102t16.5 -150.5q0 -87 -16.5 -149.5t-50.5 -102t-86 -58t-122 -18.5q-66 0 -113 17t-77.5 46t-44.5 67.5t-14 81.5q0 60 20.5 99.5t53 63.5t72.5 33.5t79 9.5q31 0 57.5 -6t46.5 -15.5t35 -20.5t24 -21
q-1 52 -8.5 87.5t-23.5 57t-41 30.5t-61 9h-13t-11 -1zM182 204q0 -44 28.5 -71.5t83.5 -27.5q36 0 60.5 8t39.5 21.5t21 31.5t6 38q0 40 -29 68t-92 28q-34 0 -56.5 -8t-36 -21.5t-19.5 -31t-6 -35.5z" />
    <glyph glyph-name="minus" unicode="&#x2212;" horiz-adv-x="650" 
d="M41 201v114h568v-114h-568z" />
    <glyph glyph-name="notequal" unicode="&#x2260;" horiz-adv-x="650" 
d="M330 97l-56 -162h-137l57 162h-153v114h193l33 96h-226v114h266l54 154h135l-54 -154h167v-114h-207l-33 -96h240v-114h-279z" />
    <glyph glyph-name="lozenge" unicode="&#x25ca;" horiz-adv-x="1030" 
d="M969 286q9 -6 10.5 -13.5t-2 -13.5t-10.5 -8t-16 3l-51 25l-32 -69q13 -7 21.5 -19.5t12 -27t1 -30t-11.5 -27.5q-14 -20 -35 -29t-47 3q-8 -16 -14 -26.5t-9 -17.5l-6 -12q-10 -21 -27 -9l-19 9q-8 5 -10.5 12.5t2.5 15.5l27 53q-1 0 -3 1t-16 10q-9 5 -12 12.5
t-1.5 14.5t7 12.5t13.5 6.5q-9 6 -10 15t3.5 16.5t12.5 11t18 -0.5q-3 7 -2 14.5t5.5 13.5t12 8t17.5 -1l15 -7l35 72l-38 18q-9 4 -12 11t-1.5 13t7.5 9.5t16 2.5l65 -6zM850 541q10 -1 14.5 -7.5t3.5 -14t-6.5 -13.5t-15.5 -6q-46 4 -71 6t-36 3l-15 1q24 -28 38 -63
t14 -74q0 -43 -16.5 -81t-45 -66.5t-66 -45t-80.5 -16.5t-81 16.5t-66 45t-44.5 66.5t-16.5 81q0 41 15 77.5t41 64.5t61 45t75 20l26 5q20 4 60.5 11.5t117.5 21.5q10 2 16 -3.5t7 -13t-3 -15t-14 -9.5l-102 -18l6 -2q1 -1 2 -1l23 -2q17 -2 53.5 -5t105.5 -8zM304 255
q6 -29 0 -58t-26 -53q-17 -21 -39.5 -33t-47 -14.5t-48.5 4t-45 23.5t-32.5 39.5t-14.5 47t4 48.5t24 45t39.5 33.5t47 15t49 -4.5t44.5 -23q8 -5 13.5 -11t10.5 -13h58zM693 457q8 4 9.5 11.5t-1.5 14t-10 9.5t-14 -1l-79 -43q-14 -7 -13.5 -16.5t14.5 -15.5l79 -34
q7 -4 13.5 -1t9.5 9t1 13t-10 11l-45 19zM534 474q-16 19 -40 21t-44 -12q-20 -17 -21 -41t14 -44q16 -19 40 -21t44 14q19 16 21 40t-14 43zM655 311q9 0 13.5 5.5t4.5 12t-4.5 12t-13.5 5.5h-180q-9 0 -15 -4t-6 -13q0 -27 10.5 -45.5t22.5 -29.5q10 -8 23 -15
q11 -6 26.5 -11t33.5 -6q9 -1 14 4.5t5.5 12.5t-3.5 13t-13 6q-14 0 -25 3.5t-19 8.5q-10 5 -17 11q-13 13 -17 30h160zM279 214q-4 4 -9 4q-9 0 -9 -8q0 -6 7 -8l3 -1q2 -1 2 -3t-3 -2q-4 0 -5 3l-5 -4q4 -5 10 -5q10 0 10 9q0 5 -7 7l-3 1q-2 1 -2 3t2 2h1q1 0 3 -2z
M255 207h-11v4h11v6h-18v-26h18v7h-11v4h11v5zM205 256h-7v-12v-1l-21 16v-30h7v14v1l21 -15v27zM231 218h-8v-10h-13v10h-7v-27h7v11h13v-11h8v27zM137 282q0 8 -5.5 12.5t-13.5 4.5q-19 0 -19 -17q0 -8 5.5 -12t13.5 -4q19 0 19 16zM157 258l-16 -26l7 -3l2 5h14l3 -5l6 3
zM197 207h-17v-5h9v-4q-1 0 -2 -0.5t-3 -0.5q-8 0 -8 7t8 7q4 0 7 -2l4 5q-7 4 -12 4q-6 0 -10.5 -4.5t-4.5 -9.5q0 -13 16 -13q8 0 13 4v12zM137 256h-8v-27h8v27zM119 241q1 2 2 3t1 4q0 8 -10 8h-10v-27h7v10h3l1 -1l7 -9l6 5zM164 218h-8v-14q0 -6 -6 -6q-7 0 -7 6v14
h-8v-14q0 -14 15 -14q14 0 14 14v14zM194 170q0 9 -10 9q-9 0 -9 -9v-10q0 -9 9 -9q10 0 10 9v10zM169 170q0 9 -10 9q-9 0 -9 -9v-10q0 -9 9 -9q10 0 10 9v10zM129 218h-7v-10h-13v10h-7v-27h7v11h13v-11h7v27zM144 170q0 4 -3 6.5t-6 2.5q-9 0 -9 -9v-10q0 -9 9 -9
q3 0 6 2.5t3 6.5v10zM120 158h-9l5 6q3 3 3 6q0 9 -10 9q-4 0 -8 -4l-1 -2l5 -4q3 3 4 3q2 0 2.5 -1.5t-0.5 -2.5l-12 -17h21v7zM506 445q0 -9 -6 -15t-16 -6q-9 0 -15.5 7t-6.5 16t7 15.5t17 6.5q9 -1 15 -8t5 -16zM131 282q0 -11 -13 -11t-13 11q0 12 13 12t13 -12z
M153 240l4 6l3 -6h-7zM114 248q0 -3 -3 -3h-2v5h2q3 0 3 -2zM186 160q0 -2 -2 -2q-1 0 -1 2v10q0 2 1 2q2 0 2 -2v-10zM162 160q0 -2 -3 -2q-2 0 -2 2v10q0 2 2 2q3 0 3 -2v-10zM137 160q0 -1 -1 -1t-1 -1q-3 0 -3 2v10q0 2 3 2h1l1 -2v-10zM122 281q-1 -2 -4 -2q-4 0 -4 3
q0 4 4 4q2 0 4 -2l4 2q-3 5 -8 5q-10 0 -10 -9q0 -8 10 -8q4 0 8 4z" />
    <glyph glyph-name="uniFB01" unicode="&#xfb01;" horiz-adv-x="510" 
d="M321 0v400h-107v-400h-137v400h-76v71l76 40v29q0 51 15.5 85.5t57.5 54.5t116.5 27t192.5 3v-113q-81 3 -129 0.5t-73 -10.5t-32.5 -20t-7.5 -27v-28h242v-512h-138z" />
    <glyph glyph-name="uniFB02" unicode="&#xfb02;" horiz-adv-x="514" 
d="M321 0v400h-107v-400h-137v400h-76v71l76 41v48q0 49 19.5 79t51.5 46t73 21.5t84 5.5q42 0 81.5 -2.5t72.5 -2.5v-707h-138zM321 597q-8 0 -16 1t-15 1q-26 0 -40.5 -4.5t-21.5 -11t-9 -15t-2 -17.5v-39h104v85z" />
    <glyph glyph-name="glyph145" horiz-adv-x="236" 
d="M183 376h-81v132q-32 2 -50.5 17t-18.5 53q0 43 24.5 56.5t62.5 13.5q45 0 67 -16.5t16 -62.5z" />
    <glyph glyph-name="glyph152" horiz-adv-x="225" 
d="M166 -245h-75v84q-29 4 -47 17t-18 48q0 40 22.5 53t57.5 13q41 0 62 -17t16 -57z" />
    <glyph glyph-name="glyph366" horiz-adv-x="657" 
d="M572 398q1 -1 3.5 -3t7.5 -2q4 0 8 4l10 -8q-8 -5 -11 -6t-7 -1q-25 0 -25 22q0 8 7 14.5t18 6.5q9 0 16.5 -6.5t7.5 -20.5h-35zM551 394q-7 -8 -12 -10t-10 -2q-10 0 -17 6t-7 16q0 8 7 14.5t17 6.5q5 0 9.5 -2t12.5 -9l-10 -9q-8 7 -12 7q-9 0 -9 -8q0 -10 9 -10
q2 0 12 8zM496 436q1 -2 -1.5 -4.5t-4.5 -3.5q-9 0 -9 7q-2 7 6 7q7 2 9 -6zM322 675q-1 -31 -23 -53t-53 -22q-32 0 -53.5 22t-20.5 53q0 31 22 53t53 22q32 0 53.5 -22t21.5 -53zM481 382v42h14v-42h-14zM449 379l-25 40l12 6l3.5 -7t3.5 -5q2 -3 3 -4l3 -5q1 1 1 1.5
t1 1.5q0 1 1 2t3 4q2 2 3.5 4.5t4.5 6.5l11 -6zM386 398q2 -1 3.5 -3t6.5 -2q4 0 9 4l10 -8q-8 -5 -11 -6t-8 -1q-11 0 -18 6t-7 16q0 8 7 14.5t18 6.5t17.5 -6.5t6.5 -20.5h-34zM349 382v3q-2 -2 -5.5 -2.5t-6.5 -0.5q-9 0 -15.5 6t-6.5 16q0 9 6.5 15t15.5 6q3 0 6.5 -1
t5.5 -3v15h14v-54h-14zM418 307q-34 -4 -50.5 -9t-24 -15.5t-10 -30t-7.5 -53.5q-7 -38 -12 -75q-5 -32 -10 -66t-9 -58q-43 -1 -76 19t-56 45q-27 28 -47 65q-20 39 -33.5 84t-21.5 85t-9.5 68.5t3.5 34.5q4 3 9 6q5 2 11.5 3t15.5 -2q-5 -50 -7 -85t1 -69l45 6
q-2 10 -4.5 30t-5 44.5t-4 51t-1 49.5t3 40.5t8.5 23.5q4 3 9 6q5 2 11.5 2.5t15.5 -3.5q-5 -29 -9 -61.5t-7 -65t-4 -62.5t-1 -53l45 8q-1 6 -1 28.5t1 53t2.5 65.5t4.5 65.5t7.5 53t11.5 28.5q5 4 10 6t11.5 2t15.5 -4q-9 -37 -18 -82.5t-15.5 -88.5t-11 -77t-4.5 -49
l40 6q9 91 17 143.5t14 80.5q7 32 13 43q5 5 11 8q5 2 12 2t17 -6q-24 -60 -38.5 -112.5t-22.5 -91.5q-10 -47 -14 -85q-6 -64 2.5 -89t21 -26t25 16.5t15.5 39.5q4 33 -2 59t-10.5 43.5t-1 26.5t27.5 8q10 -1 24 -3.5t27.5 -6t24.5 -9t14 -11.5zM592 409q0 1 -2.5 3t-6.5 2
q-5 0 -7.5 -2t-3.5 -3h20zM287 676q2 16 -9 27t-28 11h-29l-9 -77h28q18 0 31.5 11t15.5 28zM406 409l-3 3t-7 2t-6.5 -2t-3.5 -3h20zM349 404q0 3 -3 5.5t-6 2.5q-11 0 -11 -8q0 -10 11 -10q3 0 6 3t3 7zM266 676q-1 -9 -8 -14.5t-17 -5.5h-6l5 39h6q10 0 16 -5.5t4 -13.5z
" />
    <glyph glyph-name="f.aalt" horiz-adv-x="431" 
d="M96 560q0 34 9 62.5t29 49t53 32t80 11.5q53 0 87.5 -11.5t55 -32t28.5 -49t8 -63.5h-122q0 28 -12.5 37t-35.5 9t-33.5 -12.5t-10.5 -33.5v-47h190v-111h-190v-401h-136v401h-77v67l77 43v49z" />
    <glyph glyph-name="t.aalt" horiz-adv-x="467" 
d="M94 400h-75v68l75 42v130h136v-128h204v-112h-200v-255q0 -22 10 -32.5t33 -10.5t33.5 9t10.5 38h130q0 -35 -9 -64t-31 -49.5t-57.5 -32t-88.5 -11.5q-47 0 -80 11t-53 31.5t-29 48.5t-9 62v255z" />
    <glyph glyph-name="R.aalt" horiz-adv-x="630" 
d="M437 0v92q0 35 -3.5 62.5t-16 46t-38 28.5t-69.5 10h-99v-239h-142v640h235q91 0 145 -20t82 -50.5t36 -66.5t8 -67q0 -21 -3.5 -42t-13.5 -40.5t-27.5 -36t-45.5 -27.5q54 -16 75 -64.5t21 -129.5v-96h-144zM430 436q0 15 -4.5 31t-18 28.5t-37 20.5t-60.5 8h-99v-173
h99q37 0 60.5 7.5t37 19.5t18 27.5t4.5 30.5z" />
    </font>
</defs>
</svg>
